<svg width="699" height="438" viewBox="0 0 699 438" fill="none" xmlns="http://www.w3.org/2000/svg">
<g clip-path="url(#clip0)">
<path d="M-1 437.5H699V-1.86265e-06H-1V437.5Z" fill="none"/>
<path d="M116.552 60.9159C206.787 27.4174 298.499 57.0326 360.7 121.538C391.808 153.801 440.013 142.653 489.092 131.506C538.141 120.365 588.063 109.226 622.668 141.416C669.914 185.365 648.272 298.361 583.49 347.303C495.434 413.826 167.391 415.823 112.962 392.996C19.9526 353.988 112.368 281.752 68.9526 212.506C17.7322 130.813 76.676 75.7191 116.552 60.9159Z" fill="#FFC4B9"/>
<path d="M624.916 373.396C579.746 371.187 426.091 374.927 379.359 376.386C332.627 377.844 278.382 374.461 250.206 369.488C222.029 364.513 59.1535 369.911 66.5446 383.285C73.9359 396.658 139.113 389.268 213.025 394.642C286.936 400.018 453.165 393.97 490.663 394.642C528.158 395.314 562.542 393.298 610.863 390.61C659.184 387.924 651.097 374.675 624.916 373.396" fill="#E38878"/>
<path d="M492.604 116.584L488.01 109.485C486.67 109.639 485.308 109.719 483.926 109.719C481.899 109.719 479.915 109.548 477.981 109.222L473.02 116.07C470.592 115.44 468.247 114.603 466.006 113.583L466.462 105.141C463.526 103.484 460.85 101.421 458.509 99.0285L457.737 99.2805V47.1534L459.858 47.9706C462.318 45.7079 465.099 43.7881 468.123 42.2849L468.113 33.8306C470.403 32.9329 472.789 32.2224 475.249 31.7219L479.843 38.8216C481.183 38.6694 482.545 38.5871 483.926 38.5871C485.952 38.5871 487.938 38.7586 489.872 39.0859L494.833 32.2381C497.261 32.8681 499.606 33.7029 501.847 34.7249L501.391 43.1651C504.325 44.8241 507.001 46.8874 509.344 49.2796L517.379 46.6581C518.954 48.5708 520.366 50.6236 521.598 52.7918L516.271 59.3456C517.65 62.3538 518.621 65.5843 519.115 68.9723L527.149 71.5711C527.2 72.4251 527.228 73.2861 527.228 74.1541C527.228 75.7973 527.133 77.4195 526.955 79.0155L518.796 81.1873C518.124 84.5351 516.981 87.7113 515.443 90.6478L520.417 97.4763C519.073 99.5745 517.552 101.547 515.877 103.377L507.995 100.336C505.535 102.6 502.754 104.52 499.728 106.023L499.739 114.476C497.45 115.375 495.064 116.084 492.604 116.584V116.584ZM483.926 57.1703C474.546 57.1703 466.942 64.7741 466.942 74.1541C466.942 83.534 474.546 91.1378 483.926 91.1378C493.306 91.1378 500.909 83.534 500.909 74.1541C500.909 64.7741 493.306 57.1703 483.926 57.1703Z" fill="#E38878"/>
<path d="M507.09 93.7646C506.892 93.7646 506.694 93.6982 506.53 93.5617C506.159 93.2537 506.108 92.7007 506.418 92.3297C510.649 87.2407 512.98 80.7849 512.98 74.1542C512.98 70.9779 512.462 67.8595 511.437 64.8862C511.279 64.4295 511.523 63.9325 511.979 63.775C512.436 63.6175 512.935 63.8589 513.092 64.3157C514.179 67.4744 514.73 70.7837 514.73 74.1542C514.73 81.1927 512.256 88.0457 507.764 93.4479C507.59 93.6562 507.34 93.7646 507.09 93.7646" fill="white"/>
<path d="M504.63 53.6797C504.415 53.6797 504.199 53.5992 504.03 53.4417C501.186 50.7624 497.891 48.7324 494.239 47.4076C493.784 47.2431 493.549 46.7409 493.714 46.2859C493.878 45.8326 494.38 45.5981 494.835 45.7626C498.713 47.1696 502.212 49.3239 505.23 52.1677C505.582 52.4984 505.598 53.0514 505.267 53.4032C505.095 53.5869 504.863 53.6797 504.63 53.6797" fill="white"/>
<path d="M477.338 46.6001C476.946 46.6001 476.591 46.3358 476.489 45.9386C476.372 45.4696 476.656 44.9936 477.125 44.8764C479.534 44.2674 482.028 43.9594 484.536 43.9594C485.02 43.9594 485.411 44.3514 485.411 44.8343C485.411 45.3173 485.02 45.7093 484.536 45.7093C482.171 45.7093 479.823 45.9999 477.552 46.5721C477.48 46.5914 477.408 46.6001 477.338 46.6001" fill="white"/>
<path d="M454.901 138.502V100.205L457.736 99.2814V137.976C456.791 138.154 455.843 138.331 454.901 138.502V138.502ZM457.736 47.1541L454.901 46.0604V35.8141H200.29V46.7446C197.982 46.6694 195.66 46.6309 193.341 46.6309C191.264 46.6309 189.19 46.6606 187.106 46.7219V31.8469H457.736V47.1541Z" fill="#E38878"/>
<path d="M457.736 194.4H187.106V46.7215C189.19 46.6603 191.264 46.6305 193.341 46.6305C195.66 46.6305 197.982 46.669 200.29 46.7443V185.041H454.901V138.502C455.843 138.33 456.791 138.154 457.736 137.975V194.4" fill="#E38878"/>
<path d="M454.901 100.205V46.0601L457.736 47.1538V99.2811L454.901 100.205Z" fill="#E38878"/>
<path d="M200.291 185.041H454.901V35.8131H200.291V185.041Z" fill="white"/>
<path d="M417.403 112.934C429.537 101.384 450.275 101.647 449.837 119.234C449.4 136.822 450.852 138.475 455.845 147.701C473.17 179.714 435.195 177.831 419.357 178.881C403.52 179.931 404.832 150.094 407.632 133.556C410.432 117.019 413.852 116.315 417.403 112.934Z" fill="#510000"/>
<path d="M423.059 213.777C419.169 246.444 412.1 270.592 411.313 286.08C410.525 301.565 407.375 362.544 407.375 362.544C407.375 362.544 416.038 361.938 416.825 360.626C417.613 359.313 433.1 324.928 432.313 303.665C431.525 282.405 447.781 250.077 447.781 250.077L443.861 218.358L423.059 213.777Z" fill="black"/>
<path d="M426.795 227.997L420.712 230.543C419.058 240.901 417.222 250.215 415.612 258.477C425.293 264.735 430.293 285.588 432.437 298.336C433.529 284.07 440.259 266.833 444.435 257.301L426.795 227.997Z" fill="black"/>
<path d="M454.886 210.483C454.886 210.483 467.997 227.208 467.585 246.181C466.961 275.065 463.811 283.311 469.292 313.597C471.432 325.425 464.567 364.119 464.567 364.119C464.567 364.119 458.702 364.578 455.552 363.01C455.815 360.168 451.762 313.919 443.869 292.66C440.046 282.364 434.675 253.531 431.787 236.994C428.9 220.458 428.375 217.045 429.425 217.045C430.475 217.045 454.886 210.483 454.886 210.483" fill="black"/>
<path d="M380.187 164.034C380.187 164.034 380.769 155.381 379.837 152.708C378.902 150.034 370.852 147.702 370.852 147.702C370.852 147.702 370.502 160.069 371.319 161.584C372.136 163.102 376.919 167.419 376.919 167.419L380.187 164.034" fill="#F09959"/>
<path d="M425.451 157.73C407.02 177.569 401.003 185.917 399.603 185.917C395.228 178.194 380.698 161.861 380.698 161.861L374.501 165.844C374.501 165.844 388.82 203.254 397.92 203.641C407.02 204.027 425.516 190.74 425.75 189.214C425.985 187.688 425.451 157.73 425.451 157.73" fill="#F2A2C8"/>
<path d="M406.227 201.702C415.245 198.03 425.575 190.351 425.75 189.214C425.984 187.688 425.451 157.729 425.451 157.729C421.433 162.055 417.926 165.891 414.881 169.246C411.579 181.542 411.796 194.931 406.227 201.702Z" fill="#E096BE"/>
<path d="M444.177 144.669C444.177 144.669 461.815 153.51 465.665 169.161C469.515 184.809 458.123 204.145 456.723 214.463C455.323 224.781 423.125 226.596 423.125 215.551C423.125 204.962 415.057 182.487 415.512 176.761C416.581 163.328 436.216 146.873 436.216 146.873L444.177 144.669Z" fill="#F2A2C8"/>
<path d="M439.052 124.395L446.624 147.745C446.624 147.745 438.539 153.984 424.702 168.994C425.239 159.005 433.608 148.118 433.608 148.118L427.88 126.068L439.052 124.395" fill="#F09959"/>
<path d="M442.583 135.285L439.052 124.395L427.879 126.068L433.607 148.118C433.607 148.118 433.047 149.009 432.223 150.411C437.618 146.405 440.93 141.421 442.583 135.285Z" fill="#E38540"/>
<path d="M434.879 129.665C432.837 137.095 424.929 141.187 419.308 139.641C413.689 138.096 412.486 131.502 414.529 124.072C416.571 116.641 422.783 111.869 428.402 113.414C434.022 114.958 436.921 122.234 434.879 129.665" fill="#F09959"/>
<path d="M421.717 205.081C424.169 220.619 415.064 253.861 415.064 253.861C415.064 253.861 420.494 255.094 436.769 253.519C453.044 251.944 460.219 235.701 462.669 235.248C465.119 234.794 466.377 250.364 467.585 251.594C468.794 252.825 468.978 231.933 465.819 223.719C460.219 209.16 461.314 202.984 463.407 194.164C467.13 178.479 421.717 205.081 421.717 205.081Z" fill="#F2A2C8"/>
<path d="M407.77 354.896C407.77 360.5 406.342 365.574 402.469 369.018C399.319 371.818 389.637 373.008 390.102 374.408C390.569 375.808 402.002 376.251 405.852 375.668C409.702 375.084 410.752 373.218 415.544 373.22C418.687 373.222 419.269 370.667 417.869 367.51C416.469 364.351 415.979 362.606 417.245 359.775C418.51 356.943 407.77 354.896 407.77 354.896Z" fill="#8B0000"/>
<path d="M465.9 354.9C465.665 361.083 463.953 365.685 465.47 368.552C471.327 373.452 476.196 379.019 474.337 379.402C465.47 381.234 461.817 376.011 456.8 374.5C450.643 372.645 457.383 364.91 454.971 354.988C453.629 349.47 464.537 350.702 464.537 350.702L465.9 354.9Z" fill="#8B0000"/>
<path d="M467.142 228.788C466.788 226.849 466.351 225.102 465.819 223.718C460.219 209.16 461.314 202.984 463.407 194.164C463.573 193.467 463.64 192.857 463.619 192.321C464.091 190.75 464.532 189.156 464.919 187.551L463.019 170.394L449.314 154.119C439.043 169.169 445.975 187.894 444.433 198.219C442.893 208.544 425.684 221.709 425.684 221.709L426.244 225.372C427.012 230.396 431.67 233.887 436.705 233.189C443.798 232.204 453.103 230.226 457.244 226.385C461.249 222.666 464.798 225.543 467.142 228.788" fill="#E096BE"/>
<path d="M429.709 221.117C429.709 221.117 422.112 223.244 421.204 223.718C420.295 224.194 419.793 226.705 419.793 226.705C419.793 226.705 415.444 230.482 417.11 231.819C418.776 233.156 421.751 236.54 425.685 234.965C428.099 233.999 429.971 225.128 431.553 225.057C433.137 224.987 429.709 221.117 429.709 221.117Z" fill="#F09959"/>
<path d="M451.225 152.134C459.355 152.365 466.728 167.009 469.297 179.714C471.866 192.421 474.57 210.483 474.57 210.483C474.57 210.483 461.095 221.117 447.78 224.225C436.164 226.938 430.235 227.997 430.235 227.997L427.879 221.366L455.67 205.044C455.67 205.044 445.451 185.794 444.434 171.269C443.419 156.744 445.045 151.959 451.225 152.134" fill="#F2A2C8"/>
<path d="M375.589 157.661L355.321 161.728L352.74 148.857L373.008 144.788L375.589 157.661" fill="#F5DC95"/>
<path d="M375.312 162.984C375.59 157.661 372.953 150.4 371.437 150.411C369.92 150.421 371.903 155.169 371.087 158.319C370.645 160.025 375.312 162.984 375.312 162.984" fill="#F09959"/>
<path d="M416.019 115.735C416.47 130.319 433.503 129.201 438.17 128.302C442.837 127.402 432.488 159.068 441.378 160.895C447.905 162.238 446.435 152.026 453.687 152.709C456.895 153.01 460.119 157.969 460.119 157.969C460.119 157.969 459.637 154.916 457.187 152.709C454.737 150.502 448.313 136.969 446.624 127.285C444.937 117.602 433.503 111.339 430.12 111.146C426.737 110.952 418.453 114.802 418.453 114.802L416.019 115.735" fill="#510000"/>
<path d="M441.226 164.195C440.995 164.195 440.762 164.171 440.524 164.12C437.679 163.515 436.3 160.524 436.182 154.71C436.081 149.726 436.905 143.33 437.777 136.559C438.13 133.824 438.494 130.994 438.795 128.254C438.82 128.021 439.028 127.851 439.264 127.878C439.499 127.902 439.668 128.114 439.642 128.348C439.341 131.094 438.975 133.929 438.624 136.668C436.935 149.77 435.341 162.144 440.701 163.287C440.867 163.322 441.033 163.34 441.2 163.34C444.278 163.34 447.05 157.341 448.665 151.496C448.728 151.27 448.962 151.137 449.19 151.2C449.417 151.263 449.55 151.497 449.487 151.723C448.42 155.58 445.552 164.195 441.226 164.195" fill="#510000"/>
<path d="M440.087 167.585C439.118 167.585 438.273 167.209 437.567 166.465C431.761 160.326 437.503 129.53 437.749 128.223C437.793 127.99 438.017 127.839 438.248 127.883C438.479 127.927 438.631 128.149 438.588 128.38C438.528 128.697 432.678 160.055 438.187 165.879C438.827 166.556 439.587 166.826 440.506 166.705C443.521 166.306 445.261 162.215 446.797 158.606C448.286 155.104 449.688 151.797 452.184 151.884C452.42 151.893 452.604 152.091 452.595 152.325C452.588 152.56 452.39 152.751 452.154 152.737C452.133 152.735 452.114 152.735 452.093 152.735C450.222 152.735 448.939 155.75 447.581 158.939C445.957 162.759 444.114 167.088 440.616 167.55C440.437 167.573 440.261 167.585 440.087 167.585" fill="#510000"/>
<path d="M438.8 131.104C437.6 132.651 435.718 133.2 434.598 132.33C433.478 131.462 433.545 129.502 434.745 127.955C435.944 126.408 437.826 125.859 438.946 126.729C440.066 127.597 440.001 129.557 438.8 131.104" fill="#F09959"/>
<path d="M306.454 185.105C310.612 193.421 307.17 202.997 298.991 206.379C290.758 209.785 281.756 207.851 277.598 199.535C273.44 191.221 276.527 181.249 284.497 177.265C292.465 173.28 302.295 176.79 306.454 185.105Z" fill="#510000"/>
<path d="M284.037 207.379C283.12 207.379 281.31 207.055 279.011 205.013C277.122 203.34 275.768 200.773 275.196 197.785C274.471 194.014 274.944 189.681 276.596 184.902C276.673 184.679 276.914 184.562 277.138 184.639C277.36 184.716 277.478 184.958 277.401 185.18C275.798 189.816 275.337 194.002 276.032 197.624C276.571 200.428 277.829 202.825 279.576 204.376C282.493 206.964 284.448 206.493 284.469 206.488C284.695 206.429 284.929 206.562 284.99 206.787C285.052 207.013 284.922 207.246 284.696 207.309C284.668 207.318 284.437 207.379 284.037 207.379" fill="#510000"/>
<path d="M296.754 217.464C301.487 218.525 307.462 231.676 310.388 240.102C313.338 248.6 318.342 259.142 321.618 262.416C324.892 265.692 346.417 273.286 346.417 273.286C346.417 273.286 293.236 273.389 294.325 273.284C295.415 273.179 296.754 217.464 296.754 217.464" fill="#FFA8A8"/>
<path d="M324.987 269.061C322.076 268.645 311.573 269.998 316.044 268.125C320.515 266.254 319.892 263.862 319.892 263.862C319.892 263.862 313.549 269.165 312.406 264.527C311.419 260.53 311.041 246.413 307.298 232.262C304.205 225.247 300.158 218.227 296.754 217.464C296.754 217.464 296.635 222.447 296.437 229.433C297.743 244.89 299.96 267.602 300.522 273.328C307.571 273.338 319.367 273.328 329.237 273.314L335.802 273.001C335.802 273.001 327.899 269.478 324.987 269.061" fill="#F09393"/>
<path d="M279.353 214.55C279.353 214.55 264.298 222.96 260.789 224.751C257.281 226.539 270.621 279.048 273.589 281.298C276.555 283.549 302.677 281.685 305.65 278.85C308.625 276.015 303.368 267.314 305.943 249.893C308.515 232.47 298.092 217.43 296.754 217.464C295.415 217.497 286.675 214.55 286.675 214.55H279.353" fill="#FFA8A8"/>
<path d="M273.589 281.299C276.556 283.549 295.247 283.598 303.205 281.124C304.102 280.844 308.18 279.22 308.274 277.692C307.315 277.512 303.502 277.97 301.955 277.613C296.574 276.378 293.609 269.712 293.609 269.712C293.609 269.712 290.647 268.644 284.018 265.837C277.389 263.03 280.119 254.529 279.963 250.786C279.805 247.043 273.411 234.798 261.401 225.518L260.3 226.011C259.442 234.544 270.844 279.216 273.589 281.299" fill="#F09393"/>
<path d="M377.019 240.102H340.77L324.259 275.235H364.19L379.135 243.432C379.863 241.882 378.733 240.102 377.019 240.102Z" fill="#E38878"/>
<path d="M326.42 275.734H304.606C303.253 275.734 302.156 274.637 302.156 273.284C302.156 271.931 303.253 270.834 304.606 270.834H324.857L338.547 241.369C339.118 240.141 340.575 239.609 341.802 240.179C343.029 240.75 343.561 242.206 342.99 243.432L328.64 274.316C328.24 275.181 327.373 275.734 326.42 275.734" fill="#8B0000"/>
<path d="M288.592 268.23C298.056 269.997 300.381 272.169 305.54 273C311.387 273.943 310.692 275.235 306.349 275.235C302.007 275.235 291.092 275.405 287.347 274.572C283.601 273.74 288.592 268.23 288.592 268.23" fill="#F09959"/>
<path d="M259.606 225.736C252.354 248.923 242.073 275.234 243.711 275.234C245.349 275.234 286.992 276.918 288.63 275.516C290.268 274.114 289.799 268.733 289.567 268.031C289.332 267.33 265.891 263.17 265.891 263.17C265.891 263.17 268.978 257.153 270.148 245.397C271.317 233.64 260.982 221.338 259.606 225.736Z" fill="#FFA8A8"/>
<path d="M284.868 194.4L279.026 215.749C279.026 215.749 288.896 231.157 291.611 229.789C294.325 228.419 290.093 217.264 290.093 215.749C290.093 214.233 294.325 198.592 294.325 198.592L284.868 194.4" fill="#FFB373"/>
<path d="M290.296 216.837C290.17 216.331 290.093 215.951 290.093 215.748C290.093 214.233 294.325 198.591 294.325 198.591L284.867 194.4L282.934 201.465C284.622 208.762 287.669 213.622 290.296 216.837Z" fill="#F7A964"/>
<path d="M306.727 194.047C307.84 200.237 307.107 208.46 301.61 210.549C296.112 212.641 289.491 208.64 286.819 201.617C284.149 194.593 286.439 187.205 291.938 185.113C297.435 183.024 305.397 186.652 306.727 194.047" fill="#FFB373"/>
<path d="M288.123 197.531C288.893 199.694 288.224 201.91 286.628 202.478C285.032 203.045 283.113 201.752 282.343 199.587C281.573 197.424 282.241 195.209 283.837 194.64C285.433 194.073 287.353 195.366 288.123 197.531Z" fill="#F7A964"/>
<path d="M306.792 186.27C304.919 200.796 287.27 198.924 287.27 198.924C287.27 198.924 283.63 194.139 281.992 196.649C280.354 199.158 284.264 181.921 294.391 181.379C297.72 181.2 306.792 186.27 306.792 186.27Z" fill="#510000"/>
<path d="M288.853 180.127C288.853 185.082 284.572 189.096 279.292 189.096C274.014 189.096 269.734 185.082 269.734 180.127C269.734 175.175 274.014 171.158 279.292 171.158C284.572 171.158 288.853 175.175 288.853 180.127Z" fill="#510000"/>
<path d="M260.252 380.79H262.438L276.554 315.39H271.745L260.252 380.79Z" fill="#8B0000"/>
<path d="M328.214 380.79H326.028L309.601 313.079H314.41L328.214 380.79" fill="#8B0000"/>
<path d="M285.194 317.84C276.437 317.84 270.889 316.269 267.349 312.82C262.962 308.544 262.053 301.922 262.039 293.295C262.029 286.505 261.868 282.083 261.5 278.507C261.362 277.162 262.34 275.958 263.686 275.819C265.032 275.681 266.236 276.659 266.374 278.005C266.759 281.754 266.929 286.323 266.939 293.286C266.953 302.031 268.063 306.674 270.768 309.309C273.546 312.015 278.565 313.129 287.04 312.918C295.225 312.715 300.86 311.57 305.385 310.65C311.34 309.44 315.642 308.565 320.743 311.003C321.965 311.588 322.481 313.049 321.898 314.27C321.314 315.492 319.851 316.008 318.631 315.424C315.01 313.695 311.937 314.319 306.362 315.452C301.645 316.411 295.778 317.602 287.161 317.816C286.489 317.832 285.832 317.84 285.194 317.84" fill="#8B0000"/>
<path d="M265.3 275.516L278.704 276.075L275.136 313.08C275.136 313.08 265.144 306.703 265.3 299.84C265.457 292.978 265.3 275.516 265.3 275.516Z" fill="#EC9090"/>
<path d="M331.467 278.964C342.8 277.244 346.651 277.786 353.588 290.696C360.524 303.604 369.757 326.846 375.066 329.849C383.062 334.369 385.711 345.452 388.994 344.955C392.277 344.456 394.391 345.907 390.818 348.877C387.246 351.845 381.476 354.373 379.504 353.847C377.532 353.32 376.001 344.796 370.849 342.029C365.697 339.26 367.245 336.987 367.583 334.539C367.921 332.091 352.544 320.821 340.95 306.803C333.868 298.237 330.219 292.584 329.678 287.46C329.137 282.336 331.467 278.964 331.467 278.964" fill="#FFB373"/>
<path d="M359.563 325.773C356.931 319.095 354.29 308.074 351.809 297.969C348.279 283.598 344.579 280.187 342.236 278.654C339.403 277.944 336.046 278.269 331.467 278.964C331.467 278.964 329.137 282.336 329.678 287.46C330.219 292.584 333.868 298.237 340.95 306.803C347.054 314.183 354.206 320.801 359.563 325.773" fill="#F7A964"/>
<path d="M334.918 290.325C334.918 290.325 331.903 313.079 329.094 315.392C327.087 317.046 325.664 317.156 324.259 310.37C322.855 303.583 326.443 278.256 326.443 278.256L334.918 290.325Z" fill="black"/>
<path d="M332.515 302.638L304.605 307.328L320.363 284.734L332.354 282.293L339.544 283.946L332.515 302.638" fill="#F09959"/>
<path d="M367.583 334.539C366.678 338.186 366.787 340.881 368.36 342.232C369.931 343.581 375.871 353.619 375.871 353.619L377.723 353.337L373.437 344.153L367.583 334.539Z" fill="#D54A41"/>
<path d="M379.504 353.847C381.476 354.373 387.246 351.845 390.818 348.877C394.391 345.907 392.277 344.456 388.994 344.955C388.811 344.983 388.627 344.971 388.445 344.927C386.805 348.59 381.412 351.337 379.672 347.468C377.946 343.634 370.558 336.002 367.581 334.369C367.588 334.429 367.59 334.486 367.583 334.539C367.245 336.987 365.696 339.26 370.848 342.029C376 344.796 377.532 353.32 379.504 353.847" fill="#D54A41"/>
<path d="M274.503 279.876C264.601 297.645 271.365 308.938 283.4 310.09C295.434 311.239 314.432 309.043 325.506 299.84C336.582 290.638 345.672 280.907 344.403 279.456C343.132 278.003 274.503 279.876 274.503 279.876Z" fill="#F7A964"/>
<path d="M330.199 292.838C332.226 286.755 334.564 282.088 339.089 282.002C343.847 281.915 346.775 284.389 346.978 292.173C347.22 301.443 347.547 332.141 347.118 345.791C346.794 356.125 349.806 359.433 349.551 370.204C349.36 378.317 358.008 374.218 354.668 378.427C352.37 381.32 345.531 380.373 341.331 379.839C337.588 379.363 343.268 368.146 338.088 365.146C333.643 362.574 333.556 358.395 336.363 355.233C339.17 352.069 336.674 342.711 334.803 336.159C332.931 329.609 330.028 322.522 328.122 307.032C327.578 302.615 328.96 296.553 330.199 292.838" fill="#FFB373"/>
<path d="M352.164 375.41C350.731 375.848 348.964 376.331 347.425 376.382C344.305 376.485 343.369 373.053 343.162 368.393C342.98 364.322 340.025 357.912 336.992 355.313C336.936 355.387 336.88 355.46 336.819 355.529C334.012 358.691 334.099 362.87 338.544 365.442C343.724 368.442 338.044 379.659 341.787 380.135C345.987 380.669 352.826 381.616 355.124 378.723C357.296 375.988 354.6 375.771 352.164 375.41" fill="#D54A41"/>
<path d="M337.52 354.369C337.52 354.369 332.97 359.12 333.387 361.096C333.803 363.071 335.205 368.062 335.439 371.911C335.674 375.757 335.882 380.174 335.882 380.174C335.882 380.174 337.52 380.174 337.65 379.709C337.781 379.245 338.691 364.071 338.691 364.071L337.52 354.369" fill="#D54A41"/>
<path d="M269.734 278.255C269.734 278.255 263.861 303.181 271.281 310.09C278.701 316.999 309.515 310.784 316.772 310.37C321.686 310.09 326.443 316.087 326.443 316.087C326.443 316.087 323.011 302.18 325.351 290.95C327.69 279.72 331.467 278.964 331.467 278.964L326.443 278.255H269.734Z" fill="black"/>
<path d="M268.404 271.738C270.915 277.067 265.7 286.27 267.527 288.921C269.356 291.573 279.819 289.292 286.675 283.775C293.532 278.255 306.508 277.042 306.508 277.042L268.404 271.738" fill="#FFA8A8"/>
<path d="M279.026 317.154C299.771 317.933 321.607 317.566 321.607 314.473C321.607 311.383 320.671 309.199 304.606 310.447C288.541 311.694 277.623 313.411 272.787 312.319C267.952 311.227 279.026 317.154 279.026 317.154Z" fill="#8B0000"/>
<path d="M500.251 280.882H207.962C206.715 280.882 205.703 279.87 205.703 278.623V277.494C205.703 276.246 206.715 275.235 207.962 275.235H500.251C501.499 275.235 502.51 276.246 502.51 277.494V278.623C502.51 279.87 501.499 280.882 500.251 280.882Z" fill="#8B0000"/>
<path d="M539.089 199.547C541.098 206.633 536.189 213.934 530.781 215.469C525.375 217.002 521.517 212.187 519.506 205.102C517.497 198.016 520.251 191.03 525.657 189.495C531.065 187.962 537.078 192.461 539.089 199.547Z" fill="#F09959"/>
<path d="M508.771 334.044C508.771 334.044 522.63 355.569 524.5 356.503C526.373 357.439 531.052 357.674 529.297 361.183C527.542 364.691 526.84 378.495 525.202 379.197C523.566 379.899 509.527 381.537 511.633 379.197C513.74 376.857 515.035 378.028 516.097 373.816C517.159 369.605 518.652 361.65 516.664 360.014C514.674 358.376 502.51 343.635 502.51 343.635L508.771 334.044" fill="#F09959"/>
<path d="M439.024 346.087C439.024 346.087 422.178 373.851 419.058 376.346C415.94 378.842 405.645 382.587 414.067 383.21C422.49 383.834 426.546 380.403 431.849 378.842C437.151 377.282 443.703 376.346 441.208 372.291C438.712 368.237 439.748 359.384 445.128 353.768C450.509 348.152 439.024 346.087 439.024 346.087" fill="#F09959"/>
<path d="M524.989 281.707C524.989 281.707 483.288 280.616 466.754 294.184C457.084 308.847 433.688 352.107 431.87 356.874C433.117 358.122 440.137 360.374 443.257 360.061C452.46 349.088 464.623 339.602 469.461 330.995C475.422 320.388 477.259 315.086 486.93 314.15C496.6 313.213 518.437 310.095 524.989 310.095C531.539 310.095 524.989 281.707 524.989 281.707Z" fill="#2C2B2B"/>
<path d="M561.354 383.285H559.168L543.493 317.886H548.302L561.354 383.285Z" fill="#8B0000"/>
<path d="M495.873 383.285H498.06L516.047 315.574H511.238L495.873 383.285Z" fill="#8B0000"/>
<path d="M548.745 278.85L524.501 283.035C524.501 283.035 492.284 283.33 477.558 286.074C464.158 288.57 462.184 303.793 477.558 324.757C486.29 336.665 493.673 346.164 508.772 356.875C512.613 354.055 514.082 352.988 515.144 346.203C514.05 344.705 511.222 335.327 510.344 333.491C501.993 316.033 490.845 309.684 490.691 307.967C492.562 304.926 540.268 323.82 549.753 312.706C558.81 302.094 548.745 278.85 548.745 278.85" fill="#2C2B2B"/>
<path d="M549.753 223.963C543.368 223.065 536.865 224.28 530.781 228.683C525.467 234.101 519.454 243.035 519.823 257.771C520.29 276.488 516.927 277.69 520.435 282.837C535.073 288.881 560.105 314.849 554.211 287.009C549.941 266.85 563.571 251.825 552.576 229.463C551.68 227.643 550.562 225.878 549.753 223.963" fill="#F37168"/>
<path d="M519.818 264.815C519.534 274.573 518.155 277.447 519.209 280.506C525.176 281.115 536.091 283.504 538.819 287.322C541.938 291.688 545.058 292.313 543.602 289.09C542.146 285.866 538.3 281.29 544.227 265.589C550.152 249.888 552.961 239.281 547.137 228.363L519.818 264.815Z" fill="#D54A41"/>
<path d="M549.754 223.963C545.821 214.655 544.855 204.197 544.855 204.197L534.562 207.238C534.562 207.238 540.41 220.339 534.796 225.018C533.603 226.012 532.217 227.22 530.782 228.683C536.865 224.28 543.368 223.065 549.754 223.963" fill="#F09959"/>
<path d="M545.165 206.675C544.556 206.132 543.793 205.455 542.992 204.746L534.595 207.228L534.578 207.273C534.781 207.737 536.919 212.728 537.201 217.528C539.703 216.009 542.442 213.535 545.575 209.211C545.405 208.252 545.27 207.396 545.165 206.675Z" fill="#E38540"/>
<path d="M542.516 226.889C531.914 230.598 533.09 241.768 523.332 258.241C518.282 266.765 513.592 266.637 513.592 266.637C513.592 266.637 501.749 266.733 487.424 264.982C478.453 263.884 477.885 266.555 484.123 268.786C496.706 273.284 509.763 278.126 520.291 276.957C530.819 275.786 548.824 248.925 549.753 241.932C551.038 232.262 547.855 225.022 542.516 226.889" fill="#F09959"/>
<path d="M537.059 320.337C536.401 320.337 535.727 320.329 535.036 320.311C526.419 320.098 520.551 318.906 515.835 317.947C510.259 316.815 507.186 316.19 503.565 317.921C502.346 318.503 500.883 317.987 500.3 316.766C499.715 315.544 500.232 314.083 501.453 313.498C506.554 311.061 510.858 311.936 516.811 313.145C521.338 314.065 526.972 315.21 535.156 315.413C544.374 315.64 550.012 314.258 552.893 311.064C555.465 308.212 556.223 303.457 555.276 296.098C554.956 293.606 554.636 291.534 554.354 289.707C553.559 284.578 553.036 281.188 553.684 275.965C554.286 271.094 555.903 264.598 559.644 251.993C560.029 250.696 561.394 249.958 562.691 250.343C563.988 250.728 564.728 252.091 564.343 253.388C557.341 276.966 557.696 279.269 559.196 288.958C559.483 290.815 559.809 292.92 560.136 295.473C561.279 304.355 560.132 310.352 556.531 314.345C552.819 318.461 546.768 320.337 537.059 320.337Z" fill="#8B0000"/>
<path d="M440.168 369.488C428.991 374.953 422.976 378.087 419.392 377.788C418.547 377.718 417.845 377.631 417.257 377.54C413.27 379.895 406.907 382.679 414.067 383.21C422.489 383.834 426.546 380.403 431.848 378.842C437.152 377.282 443.703 376.346 441.207 372.291C440.729 371.514 440.381 370.561 440.168 369.488" fill="#D54A41"/>
<path d="M525.72 359.76C525.446 368.609 524.229 377.379 518.816 379.036C517.383 379.475 516.074 379.538 514.917 379.384C514.067 380.436 513.027 380.448 511.633 381.997C509.527 384.337 523.566 382.699 525.202 381.997C526.84 381.295 527.542 367.491 529.297 363.982C530.739 361.1 527.838 360.426 525.72 359.76Z" fill="#D54A41"/>
<path d="M482.665 275.734H447.156C446.202 275.734 445.336 275.181 444.935 274.316L430.585 243.432C430.014 242.206 430.546 240.75 431.773 240.179C433.002 239.609 434.458 240.141 435.028 241.369L448.718 270.834H482.665C484.019 270.834 485.115 271.931 485.115 273.284C485.115 274.637 484.019 275.734 482.665 275.734" fill="#E38878"/>
<path d="M490.094 265.29C482.919 265.187 475.803 260.91 472.268 261.534C468.733 262.157 457.19 270.164 458.646 270.477C460.102 270.788 469.253 266.046 469.565 265.972C469.876 265.901 471.852 269.259 476.74 270.491C481.628 271.725 476.775 266.828 491.925 271.404C501.775 274.379 490.094 265.29 490.094 265.29" fill="#F09959"/>
<path d="M548.697 215.469L549.753 223.963C549.753 223.963 540.467 224.515 535.847 227.115C531.227 229.714 524.409 237.225 524.409 237.225L529.979 227.635L530.781 221.499L548.697 215.469Z" fill="#F2E5DE"/>
<path d="M544.746 225.867C537.849 224.574 534.659 230.753 530.188 240.84C525.716 250.927 518.083 263.177 516.566 264.757C515.048 266.336 490.986 264.757 490.986 264.757C490.986 264.757 490.258 271.724 490.986 272.555C491.712 273.386 495.872 273.283 495.872 273.283C495.872 273.283 497.536 274.611 499.095 275.663C500.656 276.715 513.862 278.691 519.997 278.379C526.131 278.066 531.747 277.546 532.578 276.61C533.411 275.675 550.152 249.887 551.193 240.632C552.233 231.378 548.265 226.527 544.746 225.867" fill="#F2E5DE"/>
<path d="M524.41 183.44C511.367 184.065 513.413 203.686 513.413 203.686C513.413 203.686 516.801 204.733 523.897 203.562C523.351 201.457 523.585 196.075 523.585 196.075C523.585 196.075 524.409 200.443 525.456 203.095C526.957 203.782 528.653 203.172 531.539 202.475C533.021 208.709 537.209 211.344 540.075 212.245C543.243 213.241 546.596 214.428 550.339 212.557C554.082 210.684 552.024 191.552 550.036 187.705C547.053 181.928 542.093 176.761 533.515 179.489C529.213 180.859 524.41 183.44 524.41 183.44" fill="#510000"/>
<path d="M547.09 206.743L552.423 214.532C552.423 214.532 546.513 229.299 563.7 235.987C577.161 241.227 575.575 250.458 569.492 259.742C563.411 269.026 573.132 277.133 573.132 277.133C573.132 277.133 574.614 266.849 587.694 264.908C605.528 262.262 610.577 238.318 597.258 226.347C586.235 216.44 582.882 224.644 575.419 215.754C567.959 206.864 553.875 212.868 553.875 212.868L548.713 205.34L547.09 206.743" fill="#510000"/>
<path d="M603.392 250.418C603.324 250.418 603.254 250.4 603.188 250.365C602.981 250.252 602.906 249.993 603.02 249.786C607.514 241.572 603.846 231.619 602.001 228.924C601.807 228.639 601.621 228.35 601.425 228.046C599.612 225.214 597.357 221.692 585.329 219.527C582.446 219.009 580.11 217.292 577.636 215.476C572.505 211.71 566.688 207.441 554.053 213.255C553.839 213.355 553.585 213.26 553.487 213.047C553.389 212.833 553.482 212.579 553.697 212.481C566.789 206.456 572.82 210.884 578.14 214.79C580.532 216.545 582.793 218.204 585.479 218.689C597.873 220.92 600.241 224.616 602.145 227.586C602.335 227.885 602.517 228.168 602.705 228.441C603.816 230.067 605.19 233.432 605.751 237.288C606.24 240.63 606.29 245.584 603.767 250.196C603.69 250.337 603.543 250.418 603.392 250.418" fill="#510000"/>
<path d="M544.243 214.676C543.392 214.676 542.472 214.603 541.481 214.454C536.935 213.773 530.836 211.189 530.356 196.662C530.348 196.425 530.533 196.229 530.768 196.221C531.011 196.21 531.2 196.397 531.209 196.634C531.406 202.647 532.602 207.097 534.758 209.862C536.399 211.966 538.576 213.157 541.607 213.611C545.851 214.248 548.667 213.46 549.974 211.271C550.095 211.07 550.357 211.003 550.559 211.124C550.762 211.245 550.826 211.507 550.706 211.708C549.526 213.682 547.358 214.676 544.243 214.676" fill="#510000"/>
<path d="M137.193 224.984C122.054 233.641 100.999 269.623 105.444 275.496C109.889 281.367 133.752 265.927 133.752 265.927L137.193 224.984" fill="#D54A41"/>
<path d="M165.475 183.257C159.694 183.099 161.839 178.803 155.192 180.518C151.697 181.421 154.277 182.858 149.737 182.391C145.196 181.922 142.962 181.454 142.39 184.417C141.818 187.382 141.541 188.318 139.357 188.785C137.174 189.252 136.188 193.153 139.357 195.804C142.527 198.455 140.986 199.547 140.284 201.731C139.583 203.915 141.975 204.071 143.274 206.098C144.574 208.126 142.078 208.509 143.95 210.268C145.821 212.025 148.447 211.869 148.447 211.869L156.326 196.761L165.475 183.257" fill="#510000"/>
<path d="M283.245 364.594C283.245 364.594 291.668 364.828 298.218 362.254C304.768 359.68 309.213 355.704 308.044 360.381C306.875 365.061 301.494 373.088 296.815 373.87C292.135 374.652 290.497 379.801 287.925 379.801C285.35 379.801 281.607 373.87 275.057 370.907C269.086 368.207 283.245 364.594 283.245 364.594" fill="#8B0000"/>
<path d="M216.871 363.803C216.871 363.803 220.415 368.688 226.579 372.086C232.945 375.595 240.292 377.284 235.737 378.871C231.183 380.459 224.522 381.692 218.028 379.806C213.471 378.483 208.13 378.206 206.72 376.054C205.309 373.901 208.38 368.495 207.103 360.417C206.079 353.944 216.871 363.803 216.871 363.803Z" fill="#8B0000"/>
<path d="M177.433 285.288C177.433 285.288 226.222 303.557 230.154 308.665C234.084 313.771 285.368 360.293 285.368 363.723C285.368 367.155 276.634 373.395 276.634 373.395C276.634 373.395 232.649 346.41 221.731 332.685C210.811 318.958 184.164 312.341 169.998 311.071C155.831 309.799 177.433 285.288 177.433 285.288" fill="black"/>
<path d="M179.304 285.289C179.304 285.289 212.684 284.041 219.859 285.289C227.034 286.537 242.771 286.522 232.478 315.574C224.409 338.345 221.747 367.175 221.747 367.175L205.703 371.116C205.703 371.116 206.34 319.275 213.994 305.473C208.421 306.392 198.188 308.184 184.006 312.24C157.699 319.764 143.274 315.996 143.274 315.996L139.357 302.269L179.304 285.289Z" fill="black"/>
<path d="M151.431 199.108L143.275 223.205L153.579 229.99L159.418 209.169L151.431 199.108" fill="#A86B48"/>
<path d="M154.5 226.703L159.418 209.168L151.431 199.108L148.447 207.922C149.477 215.883 151.964 222.468 154.5 226.703" fill="#7A4E34"/>
<path d="M172.234 203.187C172.499 210.516 168.899 216.86 163.177 217.423C157.455 217.988 152.233 212.528 151.513 205.229C150.793 197.932 154.848 191.558 160.57 190.993C166.293 190.43 171.817 191.621 172.234 203.187Z" fill="#A86B48"/>
<path d="M139.358 222.504C114.323 239.41 129.894 266.731 135.391 286.697C140.073 303.702 139.921 313.979 140.622 313.979C141.324 313.979 158.542 311.405 168.368 302.515C178.195 293.625 184.838 285.014 184.838 285.014C184.838 285.014 172.248 282.772 168.134 266.486C166.045 258.219 166.995 253.731 162.233 240.628C157.472 227.528 139.358 222.504 139.358 222.504" fill="#F37168"/>
<path d="M139.357 222.503L142.039 215.942C142.039 215.942 150.54 221.558 153.932 224.209C157.325 226.861 159.417 227.485 159.417 227.485C159.417 227.485 160.643 236.89 159.847 236.036C149.814 225.282 139.357 222.503 139.357 222.503" fill="#D54A41"/>
<path d="M128.262 383.285H130.448L146.123 317.886H141.314L128.262 383.285Z" fill="#8B0000"/>
<path d="M193.742 383.285H191.556L173.57 315.574H178.379L193.742 383.285Z" fill="#8B0000"/>
<path d="M152.613 320.335C143.856 320.335 138.309 318.764 134.769 315.315C130.38 311.039 129.472 304.417 129.459 295.79C129.431 277.651 128.428 273.901 123.322 262.825C122.755 261.597 123.292 260.141 124.521 259.574C125.75 259.009 127.205 259.544 127.772 260.774C133.169 272.482 134.33 276.785 134.359 295.783C134.372 304.526 135.482 309.169 138.188 311.804C140.964 314.51 145.982 315.624 154.459 315.413C162.644 315.21 168.278 314.065 172.805 313.145C178.758 311.935 183.061 311.06 188.163 313.498C189.384 314.083 189.9 315.544 189.316 316.765C188.733 317.987 187.27 318.503 186.05 317.92C182.43 316.19 179.357 316.814 173.781 317.947C169.065 318.906 163.197 320.097 154.58 320.311C153.907 320.328 153.251 320.335 152.613 320.335" fill="#8B0000"/>
<path d="M260.786 275.45H225.275C223.922 275.45 222.825 274.354 222.825 273C222.825 271.647 223.922 270.55 225.275 270.55H259.222L272.914 241.085C273.484 239.858 274.94 239.325 276.167 239.895C277.395 240.466 277.927 241.921 277.357 243.15L263.007 274.032C262.606 274.897 261.738 275.45 260.786 275.45" fill="#8B0000"/>
<path d="M140.285 247.119C140.285 247.119 146.524 266.149 154.245 274.025C161.965 281.902 177.504 284.55 182.369 284.24C178.491 282.681 171.104 278.243 168.134 266.486C166.045 258.219 166.995 253.731 162.234 240.629C158.699 230.904 147.808 225.629 142.429 223.557C149.143 228.38 157.537 236.32 160.116 242.363C162.979 249.07 140.285 247.119 140.285 247.119" fill="#D54A41"/>
<path d="M226.399 263.819C226.399 263.819 237.16 258.907 238.33 259.374C239.499 259.843 251.431 267.048 251.431 268.241C251.431 269.435 240.903 263.793 240.903 263.793C240.903 263.793 242.074 266.911 241.372 268.408C240.67 269.902 232.576 269.902 225.275 269.435C217.976 268.968 226.399 263.819 226.399 263.819" fill="#A86B48"/>
<path d="M140.628 232.418C130.708 252.751 164.738 273.363 184.927 275.195C205.117 277.029 229.102 270.421 229.102 270.421L226.398 263.82C226.398 263.82 185.951 258.542 184.927 257.802C183.903 257.063 144.262 224.972 140.628 232.418" fill="#F37168"/>
<path d="M153.527 199.794C154.447 202.213 153.773 204.712 152.021 205.379C150.27 206.045 148.105 204.624 147.186 202.206C146.266 199.787 146.94 197.288 148.691 196.622C150.443 195.957 152.608 197.376 153.527 199.794Z" fill="#A86B48"/>
<path d="M172.248 184.314C174.989 183.17 178.076 181.945 177.12 186.601C176.705 188.63 177.12 188.057 177.848 189.93C178.576 191.801 176.014 193.271 175.183 194.31C174.35 195.35 176.394 196.48 174.73 197.728C173.066 198.976 170.872 197.266 169.322 197.728C164.695 199.109 165.267 195.469 162.667 194.713C160.068 193.955 158.793 194.072 158.3 195.736C157.806 197.401 160.12 202.875 158.144 202.355C156.168 201.835 155.723 206.254 155.192 208.751C154.66 211.246 153.305 207.027 153.392 204.173C153.527 199.795 152.44 197.955 150.827 196.73C149.214 195.505 148.528 184.367 156.327 183.95C164.125 183.534 164.175 182.781 167.503 182.078C170.83 181.374 170.999 184.836 172.248 184.314" fill="#510000"/>
<path d="M609.486 311.517C614.457 316.057 612.296 320.598 608.619 329.03C604.944 337.461 604.295 368.595 604.295 368.595L607.323 368.163C607.323 368.163 606.89 336.164 610.998 327.516C615.107 318.867 616.836 314.545 620.511 317.355C624.188 320.166 609.486 311.517 609.486 311.517Z" fill="#74B570"/>
<path d="M606.754 305.639C607.358 302.948 610.943 300.038 615.738 297.567C615.026 301.536 612.741 308.025 615.107 309.356C618.297 311.15 615.416 302.09 616.648 297.112C621.151 294.912 626.569 293.115 631.558 292.221C631.549 292.24 631.544 292.257 631.537 292.277C628.727 299.411 625.052 302.222 626.565 303.301C627.703 304.115 631.411 295.874 636.309 291.65C639.984 291.454 643.094 291.951 644.933 293.409C647.777 295.659 649.686 297.656 646.827 304.511C645.192 305.678 643.077 306.514 640.618 306.761C634.132 307.41 631.105 307.626 635.644 309.789C637.869 310.847 641.594 309.729 644.617 309.047C643.637 310.853 642.431 312.897 640.968 315.226C640.039 316.703 639.015 317.984 637.928 319.093C635.839 319.494 634.015 319.498 633.051 319.085C630.023 317.788 622.241 313.679 620.295 315.41C618.391 317.102 634.71 318.175 633.579 322.476C625.668 327.033 616.617 324.865 615.017 320.681C612.868 315.061 604.936 313.738 606.754 305.639" fill="#9CD499"/>
<path d="M623.106 336.381C614.458 329.894 605.594 335.947 601.053 342.867C596.513 349.785 599.756 365.351 599.756 365.351C599.756 365.351 601.485 365.351 601.485 364.704C601.485 364.054 596.728 346.327 607.972 338.326C615.006 333.322 620.079 335.732 620.728 338.11C621.376 340.489 617.918 344.813 617.918 344.813L623.106 336.381" fill="#74B570"/>
<path d="M603.215 323.048C611.864 323.048 614.674 336.453 612.296 344.236C609.918 352.02 606.673 366.504 606.673 366.504L604.512 364.343C604.512 364.343 612.728 344.02 610.782 334.939C608.836 325.859 604.08 324.345 603.215 324.345C602.351 324.345 603.215 323.048 603.215 323.048Z" fill="#9CD499"/>
<path d="M610.47 344.297C611.077 343.49 611.829 342.825 612.745 342.382C612.626 343.028 612.475 343.647 612.297 344.235C611.212 347.783 609.95 352.72 608.895 357.044C608.8 356.491 608.651 355.637 608.424 354.321C608.37 354.009 608.328 353.672 608.298 353.315C609.145 350.434 609.946 347.294 610.47 344.297" fill="#74B570"/>
<path d="M612.834 344.361C629.265 337.442 620.607 327.948 635.094 334.218C636.114 334.659 637.357 335.774 638.603 337.309C637.311 337.674 635.75 337.939 634.012 337.678C629.688 337.029 631.202 340.488 638.337 341.353C639.681 341.516 640.773 341.741 641.679 342.058C645.08 348.587 646.611 357.176 639.418 360.162C638.001 360.751 636.249 361.087 634.298 361.213C632.079 359.449 634.84 349.24 631.417 350.649C628.132 352.003 632.448 359.4 631.856 361.264C628.614 361.206 625.023 360.676 621.593 359.826C620.235 359.064 619.197 358.044 618.878 356.704C617.797 352.163 624.932 349.352 625.149 345.46C625.346 341.883 622.532 353.331 615.079 355.017C608.338 351.869 605.153 347.595 612.834 344.361" fill="#9CD499"/>
<path d="M601.125 332.129C602.856 328.454 598.314 327.588 598.531 330.398C598.722 332.89 598.745 338.943 596.19 340.592C591.785 340.114 585.792 338.34 581.261 335.634C581.203 335.268 581.259 334.892 581.451 334.507C583.397 330.615 595.936 327.372 592.046 326.076C588.947 325.041 583.515 331.14 579.138 334.211C576.51 332.216 574.749 329.84 574.749 327.187C574.749 323.594 579.114 319.529 584.757 317.585C587.298 317.842 589.657 319.23 593.343 321.319C598.787 324.404 597.527 319.415 592.38 316.456C596.823 316.685 601.254 318.584 604.522 323.12C604.522 323.12 604.214 325.059 606.265 328.058C611.863 336.24 605.402 341.015 597.679 340.706C598.117 338.55 599.931 334.668 601.125 332.129" fill="#9CD499"/>
<path d="M622.585 336.014C626.813 339.281 631.509 343.102 637.275 345.695C643.041 348.291 641.888 356.747 641.888 356.747C641.888 356.747 642.752 349.444 637.947 346.945C633.143 344.448 629.972 341.467 626.32 340.891C622.669 340.314 620.65 339.738 620.65 339.738C620.65 339.738 621.803 337.432 621.131 336.567C620.459 335.703 622.585 336.014 622.585 336.014Z" fill="#74B570"/>
<path d="M643.426 297.649C627.956 301.781 616.616 311.679 614.502 314.081C612.388 316.482 612.388 317.156 612.388 317.156L614.023 320.231L614.791 319.846C614.791 319.846 613.541 317.252 616.809 313.889C622.444 308.088 629.3 303.51 634.01 301.492C638.719 299.474 643.426 297.649 643.426 297.649Z" fill="#74B570"/>
<path d="M600.72 383.285H606.631C610.835 383.285 614.242 379.877 614.242 375.674V362.094H593.109V375.674C593.109 379.877 596.517 383.285 600.72 383.285" fill="#8B0000"/>
<path d="M614.242 366.009H593.109V364.522H614.242V366.009Z" fill="white"/>
<path d="M614.242 368.109H593.109V367.235H614.242V368.109Z" fill="white"/>
<path d="M350.033 78.4981C350.033 62.4838 337.153 49.4761 321.186 49.2731C305.145 49.0666 291.835 61.9851 291.579 78.0239C291.455 85.8534 294.411 92.9899 299.313 98.3064C301.57 100.755 302.823 103.962 302.823 107.294V120.397C302.823 128.872 309.759 135.807 318.236 135.807H323.374C331.851 135.807 338.786 128.872 338.786 120.397V107.296C338.786 103.936 340.081 100.723 342.351 98.2469C347.121 93.0459 350.033 86.1123 350.033 78.4981" fill="#F5DC95"/>
<path d="M323.014 129.763H318.594C311.302 129.763 305.336 123.797 305.336 116.505V105.233C305.336 102.368 304.258 99.6067 302.314 97.4997C298.098 92.927 295.555 86.7862 295.662 80.0505C295.881 66.3602 307.154 55.3142 320.808 55.3142C320.916 55.3142 321.025 55.316 321.133 55.3177C334.869 55.4927 345.948 66.6822 345.948 80.46C345.948 87.0102 343.444 92.976 339.34 97.4507C337.387 99.5805 336.272 102.344 336.272 105.235V116.505C336.272 123.797 330.307 129.763 323.014 129.763" fill="#FAEECA"/>
<path d="M325.125 112.547H315.5C315.046 112.547 314.668 112.203 314.628 111.753C314.611 111.566 312.813 92.9858 304.506 87.7814C304.095 87.5259 303.972 86.9851 304.228 86.5756C304.485 86.1661 305.024 86.0419 305.434 86.2991C313.54 91.3741 315.843 107.031 316.285 110.797H324.199C324.167 109.506 324.241 107.01 324.986 103.782C325.982 99.4661 328.423 92.9561 334.4 86.4479C334.727 86.0926 335.28 86.0699 335.637 86.3954C335.992 86.7226 336.017 87.2774 335.69 87.6326C324.764 99.5256 325.98 111.455 325.993 111.574C326.021 111.821 325.942 112.07 325.776 112.255C325.611 112.442 325.373 112.547 325.125 112.547Z" fill="#F29494"/>
<path d="M307.558 79.0158C306.981 79.0158 306.482 79.1226 306.085 79.3588C305.225 79.8663 304.781 81.0895 304.763 82.9918C304.746 85.0095 305.19 86.3063 306.085 86.8488C308.244 88.1578 313.288 85.7253 318.126 83.172C314.215 81.086 310.11 79.0158 307.558 79.0158V79.0158ZM321.843 83.1773C326.647 85.7323 331.675 88.177 333.894 86.868C334.823 86.322 335.306 85.0095 335.332 82.9725C335.359 81.0475 334.942 79.8103 334.095 79.294C331.95 77.9885 326.74 80.5803 321.843 83.1773V83.1773ZM332.329 88.9785C329.08 88.9785 324.649 86.6703 319.983 84.1678C313.956 87.3773 308.328 90.256 305.178 88.3468C303.698 87.449 302.989 85.692 303.013 82.976C303.036 80.4175 303.769 78.6938 305.194 77.852C308.349 75.983 313.989 78.965 319.987 82.1833C326.101 78.9213 331.86 75.885 335.005 77.7995C336.417 78.6605 337.116 80.407 337.082 82.9953C337.049 85.6868 336.274 87.4963 334.783 88.3765C334.074 88.7948 333.248 88.9785 332.329 88.9785" fill="#F29494"/>
<path d="M323.899 139.965H318.299C316.325 139.965 314.712 138.351 314.712 136.377V135.852C314.712 133.88 316.325 132.265 318.299 132.265H323.899C325.872 132.265 327.487 133.88 327.487 135.852V136.377C327.487 138.351 325.872 139.965 323.899 139.965Z" fill="#F29494"/>
<path d="M301.974 110.973V120.241C301.974 129.119 309.237 136.381 318.114 136.381H323.494C332.372 136.381 339.634 129.119 339.634 120.241V110.973H301.974Z" fill="#F29494"/>
<path d="M339.475 113.89H302.607C301.452 113.89 300.507 112.945 300.507 111.79V111.557C300.507 110.402 301.452 109.457 302.607 109.457H339.475C340.63 109.457 341.575 110.402 341.575 111.557V111.79C341.575 112.945 340.63 113.89 339.475 113.89Z" fill="#FFC4B9"/>
<path d="M339.606 117.213L303.018 121.733C301.872 121.875 300.817 121.052 300.677 119.906L300.647 119.675C300.505 118.529 301.328 117.475 302.474 117.334L339.063 112.813C340.21 112.672 341.263 113.494 341.405 114.64L341.433 114.871C341.575 116.018 340.752 117.071 339.606 117.213" fill="#FFC4B9"/>
<path d="M339.606 123.617L303.018 128.137C301.872 128.279 300.817 127.456 300.677 126.31L300.647 126.079C300.505 124.933 301.328 123.879 302.474 123.737L339.063 119.217C340.21 119.075 341.263 119.898 341.405 121.044L341.433 121.275C341.575 122.421 340.752 123.475 339.606 123.617" fill="#FFC4B9"/>
<path d="M337.349 130.469L306.876 134.234C305.824 134.363 304.856 133.609 304.727 132.557L304.655 131.983C304.526 130.931 305.28 129.964 306.332 129.834L336.806 126.07C337.858 125.94 338.824 126.695 338.955 127.746L339.025 128.32C339.155 129.372 338.4 130.34 337.349 130.469" fill="#FFC4B9"/>
<path d="M615.029 143.993H629.059C629.059 151.691 622.725 158.023 615.029 158.023C607.333 158.023 601 151.691 601 143.993C601 136.297 607.333 129.965 615.029 129.965V143.993Z" fill="#8B0000"/>
<path d="M631.408 142.03C631.408 134.281 625.127 128 617.378 128V142.03H631.408Z" fill="#F39892"/>
<path d="M221.068 138.197H216.779V125.784H221.068V138.197Z" fill="#FFC4B9"/>
<path d="M276.053 138.197H271.762V129.824H276.053V138.197Z" fill="#FFC4B9"/>
<path d="M239.249 138.197H234.958V109.156H239.249V138.197Z" fill="#FFC4B9"/>
<path d="M248.338 138.197H244.049V125.144H248.338V138.197Z" fill="#FFC4B9"/>
<path d="M257.428 138.197H253.139V121.45H257.428V138.197Z" fill="#FFC4B9"/>
<path d="M230.157 138.197H225.868V117.589H230.157V138.197Z" fill="#FFC4B9"/>
<path d="M266.549 138.197H262.26V112.815H266.549V138.197Z" fill="#FFC4B9"/>
<path d="M224.213 93.2715H151.664C150.875 93.2715 150.234 92.631 150.234 91.8417V60.6217C150.234 59.8324 150.875 59.1919 151.664 59.1919H224.213C225.002 59.1919 225.642 59.8324 225.642 60.6217V91.8417C225.642 92.631 225.002 93.2715 224.213 93.2715Z" fill="#FFC4B9"/>
<path d="M222.427 91.6714H153.452C152.814 91.6714 152.297 91.1534 152.297 90.5164V69.3012C152.297 68.6625 152.814 68.1462 153.452 68.1462H222.427C223.064 68.1462 223.582 68.6625 223.582 69.3012V90.5164C223.582 91.1534 223.064 91.6714 222.427 91.6714Z" fill="white"/>
<path d="M155.657 64.3604H153.983C153.629 64.3604 153.343 64.0734 153.343 63.7199V62.3409C153.343 61.9874 153.629 61.7004 153.983 61.7004H155.657C156.01 61.7004 156.297 61.9874 156.297 62.3409V63.7199C156.297 64.0734 156.01 64.3604 155.657 64.3604Z" fill="white"/>
<path d="M161.028 64.3604H159.354C159.001 64.3604 158.714 64.0734 158.714 63.7199V62.3409C158.714 61.9874 159.001 61.7004 159.354 61.7004H161.028C161.382 61.7004 161.668 61.9874 161.668 62.3409V63.7199C161.668 64.0734 161.382 64.3604 161.028 64.3604Z" fill="white"/>
<path d="M166.4 64.3604H164.726C164.372 64.3604 164.086 64.0734 164.086 63.7199V62.3409C164.086 61.9874 164.372 61.7004 164.726 61.7004H166.4C166.754 61.7004 167.04 61.9874 167.04 62.3409V63.7199C167.04 64.0734 166.754 64.3604 166.4 64.3604Z" fill="white"/>
<path d="M220.68 73.3013H182.974C182.355 73.3013 181.847 72.7938 181.847 72.1725C181.847 71.5531 182.355 71.0456 182.974 71.0456H220.68C221.301 71.0456 221.808 71.5531 221.808 72.1725C221.808 72.7938 221.301 73.3013 220.68 73.3013Z" fill="#FFC4B9"/>
<path d="M192.321 90.7041H154.614C153.994 90.7041 153.486 90.1966 153.486 89.5771C153.486 88.9558 153.994 88.4483 154.614 88.4483H192.321C192.94 88.4483 193.448 88.9558 193.448 89.5771C193.448 90.1966 192.94 90.7041 192.321 90.7041Z" fill="#FFC4B9"/>
<path d="M199.267 90.7041H195.364C195.152 90.7041 194.979 90.5309 194.979 90.3191V88.8351C194.979 88.6234 195.152 88.4483 195.364 88.4483H199.267C199.478 88.4483 199.652 88.6234 199.652 88.8351V90.3191C199.652 90.5309 199.478 90.7041 199.267 90.7041Z" fill="#FFC4B9"/>
<path d="M205.149 90.7041H201.246C201.034 90.7041 200.861 90.5309 200.861 90.3191V88.8351C200.861 88.6234 201.034 88.4483 201.246 88.4483H205.149C205.36 88.4483 205.534 88.6234 205.534 88.8351V90.3191C205.534 90.5309 205.36 90.7041 205.149 90.7041Z" fill="#FFC4B9"/>
<path d="M221.044 78.2188H158.603C158.182 78.2188 157.837 77.874 157.837 77.4523C157.837 77.0305 158.182 76.6875 158.603 76.6875H221.044C221.464 76.6875 221.808 77.0305 221.808 77.4523C221.808 77.874 221.464 78.2188 221.044 78.2188Z" fill="#FFC4B9"/>
<path d="M221.044 81.52H158.603C158.182 81.52 157.837 81.1752 157.837 80.7552C157.837 80.3335 158.182 79.9887 158.603 79.9887H221.044C221.464 79.9887 221.808 80.3335 221.808 80.7552C221.808 81.1752 221.464 81.52 221.044 81.52Z" fill="#FFC4B9"/>
<path d="M409.415 71.5708H377.215V52.8038H401.432C404.55 55.9205 406.299 57.6688 409.415 60.7873V71.5708Z" fill="#FFB8B3"/>
<path d="M400.84 52.8048V62.8218H409.416V60.8968L401.378 52.859L400.84 52.8048" fill="#F39892"/>
<path d="M401.432 52.8049V60.897H409.415L401.432 52.8049Z" fill="#FFB8B3"/>
<path d="M395.196 59.8467H380.847C380.535 59.8467 380.278 59.5912 380.278 59.2779C380.278 58.9647 380.535 58.7092 380.847 58.7092H395.196C395.51 58.7092 395.765 58.9647 395.765 59.2779C395.765 59.5912 395.51 59.8467 395.196 59.8467Z" fill="white"/>
<path d="M395.196 62.7568H380.847C380.535 62.7568 380.278 62.4996 380.278 62.1881C380.278 61.8748 380.535 61.6193 380.847 61.6193H395.196C395.51 61.6193 395.765 61.8748 395.765 62.1881C395.765 62.4996 395.51 62.7568 395.196 62.7568Z" fill="white"/>
<path d="M395.196 65.8188H380.847C380.535 65.8188 380.278 65.5616 380.278 65.2501C380.278 64.9368 380.535 64.6813 380.847 64.6813H395.196C395.51 64.6813 395.765 64.9368 395.765 65.2501C395.765 65.5616 395.51 65.8188 395.196 65.8188Z" fill="white"/>
<path d="M393.316 54.246C393.316 54.778 392.885 55.2085 392.353 55.2085C391.823 55.2085 391.391 54.778 391.391 54.246C391.391 53.714 391.823 53.2835 392.353 53.2835C392.885 53.2835 393.316 53.714 393.316 54.246Z" fill="#3E6BAB"/>
<path d="M266.278 77.9487L246.184 74.0672L250.865 49.8385L270.959 53.7217L266.278 77.9487" fill="#FAE8B6"/>
<path d="M266.707 64.1957L256.054 62.1377C255.771 62.0835 255.584 61.8052 255.638 61.5217C255.692 61.2382 255.97 61.051 256.254 61.107L266.906 63.165C267.19 63.2192 267.377 63.4957 267.323 63.7792C267.267 64.0627 266.99 64.25 266.707 64.1957" fill="#FFC4B9"/>
<path d="M266.192 66.8583L255.54 64.8003C255.256 64.7443 255.069 64.4678 255.123 64.1843C255.177 63.9008 255.454 63.7135 255.737 63.7695L266.391 65.8276C266.675 65.8818 266.862 66.1583 266.808 66.4418C266.752 66.7253 266.475 66.9126 266.192 66.8583" fill="#FFC4B9"/>
<path d="M265.663 69.5951L255.011 67.5354C254.726 67.4811 254.54 67.2046 254.594 66.9211C254.649 66.6376 254.925 66.4504 255.209 66.5047L265.863 68.5626C266.146 68.6186 266.333 68.8951 266.277 69.1786C266.223 69.4621 265.947 69.6494 265.663 69.5951Z" fill="#FFC4B9"/>
<path d="M259.495 53.0871C259.404 53.5613 258.945 53.871 258.471 53.78C257.995 53.689 257.685 53.2288 257.776 52.7546C257.869 52.2803 258.327 51.9706 258.802 52.0616C259.276 52.1543 259.587 52.6128 259.495 53.0871Z" fill="#3E6BAB"/>
<path d="M424.277 97.8306L393.181 94.5545L395.233 75.0631L419.889 77.66C422.14 80.4408 423.402 81.9983 425.652 84.7791L424.277 97.8306Z" fill="#FFC4B9"/>
<path d="M419.448 79.0506L396.301 76.6111L394.57 93.0576L423.345 96.0903L424.36 86.4601L418.73 85.8668L419.448 79.0506" fill="white"/>
<path d="M416.31 85.0252L401.316 83.445C400.973 83.41 400.721 83.0985 400.758 82.7555C400.793 82.4107 401.104 82.1605 401.447 82.1955L416.442 83.7757C416.786 83.8125 417.037 84.1222 417.002 84.467C416.965 84.81 416.655 85.062 416.31 85.0252Z" fill="#FFC4B9"/>
<path d="M415.962 88.3294L400.969 86.7509C400.626 86.7142 400.374 86.4027 400.41 86.0597C400.447 85.7167 400.757 85.4647 401.1 85.5015L416.095 87.0799C416.438 87.1167 416.689 87.4264 416.654 87.7712C416.617 88.1142 416.307 88.3662 415.962 88.3294" fill="#FFC4B9"/>
<path d="M415.6 91.78L400.606 90.1998C400.261 90.163 400.011 89.8533 400.046 89.5085C400.083 89.1655 400.393 88.9135 400.737 88.9503L415.731 90.5305C416.074 90.5655 416.326 90.877 416.289 91.22C416.253 91.563 415.943 91.815 415.6 91.78Z" fill="#FFC4B9"/>
<path d="M407.831 79.5644C407.831 80.0946 407.401 80.5269 406.869 80.5269C406.338 80.5269 405.906 80.0946 405.906 79.5644C405.906 79.0324 406.338 78.6019 406.869 78.6019C407.401 78.6019 407.831 79.0324 407.831 79.5644Z" fill="#3E6BAB"/>
<path d="M578.785 64.359C578.785 70.288 573.978 75.0952 568.049 75.0952C562.121 75.0952 557.313 70.288 557.313 64.359C557.313 58.4299 562.121 53.6227 568.049 53.6227C573.978 53.6227 578.785 58.4299 578.785 64.359Z" fill="#9CD499"/>
<path d="M566.983 68.0352L566.964 68.0334C566.819 68.0282 566.684 67.9652 566.59 67.8567L563.672 64.5421C563.482 64.3251 563.503 63.9927 563.72 63.8019C563.938 63.6094 564.269 63.6322 564.462 63.8492L567.011 66.7472L572.846 61.0369C573.052 60.8339 573.385 60.8374 573.588 61.0457C573.791 61.2522 573.787 61.5846 573.581 61.7876L567.351 67.8847C567.253 67.9809 567.12 68.0352 566.983 68.0352" fill="white"/>
<path d="M84.3165 164.022H146.214C147.8 164.022 149.099 162.723 149.099 161.136V139.022C149.099 137.436 147.8 136.138 146.214 136.138H84.3165C82.7301 136.138 81.4321 137.436 81.4321 139.022V161.136C81.4321 162.723 82.7301 164.022 84.3165 164.022" fill="#FFC4B9"/>
<path d="M140.926 159.815V175.2L123.198 157.472C123.198 157.472 140.565 159.815 140.926 159.815Z" fill="#FFC4B9"/>
<path d="M87.3771 161.257H143.153C144.498 161.257 145.598 160.157 145.598 158.813V141.348C145.598 140.004 144.498 138.903 143.153 138.903H87.3771C86.032 138.903 84.9316 140.004 84.9316 141.348V158.813C84.9316 160.157 86.032 161.257 87.3771 161.257Z" fill="white"/>
<path d="M112.561 144.431H139.964C140.625 144.431 141.166 143.89 141.166 143.229C141.166 142.567 140.625 142.027 139.964 142.027H112.561C111.9 142.027 111.359 142.567 111.359 143.229C111.359 143.89 111.9 144.431 112.561 144.431Z" fill="#FFC4B9"/>
<path d="M89.6721 149.026H140.498C140.865 149.026 141.166 148.725 141.166 148.358V148.344C141.166 147.976 140.865 147.675 140.498 147.675H89.6721C89.3046 147.675 89.0039 147.976 89.0039 148.344V148.358C89.0039 148.725 89.3046 149.026 89.6721 149.026Z" fill="#FFC4B9"/>
<path d="M89.6721 151.643H140.498C140.865 151.643 141.166 151.342 141.166 150.974V150.96C141.166 150.593 140.865 150.292 140.498 150.292H89.6721C89.3046 150.292 89.0039 150.593 89.0039 150.96V150.974C89.0039 151.342 89.3046 151.643 89.6721 151.643Z" fill="#FFC4B9"/>
<path d="M542.11 144.54H545.354C546.04 144.54 546.595 143.985 546.595 143.299V140.628C546.595 139.942 546.04 139.387 545.354 139.387H542.11C541.426 139.387 540.871 139.942 540.871 140.628V143.299C540.871 143.985 541.426 144.54 542.11 144.54Z" fill="#510000"/>
<path d="M531.702 144.54H534.946C535.632 144.54 536.187 143.985 536.187 143.299V140.628C536.187 139.942 535.632 139.387 534.946 139.387H531.702C531.018 139.387 530.463 139.942 530.463 140.628V143.299C530.463 143.985 531.018 144.54 531.702 144.54Z" fill="#510000"/>
<path d="M521.292 144.54H524.537C525.223 144.54 525.778 143.985 525.778 143.299V140.628C525.778 139.942 525.223 139.387 524.537 139.387H521.292C520.608 139.387 520.053 139.942 520.053 140.628V143.299C520.053 143.985 520.608 144.54 521.292 144.54Z" fill="#510000"/>
<path d="M107.532 77.2676L91.4628 67.4401L88.5562 86.0513C96.1052 87.2413 103.592 83.7038 107.532 77.2676Z" fill="#A2DFF2"/>
<path d="M107.549 77.2446C107.593 77.1734 107.649 77.0759 107.647 77.0796C111.041 71.3946 111.178 64.3334 108.064 58.5384C102.377 61.5171 105.764 59.7071 91.4629 67.4396C107.559 77.2834 105.059 75.7646 107.549 77.2446" fill="#9CD499"/>
<path d="M73.7983 60.9307L91.4627 67.4395L108.034 58.4795C100.282 44.1445 79.4184 45.8645 73.7983 60.9307Z" fill="#9EC8FF"/>
<path d="M88.5558 86.0508L91.4624 67.4395L73.7981 60.9308C69.5976 72.192 77.0531 84.237 88.5558 86.0508" fill="#F39892"/>
<path d="M72.6424 64.0123C72.9714 64.0123 73.2736 64.096 73.5351 64.2435C73.6879 63.3998 73.9005 62.5623 74.1765 61.7373L83.7681 65.271L83.7674 65.2623C83.7478 64.8248 83.9125 64.416 84.1843 64.0923L83.2239 63.7385L74.613 60.5647C75.3195 58.846 76.2591 57.2823 77.3873 55.8997C76.9811 55.751 76.649 55.4635 76.4298 55.096C75.2118 56.586 74.1991 58.2747 73.4408 60.1335L73.4304 60.1298L73.2129 60.7135L72.9936 61.301L73.004 61.3048C72.7001 62.2073 72.4673 63.1235 72.3013 64.0473C72.4134 64.0248 72.5275 64.0123 72.6424 64.0123" fill="white"/>
<path d="M107.327 76.386L107.208 76.316C106.552 75.9273 106.266 75.7585 104.958 74.9598L92.7151 67.4735L102.878 61.9785C104.371 61.1748 104.982 60.8548 106.498 60.0623C106.868 59.8685 107.292 59.6473 107.796 59.3835C110.445 64.7498 110.272 71.171 107.327 76.386V76.386ZM89.2715 85.5198L91.9356 68.4623L98.8689 72.7023C101.664 74.4123 103.263 75.391 104.27 76.0048L106.663 77.4685C102.845 83.2585 96.137 86.3648 89.2715 85.5198ZM108.87 58.7385L108.88 58.7323L108.583 58.1823L108.564 58.1498L108.321 57.6973L108.312 57.7023C106.437 54.4448 103.764 51.846 100.548 50.171C97.3989 48.5298 93.819 47.796 90.1936 48.0485C85.9312 48.3435 82.048 49.9423 78.9632 52.5273C79.3257 52.7473 79.6035 53.0898 79.7576 53.4948C82.647 51.071 86.2856 49.5723 90.2802 49.2948C97.2519 48.8098 103.669 52.2223 107.177 58.2323L102.283 60.8785C101.273 61.4223 99.8605 62.186 97.4957 63.466C95.9807 64.286 94.0744 65.3173 91.6327 66.6373L91.4819 66.7198L90.9897 66.4185L90.9629 66.5898L87.5164 65.3198C87.5199 65.7585 87.341 66.1648 87.0556 66.4823L90.7661 67.8498L88.0367 85.3248C82.8819 84.3298 78.4216 81.1598 75.7302 76.5535C74.1216 73.7998 73.2874 70.736 73.2497 67.651C73.0547 67.721 72.8497 67.7623 72.6422 67.7623C72.4132 67.7623 72.1984 67.7198 72 67.6448C72.0362 70.951 72.9276 74.2335 74.6509 77.1835C77.5327 82.1173 82.3164 85.5073 87.8439 86.5598L87.8422 86.571L88.458 86.6685L89.077 86.766L89.0786 86.7548C89.8781 86.8548 90.6791 86.9048 91.4782 86.9048C94.2887 86.9048 97.0725 86.291 99.661 85.0848C102.975 83.5423 105.759 81.1298 107.748 78.0898L107.761 78.0973L107.883 77.8973L108.082 77.5698C108.113 77.5198 108.15 77.4573 108.17 77.4223L108.184 77.401L108.193 77.3835L108.391 77.0598L108.382 77.0535C111.576 71.441 111.758 64.5098 108.87 58.7385" fill="#E7F3FE"/>
</g>
<defs>
<clipPath id="clip0">
<rect width="700" height="437.5" fill="white" transform="translate(-1)"/>
</clipPath>
</defs>
</svg>
