<svg width="600" height="400" viewBox="0 0 600 400" fill="none" xmlns="http://www.w3.org/2000/svg">
<path opacity="0.8" d="M296.661 360.898C393.795 360.898 472.537 281.899 472.537 184.449C472.537 86.9989 393.795 8 296.661 8C199.528 8 120.785 86.9989 120.785 184.449C120.785 281.899 199.528 360.898 296.661 360.898Z" fill="#FFC4B9"/>
<path fill-rule="evenodd" clip-rule="evenodd" d="M449.183 364.945C448.941 358.194 449.097 351.435 449.65 344.703C452.531 312.237 465.844 289.036 484.607 273.543C503.37 258.05 527.661 250.186 552.653 248.396C561.495 247.773 570.372 247.851 579.202 248.63C579.316 248.634 579.429 248.663 579.531 248.714C579.634 248.765 579.725 248.836 579.798 248.924C579.872 249.012 579.926 249.114 579.957 249.225C579.989 249.335 579.997 249.45 579.981 249.564V249.642C579.825 251.511 571.028 335.05 518.008 364.942L449.183 364.945Z" fill="#D0D3EA"/>
<path fill-rule="evenodd" clip-rule="evenodd" d="M574.453 252.988C574.66 252.92 574.885 252.931 575.086 253.016C575.286 253.102 575.449 253.258 575.543 253.455C575.603 253.662 575.589 253.884 575.504 254.083C575.419 254.282 575.267 254.445 575.076 254.545C574.998 254.545 566.045 257.893 552.731 265.445C557.325 266.224 567.679 268.17 572.195 269.645C572.385 269.73 572.541 269.875 572.64 270.058C572.738 270.241 572.774 270.452 572.74 270.657C572.669 270.857 572.526 271.024 572.339 271.124C572.152 271.225 571.934 271.253 571.728 271.202C566.434 269.489 552.576 267.076 550.473 266.686C544.712 270.034 538.25 274.086 531.321 278.986L567.29 288.407C567.397 288.432 567.499 288.479 567.588 288.543C567.677 288.608 567.753 288.69 567.811 288.784C567.869 288.878 567.908 288.982 567.925 289.091C567.943 289.2 567.939 289.311 567.913 289.419C567.887 289.526 567.841 289.627 567.776 289.717C567.712 289.806 567.63 289.882 567.536 289.94C567.442 289.998 567.338 290.037 567.229 290.054C567.12 290.071 567.008 290.067 566.901 290.042L529.608 280.232C523.224 284.903 516.45 290.198 509.677 296.27C517.077 298.528 552.498 309.428 558.337 312.386C558.434 312.432 558.521 312.496 558.593 312.576C558.666 312.656 558.721 312.749 558.757 312.85C558.794 312.951 558.809 313.058 558.804 313.166C558.799 313.273 558.772 313.378 558.727 313.475C558.681 313.572 558.616 313.66 558.536 313.732C558.457 313.804 558.364 313.86 558.262 313.896C558.161 313.932 558.054 313.948 557.947 313.942C557.839 313.937 557.734 313.911 557.637 313.865C551.642 310.751 512.714 298.917 508.277 297.593C502.584 302.741 497.153 308.172 492.005 313.865L547.438 331.538C547.64 331.604 547.808 331.746 547.906 331.934C548.005 332.122 548.025 332.341 547.964 332.544C547.904 332.748 547.765 332.919 547.58 333.022C547.394 333.125 547.176 333.151 546.971 333.095L490.837 315.188C486.637 319.859 482.506 324.842 478.537 330.136C487.568 333.172 533.814 347.576 533.97 347.654C534.075 347.682 534.172 347.732 534.258 347.799C534.343 347.866 534.414 347.949 534.466 348.044C534.519 348.139 534.552 348.243 534.564 348.351C534.575 348.459 534.565 348.568 534.534 348.672C534.503 348.775 534.451 348.872 534.382 348.956C534.313 349.039 534.228 349.108 534.132 349.158C534.036 349.209 533.931 349.239 533.823 349.248C533.715 349.257 533.606 349.244 533.503 349.211C533.347 349.133 485.31 334.185 477.603 331.538C474.177 336.131 470.83 341.038 467.637 346.097C478.537 351.469 515.285 361.045 515.363 361.045C515.471 361.069 515.573 361.115 515.664 361.179C515.754 361.243 515.83 361.325 515.888 361.419C515.946 361.514 515.985 361.619 516.002 361.728C516.018 361.838 516.013 361.949 515.986 362.057C515.928 362.27 515.791 362.453 515.603 362.569C515.415 362.684 515.19 362.724 514.974 362.68C514.896 362.68 477.759 353.026 466.781 347.498C464.757 350.768 462.732 354.198 460.864 357.775C463.664 358.865 472.776 362.368 482.119 365.016H476.358C468.728 362.602 462.11 360.033 460.008 359.255C458.996 361.124 457.984 363.07 457.05 365.016H455.259C456.427 362.68 457.595 360.422 458.759 358.165C456.345 351.465 454.866 337.689 454.788 337.611C454.769 337.503 454.772 337.393 454.798 337.286C454.823 337.18 454.87 337.08 454.936 336.992C455.001 336.905 455.084 336.832 455.179 336.777C455.274 336.723 455.379 336.689 455.488 336.677C455.703 336.655 455.918 336.715 456.091 336.845C456.264 336.974 456.382 337.164 456.422 337.377C456.422 337.377 457.746 349.211 459.77 356.14C461.639 352.792 463.507 349.522 465.453 346.33C462.581 336.238 460.729 325.883 459.925 315.421C459.92 315.313 459.936 315.206 459.972 315.105C460.009 315.004 460.065 314.911 460.137 314.831C460.209 314.752 460.296 314.687 460.394 314.641C460.491 314.596 460.596 314.569 460.703 314.564C460.811 314.559 460.918 314.575 461.019 314.612C461.12 314.648 461.213 314.704 461.293 314.776C461.373 314.848 461.437 314.936 461.483 315.033C461.529 315.13 461.555 315.235 461.56 315.343C462.33 325.213 464.025 334.989 466.621 344.543C469.735 339.638 472.927 334.967 476.197 330.529C475.185 327.571 469.268 309.586 468.797 296.895C468.792 296.787 468.808 296.68 468.844 296.579C468.881 296.478 468.937 296.385 469.009 296.305C469.081 296.226 469.168 296.161 469.266 296.115C469.363 296.07 469.468 296.043 469.576 296.038C469.683 296.033 469.79 296.049 469.891 296.086C469.992 296.122 470.085 296.178 470.165 296.25C470.245 296.322 470.309 296.41 470.355 296.507C470.401 296.604 470.427 296.709 470.432 296.817C470.899 308.262 475.804 324.066 477.361 328.894C481.332 323.677 485.38 318.772 489.506 314.179C481.02 296.194 480.864 282.025 480.864 281.947C480.862 281.732 480.942 281.525 481.086 281.366C481.23 281.208 481.429 281.109 481.643 281.091C481.854 281.102 482.054 281.186 482.21 281.328C482.366 281.47 482.468 281.661 482.499 281.87C482.499 281.87 482.655 295.417 490.674 312.779C496.046 306.862 501.574 301.412 507.024 296.429C503.524 288.488 500.095 267.7 500.017 267.622C499.999 267.513 500.003 267.402 500.029 267.296C500.054 267.189 500.101 267.088 500.166 267C500.231 266.911 500.313 266.836 500.408 266.78C500.502 266.723 500.606 266.686 500.715 266.671C500.824 266.655 500.935 266.661 501.041 266.689C501.147 266.717 501.247 266.766 501.334 266.832C501.421 266.899 501.495 266.983 501.549 267.078C501.604 267.173 501.639 267.279 501.652 267.388C501.652 267.466 504.922 287.163 508.27 295.26C514.712 289.466 521.469 284.034 528.512 278.988C526.903 271.834 526.119 264.52 526.176 257.188C526.186 256.971 526.282 256.767 526.443 256.621C526.604 256.475 526.816 256.399 527.033 256.409C527.249 256.42 527.453 256.516 527.599 256.676C527.745 256.837 527.821 257.049 527.811 257.266C527.708 264.227 528.413 271.177 529.911 277.976C536.918 272.993 543.536 268.789 549.375 265.363C548.913 261.409 548.835 257.42 549.141 253.451C549.151 253.234 549.247 253.03 549.408 252.884C549.569 252.738 549.781 252.662 549.998 252.672C550.214 252.683 550.418 252.779 550.564 252.939C550.71 253.1 550.786 253.312 550.776 253.529C550.465 257.158 550.518 260.81 550.932 264.429C564.954 256.492 574.375 252.988 574.453 252.988Z" fill="white"/>
<path fill-rule="evenodd" clip-rule="evenodd" d="M156.417 307.533C156.407 307.929 156.27 308.31 156.028 308.623C155.788 308.939 155.465 309.182 155.094 309.323C99.1162 325.361 65.4042 297.255 45.6292 264.79C26.0872 232.713 20.2482 196.355 20.0142 194.642V194.486C19.9583 194.022 20.0685 193.553 20.3252 193.162C20.4598 192.97 20.6333 192.808 20.8346 192.688C21.0358 192.567 21.2603 192.49 21.4932 192.462C25.8532 191.839 30.2132 191.372 34.6512 191.138C39.0112 190.904 43.3712 190.749 47.7312 190.904C60.4777 191.13 73.1314 193.121 85.3312 196.821C96.5041 200.247 107.029 205.509 116.473 212.392C126.996 220.166 135.708 230.128 142.01 241.592C148.238 252.725 152.676 265.883 154.856 281.298C155.479 285.424 155.868 289.706 156.102 294.144C156.484 298.597 156.588 303.069 156.413 307.535L156.417 307.533ZM22.1172 195.265C22.5062 197.523 23.5172 203.128 25.5432 210.836C30.2922 209.045 41.0362 206.476 45.7082 205.386C38.0861 201.475 30.2038 198.094 22.1172 195.265ZM26.0102 212.471C27.4102 217.765 29.2802 223.838 31.6162 230.456L69.0652 218.544C61.5132 213.795 54.4282 209.824 48.2002 206.632C46.0202 207.021 31.5392 210.369 26.0112 212.471H26.0102ZM32.2382 232.091C35.1339 240.012 38.541 247.736 42.4382 255.214C48.5892 251.714 85.1812 238.397 92.8882 235.594C85.8789 229.911 78.5484 224.636 70.9332 219.794L32.2392 232.094L32.2382 232.091ZM43.2942 256.691C44.5402 259.027 45.9412 261.44 47.3422 263.776C49.6782 267.591 52.1692 271.328 54.8162 274.909C54.8567 274.865 54.9123 274.837 54.9722 274.831L112.429 253.109C106.434 247.192 100.361 241.742 94.3672 236.837C89.8512 238.472 49.4442 253.109 43.2942 256.69V256.691ZM55.9072 276.311C60.0573 281.734 64.7246 286.74 69.8432 291.259C69.9212 291.181 70.0772 291.103 70.1542 291.025C70.3102 290.947 118.269 273.274 127.689 269.537C123.173 264.165 118.58 259.104 113.909 254.437L55.9092 276.314L55.9072 276.311ZM71.2452 292.505C76.9327 297.369 83.2425 301.453 90.0082 304.651C90.0862 304.495 90.3192 304.262 90.4752 304.262C90.5532 304.262 128.775 292.194 140.069 285.888C136.41 280.672 132.669 275.767 128.78 271.018C121.228 274.054 76.3052 290.638 71.2452 292.506V292.505ZM92.0322 305.505C97.9883 308.076 104.237 309.906 110.639 310.955C110.677 310.784 110.763 310.627 110.887 310.503C111.011 310.379 111.168 310.293 111.339 310.255C124.107 308.309 143.493 299.667 147.853 297.642C145.673 294.061 143.337 290.557 141.002 287.132C130.881 293.049 98.1812 303.56 92.0312 305.506L92.0322 305.505ZM114.532 311.5C126.132 312.824 139.132 311.811 153.693 307.763C152.136 304.882 150.501 302.002 148.793 299.199C145.056 300.912 127.538 308.775 114.537 311.499L114.532 311.5ZM154.632 305.817C154.71 301.769 154.632 297.876 154.398 294.061C154.164 289.701 153.698 285.419 153.152 281.371C153.074 280.748 152.996 280.203 152.918 279.658C152.529 284.485 151.672 293.049 150.118 298.032C151.597 300.523 153.154 303.17 154.634 305.818L154.632 305.817ZM152.063 275.217C150.784 268.312 148.882 261.537 146.38 254.975C145.949 265.408 144.568 275.78 142.254 285.962C144.512 289.229 146.692 292.576 148.794 296.005C150.585 288.605 151.363 276.074 151.363 276.074C151.372 275.875 151.445 275.684 151.571 275.53C151.697 275.376 151.87 275.266 152.063 275.218V275.217ZM145.29 252.172C143.811 248.746 142.254 245.472 140.541 242.362C139.141 239.793 137.582 237.379 136.025 235.044C135.869 248.435 130.887 266.653 130.03 269.69C133.767 274.206 137.43 278.955 140.93 283.938C143.167 273.725 144.444 263.325 144.745 252.874C144.749 252.715 144.805 252.561 144.903 252.435C145.001 252.309 145.137 252.217 145.29 252.174V252.172ZM134.617 233.103C131.048 228.156 126.978 223.59 122.472 219.478C122.472 222.826 122.005 236.295 115.072 253.112C119.665 257.783 124.259 262.688 128.619 267.982C130.019 262.766 134.38 245.793 134.225 233.725C134.244 233.6 134.289 233.481 134.356 233.374C134.423 233.267 134.511 233.174 134.614 233.102L134.617 233.103ZM120.917 218.233C119.126 216.676 117.336 215.197 115.389 213.795C110.937 210.532 106.224 207.642 101.297 205.153C100.986 207.878 98.6502 227.575 95.5362 235.595C101.531 240.495 107.681 245.95 113.676 251.945C121.228 233.182 120.683 218.856 120.683 218.856C120.735 218.639 120.813 218.43 120.917 218.233V218.233ZM99.7402 204.375C94.9502 202.029 89.9771 200.076 84.8702 198.536C81.0555 197.368 77.1629 196.356 73.1922 195.5C73.6246 203.153 73.2067 210.83 71.9462 218.39C79.6073 223.356 87.0115 228.707 94.1302 234.423C97.2442 225.703 99.5802 204.682 99.5802 204.604C99.7362 204.526 99.7362 204.448 99.7362 204.37L99.7402 204.375ZM71.5562 195.188C64.0573 193.761 56.4536 192.953 48.8222 192.774C49.3681 196.903 49.4985 201.076 49.2112 205.231C55.5952 208.501 62.7582 212.549 70.4662 217.454C71.6446 210.199 72.0102 202.835 71.5562 195.499C71.4782 195.343 71.4782 195.265 71.5562 195.188V195.188ZM34.8862 192.93C31.1492 193.164 27.4862 193.553 23.7532 194.02C31.866 196.903 39.7724 200.336 47.4172 204.296C47.6248 200.475 47.4684 196.643 46.9502 192.851V192.695C42.9792 192.623 38.9302 192.696 34.8822 192.929L34.8862 192.93Z" fill="#C2C2C2"/>
<path fill-rule="evenodd" clip-rule="evenodd" d="M506.329 308.432C508.665 298.7 514.815 281.494 531.087 260.473C556.935 227.229 572.039 190.559 554.677 179.114C537.627 167.903 500.022 217.03 488.188 307.887C494.203 308.661 500.279 308.844 506.329 308.432V308.432Z" fill="#8896CA"/>
<path fill-rule="evenodd" clip-rule="evenodd" d="M497.064 304.15C499.288 303.204 501.658 302.651 504.071 302.515C504.129 302.512 504.185 302.497 504.237 302.472C504.288 302.446 504.334 302.41 504.372 302.367C504.409 302.323 504.438 302.272 504.455 302.217C504.473 302.162 504.479 302.104 504.474 302.047C504.469 301.99 504.452 301.934 504.425 301.883C504.398 301.832 504.361 301.787 504.316 301.751C504.271 301.715 504.219 301.688 504.164 301.673C504.108 301.657 504.05 301.652 503.993 301.659C501.665 301.8 499.376 302.326 497.22 303.216C497.454 301.659 497.687 300.18 497.999 298.7C499.478 298.077 504.228 296.131 506.099 295.508C506.157 295.495 506.212 295.47 506.26 295.434C506.308 295.399 506.349 295.354 506.379 295.303C506.41 295.252 506.43 295.195 506.438 295.136C506.446 295.077 506.442 295.017 506.426 294.959C506.41 294.901 506.383 294.848 506.346 294.801C506.309 294.754 506.263 294.715 506.211 294.686C506.158 294.658 506.101 294.64 506.041 294.634C505.982 294.628 505.922 294.635 505.865 294.652C504.152 295.197 500.104 296.832 498.235 297.61C498.702 294.81 499.247 292.16 499.792 289.51C503.437 288.163 507.154 287.02 510.925 286.084C511.035 286.05 511.127 285.974 511.182 285.874C511.237 285.773 511.251 285.654 511.221 285.544C511.19 285.433 511.118 285.338 511.019 285.279C510.921 285.22 510.803 285.202 510.691 285.228C506.02 286.396 501.815 287.797 499.947 288.42C500.492 285.773 501.115 283.126 501.66 280.634C506.89 278.742 512.218 277.131 517.62 275.807C517.678 275.794 517.733 275.769 517.781 275.733C517.829 275.698 517.87 275.653 517.9 275.602C517.931 275.551 517.951 275.494 517.959 275.435C517.967 275.376 517.963 275.316 517.947 275.258C517.931 275.2 517.904 275.147 517.867 275.1C517.83 275.053 517.784 275.014 517.732 274.985C517.679 274.957 517.622 274.939 517.562 274.933C517.503 274.927 517.443 274.934 517.386 274.951C512.156 276.187 507.007 277.747 501.971 279.622C502.75 276.274 503.606 273.082 504.462 269.968C506.486 269.112 514.972 265.53 522.213 265.068C522.271 265.069 522.329 265.057 522.382 265.033C522.435 265.009 522.482 264.973 522.519 264.928C522.557 264.883 522.584 264.831 522.598 264.774C522.612 264.718 522.614 264.659 522.602 264.601C522.594 264.48 522.543 264.366 522.457 264.28C522.371 264.194 522.256 264.142 522.135 264.134C515.435 264.523 507.654 267.56 504.773 268.805C505.863 264.99 506.953 261.331 508.121 257.827C511.002 256.893 522.68 253.311 529.376 255.027C529.433 255.045 529.493 255.051 529.552 255.045C529.612 255.04 529.669 255.022 529.722 254.993C529.774 254.965 529.82 254.926 529.857 254.879C529.894 254.832 529.921 254.778 529.937 254.721C529.953 254.663 529.957 254.603 529.949 254.544C529.941 254.485 529.921 254.428 529.89 254.377C529.86 254.325 529.819 254.281 529.771 254.245C529.723 254.21 529.668 254.185 529.61 254.171C523.07 252.536 512.248 255.571 508.433 256.74C509.679 253.003 510.924 249.499 512.17 246.152C519.21 245.164 526.335 244.929 533.425 245.452C533.482 245.459 533.54 245.455 533.596 245.439C533.651 245.423 533.703 245.397 533.748 245.36C533.793 245.324 533.83 245.279 533.857 245.229C533.884 245.178 533.901 245.122 533.906 245.065C533.911 245.007 533.905 244.949 533.887 244.894C533.87 244.84 533.841 244.789 533.804 244.745C533.766 244.701 533.72 244.666 533.669 244.64C533.617 244.615 533.561 244.6 533.503 244.596C526.495 244.014 519.443 244.223 512.482 245.219C513.261 243.273 514.039 241.326 514.818 239.458C522.885 238.257 531.069 238.048 539.187 238.835C539.299 238.842 539.408 238.805 539.493 238.732C539.577 238.659 539.63 238.556 539.64 238.445C539.651 238.334 539.617 238.223 539.547 238.136C539.477 238.049 539.376 237.993 539.265 237.979C531.252 237.238 523.18 237.421 515.208 238.524C517.077 234.164 519.023 230.038 520.891 226.301C523.691 226.145 537.941 225.522 546.191 227.157C546.425 227.235 546.658 227.079 546.736 226.768C546.814 226.534 546.658 226.301 546.347 226.223C538.406 224.666 525.17 225.133 521.355 225.289C522.445 223.109 523.613 221.007 524.703 219.061C532.847 218.749 541.003 219.166 549.072 220.307C549.135 220.321 549.2 220.322 549.263 220.309C549.325 220.297 549.385 220.272 549.438 220.236C549.491 220.2 549.537 220.154 549.571 220.1C549.606 220.046 549.629 219.985 549.64 219.922C549.65 219.859 549.648 219.794 549.633 219.732C549.618 219.67 549.59 219.611 549.551 219.56C549.513 219.508 549.464 219.465 549.409 219.433C549.353 219.401 549.292 219.381 549.228 219.373C541.291 218.211 533.263 217.794 525.249 218.127C527.896 213.534 530.465 209.563 532.957 206.059C535.293 205.748 545.648 204.424 554.445 205.748C554.508 205.762 554.573 205.763 554.635 205.75C554.698 205.738 554.758 205.713 554.811 205.677C554.864 205.641 554.91 205.595 554.944 205.541C554.979 205.487 555.002 205.426 555.013 205.363C555.023 205.3 555.021 205.235 555.006 205.173C554.99 205.11 554.963 205.052 554.924 205.001C554.886 204.949 554.837 204.906 554.782 204.874C554.726 204.842 554.665 204.822 554.601 204.814C546.582 203.568 537.161 204.503 533.736 204.97C534.748 203.57 535.76 202.247 536.772 200.999C542.579 199.557 548.54 198.825 554.523 198.819C554.647 198.819 554.766 198.77 554.853 198.683C554.941 198.595 554.99 198.476 554.99 198.352C554.99 198.228 554.941 198.11 554.853 198.022C554.766 197.935 554.647 197.885 554.523 197.885C548.859 197.848 543.212 198.501 537.706 199.831C545.647 189.943 551.406 185.973 551.487 185.895C551.628 185.791 551.722 185.635 551.749 185.461C551.776 185.288 551.734 185.111 551.632 184.968C551.53 184.825 551.376 184.728 551.203 184.698C551.031 184.668 550.853 184.706 550.708 184.805C548.351 186.573 546.138 188.526 544.09 190.644C544.642 188.683 545.318 186.759 546.114 184.883C546.155 184.84 546.187 184.788 546.205 184.731C546.224 184.673 546.23 184.613 546.222 184.553C546.215 184.494 546.194 184.437 546.162 184.386C546.13 184.335 546.087 184.292 546.036 184.26C545.941 184.194 545.825 184.166 545.71 184.18C545.595 184.195 545.489 184.251 545.413 184.338C544.79 185.117 543.233 190.255 542.688 192.046C541.053 193.759 539.262 195.783 537.316 198.119L538.25 188.076C538.257 187.965 538.219 187.855 538.147 187.771C538.074 187.686 537.971 187.633 537.86 187.623C537.749 187.613 537.638 187.646 537.551 187.716C537.464 187.786 537.408 187.888 537.394 187.998L536.304 199.443C534.98 201.078 533.579 202.943 532.178 204.893L532.878 193.137C532.885 193.08 532.881 193.022 532.865 192.967C532.849 192.911 532.822 192.86 532.786 192.815C532.75 192.77 532.705 192.733 532.654 192.705C532.604 192.678 532.548 192.661 532.49 192.656C532.433 192.651 532.375 192.657 532.32 192.675C532.265 192.693 532.214 192.721 532.171 192.759C532.127 192.796 532.091 192.842 532.066 192.894C532.04 192.946 532.025 193.002 532.022 193.059L531.243 206.294C529.143 209.33 526.961 212.678 524.781 216.415L524.703 204.576C524.703 204.452 524.654 204.334 524.566 204.246C524.479 204.159 524.36 204.109 524.236 204.109C524.112 204.109 523.993 204.159 523.906 204.246C523.818 204.334 523.769 204.452 523.769 204.576L523.847 217.967C522.835 219.68 521.823 221.548 520.889 223.417L520.655 212.829C520.655 212.706 520.606 212.587 520.518 212.499C520.431 212.412 520.312 212.362 520.188 212.362C520.064 212.362 519.945 212.412 519.858 212.499C519.77 212.587 519.721 212.706 519.721 212.829L520.032 225.129C518.163 228.71 516.373 232.603 514.582 236.729L513.57 226.686C513.571 226.628 513.559 226.57 513.535 226.517C513.51 226.464 513.475 226.417 513.43 226.38C513.385 226.343 513.332 226.316 513.276 226.302C513.219 226.287 513.16 226.286 513.103 226.297C512.869 226.375 512.636 226.531 512.714 226.764L513.882 238.442C513.182 240.077 512.482 241.868 511.782 243.58L510.458 236.106C510.458 235.872 510.147 235.717 509.913 235.717C509.679 235.717 509.524 236.028 509.524 236.262L511.081 245.215C509.835 248.485 508.59 251.988 507.344 255.648L505.631 247.395C505.605 247.276 505.535 247.172 505.434 247.103C505.333 247.035 505.21 247.008 505.09 247.028C504.969 247.048 504.862 247.114 504.789 247.211C504.715 247.309 504.683 247.43 504.697 247.551L506.721 257.361C505.709 260.553 504.621 263.901 503.685 267.404L501.894 260.241C501.86 260.132 501.784 260.04 501.683 259.984C501.582 259.929 501.464 259.915 501.353 259.946C501.242 259.976 501.148 260.048 501.089 260.147C501.03 260.246 501.012 260.363 501.038 260.475L503.218 269.195C502.362 272.231 501.583 275.423 500.727 278.695L498.391 272.467C498.339 272.354 498.245 272.265 498.128 272.222C498.011 272.178 497.882 272.182 497.769 272.234C497.655 272.285 497.567 272.38 497.523 272.497C497.479 272.613 497.483 272.743 497.535 272.856L500.416 280.33C499.871 282.744 499.326 285.157 498.781 287.648L496.056 282.587C496.029 282.533 495.99 282.484 495.943 282.446C495.895 282.407 495.84 282.38 495.781 282.365C495.721 282.35 495.66 282.348 495.6 282.36C495.54 282.371 495.483 282.396 495.433 282.431C495.377 282.457 495.327 282.494 495.287 282.542C495.247 282.589 495.218 282.645 495.203 282.705C495.188 282.765 495.187 282.828 495.2 282.888C495.213 282.949 495.239 283.006 495.277 283.054L498.547 289.049C498.08 291.385 497.613 293.72 497.147 296.134L495.193 292.938C495.131 292.835 495.031 292.761 494.914 292.731C494.797 292.702 494.673 292.72 494.57 292.782C494.467 292.844 494.392 292.945 494.363 293.062C494.334 293.178 494.352 293.302 494.414 293.405L496.905 297.453C496.593 299.244 496.282 301.112 495.971 302.903L493.48 300.645C493.397 300.563 493.285 300.516 493.169 300.516C493.052 300.516 492.94 300.563 492.857 300.645C492.774 300.728 492.728 300.84 492.728 300.957C492.728 301.074 492.774 301.186 492.857 301.268L495.815 303.915C495.581 305.472 495.348 306.951 495.115 308.508C495.582 308.508 496.049 308.586 496.515 308.586C496.621 307.099 496.804 305.619 497.064 304.15V304.15Z" fill="white"/>
<path fill-rule="evenodd" clip-rule="evenodd" d="M185.377 358.872C176.19 351.086 158.05 338.941 127.297 330.221C78.7154 316.441 37.9974 291.838 46.6394 268.404C55.1254 245.437 126.439 266.068 202.428 345.481C197.206 350.503 191.494 354.989 185.377 358.872V358.872Z" fill="#8896CA"/>
<path fill-rule="evenodd" clip-rule="evenodd" d="M191.29 348.206C188.474 348.869 185.79 350.001 183.349 351.554C183.288 351.595 183.219 351.624 183.147 351.638C183.075 351.652 183 351.652 182.928 351.638C182.856 351.623 182.787 351.595 182.726 351.554C182.664 351.513 182.612 351.46 182.571 351.399C182.53 351.337 182.502 351.269 182.487 351.196C182.473 351.124 182.473 351.05 182.488 350.977C182.502 350.905 182.53 350.836 182.571 350.775C182.612 350.714 182.665 350.661 182.726 350.62C185.086 349.125 187.658 347.996 190.356 347.272C189.032 345.948 187.709 344.703 186.385 343.457C184.516 343.924 178.522 345.403 176.342 346.104C176.2 346.14 176.048 346.12 175.92 346.046C175.793 345.972 175.698 345.852 175.658 345.71C175.617 345.568 175.634 345.416 175.704 345.286C175.773 345.156 175.891 345.059 176.031 345.014C178.055 344.314 183.116 343.068 185.452 342.523C183.038 340.187 180.552 337.93 178.134 335.823C173.667 337.139 169.274 338.698 164.976 340.494C164.665 340.572 164.353 340.494 164.276 340.183C164.199 339.872 164.276 339.56 164.587 339.483C169.959 337.225 174.942 335.668 177.2 334.967C174.787 332.787 172.373 330.685 169.959 328.661C163.571 330.548 157.283 332.757 151.118 335.279C150.807 335.357 150.495 335.279 150.418 334.968C150.341 334.657 150.418 334.345 150.729 334.268C156.682 331.79 162.764 329.633 168.947 327.806C165.833 325.159 162.719 322.668 159.682 320.254C157.113 320.877 146.369 323.446 139.128 328.117C139.067 328.158 138.998 328.187 138.926 328.201C138.854 328.215 138.779 328.215 138.707 328.201C138.635 328.186 138.566 328.158 138.505 328.117C138.443 328.076 138.391 328.023 138.35 327.962C138.309 327.9 138.281 327.832 138.266 327.759C138.252 327.687 138.252 327.613 138.266 327.54C138.281 327.468 138.309 327.399 138.35 327.338C138.391 327.277 138.444 327.224 138.505 327.183C145.278 322.823 154.933 320.176 158.592 319.32C154.855 316.362 151.192 313.637 147.614 311.067C144.188 312.235 130.408 317.062 125.114 323.524C125.069 323.582 125.013 323.63 124.948 323.666C124.884 323.702 124.813 323.724 124.74 323.732C124.667 323.741 124.593 323.734 124.522 323.713C124.452 323.692 124.386 323.657 124.329 323.611C124.272 323.564 124.225 323.507 124.191 323.442C124.156 323.377 124.135 323.306 124.129 323.232C124.122 323.159 124.13 323.085 124.152 323.015C124.175 322.945 124.211 322.88 124.258 322.824C129.396 316.596 142.087 311.846 146.525 310.289C142.71 307.564 138.973 305.073 135.392 302.737C127.864 306.76 120.813 311.618 114.371 317.218C114.264 317.312 114.125 317.364 113.982 317.364C113.839 317.364 113.7 317.312 113.592 317.218C113.543 317.164 113.505 317.099 113.482 317.029C113.459 316.959 113.45 316.885 113.458 316.811C113.465 316.738 113.488 316.667 113.524 316.603C113.561 316.538 113.611 316.483 113.67 316.439C120.029 310.921 126.974 306.118 134.38 302.114C132.2 300.714 130.098 299.467 128.074 298.221C125.738 299.389 116.006 304.527 104.094 314.96C104.038 315.008 103.974 315.044 103.903 315.066C103.833 315.089 103.759 315.097 103.686 315.09C103.613 315.083 103.542 315.062 103.477 315.028C103.412 314.993 103.354 314.946 103.308 314.889C103.261 314.832 103.226 314.767 103.206 314.696C103.185 314.626 103.178 314.552 103.186 314.479C103.194 314.405 103.217 314.335 103.253 314.27C103.288 314.206 103.337 314.15 103.394 314.104C110.631 307.733 118.544 302.172 126.99 297.522C122.09 294.641 117.336 292.072 112.82 289.736C110.02 291.605 95.7705 301.103 88.9965 308.577C88.8923 308.676 88.7536 308.731 88.6098 308.729C88.466 308.727 88.3286 308.669 88.2269 308.568C88.1252 308.466 88.0673 308.329 88.0655 308.185C88.0638 308.041 88.1183 307.902 88.2175 307.798C94.7575 300.635 107.917 291.682 111.729 289.113C109.082 287.789 106.513 286.622 104.021 285.532C95.8211 291.027 88.1572 297.283 81.1315 304.217C81.0273 304.316 80.8886 304.371 80.7448 304.369C80.601 304.367 80.4635 304.309 80.3619 304.208C80.2602 304.106 80.2023 303.969 80.2005 303.825C80.1988 303.681 80.2533 303.542 80.3525 303.438C87.2253 296.699 94.6762 290.575 102.619 285.138C97.3922 282.791 92.0379 280.737 86.5815 278.987C84.1675 280.311 73.1125 286.461 65.6385 294.013C65.5343 294.112 65.3956 294.167 65.2518 294.165C65.108 294.163 64.9706 294.105 64.8689 294.004C64.7672 293.902 64.7093 293.765 64.7075 293.621C64.7058 293.477 64.7603 293.338 64.8595 293.234C71.7105 286.305 81.5205 280.544 85.1015 278.519C83.0775 277.896 81.2085 277.273 79.3405 276.806C72.6758 279.503 66.3939 283.063 60.6555 287.394C60.5416 287.484 60.3973 287.525 60.2534 287.509C60.1095 287.493 59.9777 287.421 59.886 287.309C59.7944 287.197 59.7504 287.054 59.7634 286.91C59.7763 286.765 59.8453 286.632 59.9555 286.538C65.4217 282.512 71.3259 279.116 77.5555 276.417C62.8405 272.524 54.4325 272.758 54.3555 272.758C54.2481 272.763 54.1408 272.747 54.0397 272.711C53.9385 272.675 53.8455 272.619 53.766 272.546C53.6054 272.4 53.5093 272.196 53.499 271.98C53.4886 271.763 53.5648 271.551 53.7108 271.39C53.8568 271.23 54.0607 271.134 54.2775 271.123C57.7995 271.165 61.3132 271.478 64.7875 272.057C62.8486 270.56 60.8205 269.182 58.7145 267.931C58.5739 267.887 58.4563 267.789 58.3866 267.659C58.3169 267.529 58.3005 267.377 58.3409 267.235C58.3814 267.093 58.4755 266.973 58.6033 266.899C58.7311 266.826 58.8825 266.805 59.0255 266.841C60.1155 267.152 65.3315 271.041 67.1255 272.369C69.9255 272.836 73.0425 273.537 76.6255 274.393L68.6845 265.362C68.6347 265.308 68.597 265.243 68.5738 265.173C68.5505 265.103 68.5423 265.029 68.5497 264.955C68.5571 264.882 68.5798 264.811 68.6165 264.747C68.6531 264.682 68.7029 264.627 68.7625 264.583C68.8704 264.489 69.0087 264.437 69.152 264.437C69.2952 264.437 69.4336 264.489 69.5415 264.583L78.7285 274.86C81.1425 275.56 83.7895 276.339 86.5915 277.196L77.5605 266.374C77.476 266.257 77.4373 266.113 77.4517 265.97C77.466 265.826 77.5325 265.693 77.6385 265.595C77.7562 265.513 77.8995 265.475 78.0424 265.49C78.1854 265.504 78.3185 265.569 78.4175 265.673L88.5385 277.896C92.7385 279.296 97.1805 281.01 102.007 283.112L93.6765 271.589C93.6288 271.533 93.5927 271.468 93.5704 271.398C93.5481 271.328 93.54 271.254 93.5466 271.181C93.5532 271.108 93.5744 271.036 93.6088 270.971C93.6433 270.906 93.6904 270.849 93.7473 270.802C93.8043 270.756 93.8699 270.721 93.9405 270.7C94.011 270.679 94.085 270.673 94.1581 270.681C94.2312 270.689 94.302 270.712 94.3663 270.747C94.4306 270.783 94.4871 270.831 94.5325 270.889L104.032 283.889C106.212 284.901 108.47 285.913 110.805 287.003L103.487 276.57C103.405 276.446 103.375 276.295 103.404 276.149C103.433 276.003 103.519 275.874 103.643 275.792C103.767 275.709 103.918 275.679 104.064 275.708C104.21 275.737 104.339 275.823 104.421 275.947L112.829 288.015C117.189 290.195 121.705 292.609 126.376 295.333L120.225 284.9C120.185 284.839 120.156 284.77 120.142 284.698C120.127 284.625 120.128 284.551 120.142 284.479C120.156 284.406 120.185 284.338 120.226 284.276C120.267 284.215 120.32 284.163 120.381 284.122C120.442 284.081 120.511 284.052 120.583 284.038C120.656 284.024 120.73 284.024 120.802 284.038C120.875 284.053 120.943 284.081 121.005 284.122C121.066 284.163 121.119 284.216 121.159 284.277L128.309 296.431C130.178 297.521 132.046 298.689 133.992 299.931L129.944 291.831C129.88 291.695 129.868 291.541 129.911 291.396C129.954 291.252 130.05 291.13 130.178 291.052C130.239 291.017 130.306 290.995 130.375 290.988C130.445 290.981 130.515 290.989 130.581 291.011C130.648 291.033 130.708 291.069 130.76 291.116C130.811 291.164 130.851 291.222 130.878 291.286L135.778 301.018C139.359 303.276 143.019 305.767 146.756 308.418L142.556 299.231C142.531 299.165 142.519 299.094 142.521 299.023C142.522 298.952 142.538 298.881 142.567 298.816C142.596 298.751 142.638 298.693 142.689 298.644C142.741 298.595 142.802 298.556 142.868 298.531C142.934 298.505 143.005 298.493 143.076 298.495C143.148 298.497 143.218 298.512 143.283 298.541C143.348 298.57 143.407 298.612 143.456 298.663C143.505 298.715 143.543 298.776 143.568 298.842L148.629 309.742C151.899 312.078 155.329 314.569 158.672 317.294L155.324 309.041C155.246 308.73 155.324 308.418 155.635 308.341C155.946 308.264 156.258 308.341 156.335 308.652L160.461 318.695C163.497 321.031 166.534 323.522 169.57 326.095L167.47 318.387C167.434 318.244 167.455 318.093 167.529 317.965C167.602 317.837 167.723 317.743 167.865 317.703C168.006 317.662 168.158 317.679 168.288 317.748C168.418 317.818 168.516 317.936 168.56 318.076L171.129 327.341C173.387 329.21 175.645 331.234 177.902 333.258L176.968 326.485C176.954 326.344 176.995 326.202 177.082 326.09C177.17 325.978 177.298 325.904 177.439 325.884C177.579 325.864 177.723 325.899 177.838 325.982C177.954 326.065 178.033 326.189 178.058 326.329L179.226 334.429C181.328 336.296 183.43 338.242 185.532 340.268L185.143 335.83C185.13 335.757 185.131 335.682 185.148 335.61C185.164 335.537 185.195 335.469 185.238 335.409C185.281 335.348 185.336 335.298 185.4 335.259C185.463 335.221 185.534 335.195 185.607 335.185C185.681 335.174 185.756 335.179 185.827 335.198C185.899 335.217 185.966 335.25 186.025 335.296C186.083 335.342 186.132 335.399 186.168 335.464C186.204 335.529 186.226 335.6 186.233 335.674L186.7 341.357C188.257 342.836 189.892 344.393 191.527 346.028L192.306 342.057C192.322 341.991 192.35 341.928 192.39 341.872C192.429 341.817 192.48 341.77 192.537 341.734C192.595 341.698 192.66 341.673 192.727 341.662C192.794 341.651 192.863 341.653 192.929 341.668C192.996 341.684 193.059 341.712 193.114 341.751C193.17 341.791 193.217 341.841 193.253 341.899C193.289 341.957 193.314 342.021 193.325 342.089C193.336 342.156 193.334 342.225 193.318 342.291L192.384 346.962L196.355 350.933C195.966 351.322 195.499 351.633 195.109 352.023L191.29 348.206Z" fill="white"/>
<path d="M434.547 126.774C434.547 126.774 396.553 137.596 384.719 142.345C384.719 142.345 405.506 145.381 405.819 152.622C406.132 159.863 501.737 198.635 501.737 198.635C501.737 198.635 517.152 196.611 525.094 192.095C525.094 192.095 513.883 153.323 512.794 144.995C511.782 136.742 506.566 138.066 503.841 137.054C501.116 136.042 486.168 132.071 482.664 130.981C479.16 129.891 468.264 125.687 464.835 126.621C461.485 127.787 434.547 126.774 434.547 126.774Z" fill="#F2A2C8"/>
<path fill-rule="evenodd" clip-rule="evenodd" d="M196.309 363.855C190.548 361.364 180.582 358.327 166.257 358.483C141.966 358.717 119.157 352.255 118.843 339.019C118.454 326.251 152.943 325.861 200.202 353.419L196.309 363.852V363.855Z" fill="#D0D3EA"/>
<path fill-rule="evenodd" clip-rule="evenodd" d="M125.539 339.875C125.325 339.902 125.108 339.843 124.937 339.711C124.765 339.58 124.652 339.386 124.621 339.172C124.591 338.958 124.645 338.741 124.773 338.567C124.901 338.392 125.092 338.275 125.305 338.24C127.733 337.943 130.177 337.787 132.623 337.773L128.341 335.749C128.217 335.687 128.123 335.579 128.079 335.447C128.036 335.316 128.046 335.173 128.108 335.049C128.17 334.925 128.278 334.831 128.41 334.787C128.541 334.743 128.684 334.753 128.808 334.815L135.192 337.851C137.372 337.851 139.863 338.007 142.592 338.24L137.921 334.97C137.797 334.888 137.711 334.759 137.682 334.613C137.653 334.467 137.683 334.316 137.766 334.192C137.848 334.068 137.977 333.982 138.123 333.953C138.269 333.924 138.42 333.954 138.544 334.036L144.85 338.396C147.731 338.707 150.845 339.096 154.115 339.72L150.144 336.762C150.086 336.717 150.038 336.66 150.002 336.596C149.967 336.532 149.944 336.461 149.936 336.388C149.928 336.315 149.934 336.241 149.955 336.17C149.976 336.1 150.011 336.034 150.057 335.977C150.104 335.92 150.161 335.873 150.226 335.839C150.291 335.804 150.363 335.783 150.436 335.776C150.509 335.77 150.583 335.778 150.653 335.8C150.723 335.822 150.788 335.859 150.844 335.906L156.605 340.266C160.341 341.018 164.032 341.98 167.66 343.147L164.234 339.877C164.181 339.827 164.138 339.766 164.109 339.698C164.08 339.631 164.064 339.558 164.063 339.485C164.062 339.411 164.076 339.339 164.104 339.27C164.132 339.202 164.173 339.141 164.225 339.089C164.277 339.037 164.338 338.996 164.406 338.968C164.475 338.94 164.547 338.926 164.621 338.927C164.694 338.928 164.767 338.944 164.834 338.973C164.902 339.002 164.963 339.045 165.013 339.098L170.151 343.925C173.81 345.171 177.551 346.572 181.44 348.285L179.883 345.949C179.801 345.825 179.771 345.674 179.8 345.528C179.829 345.382 179.915 345.253 180.039 345.171C180.163 345.088 180.314 345.058 180.46 345.087C180.606 345.116 180.735 345.202 180.817 345.326L183.386 349.141C186.344 350.541 189.303 352.022 192.339 353.734L190.86 351.32C190.778 351.196 190.748 351.045 190.777 350.899C190.806 350.753 190.892 350.624 191.016 350.542C191.14 350.459 191.291 350.429 191.437 350.458C191.583 350.487 191.712 350.573 191.794 350.697L194.363 354.823C195.842 355.679 197.321 356.614 198.801 357.548L198.256 359.105C196.777 358.171 195.298 357.236 193.818 356.38C192.494 356.691 189.302 357.47 188.057 358.326C188.001 358.374 187.936 358.41 187.866 358.432C187.796 358.455 187.722 358.463 187.649 358.456C187.576 358.449 187.504 358.428 187.439 358.394C187.374 358.359 187.317 358.312 187.27 358.255C187.224 358.198 187.189 358.133 187.168 358.062C187.147 357.992 187.141 357.918 187.149 357.845C187.157 357.771 187.18 357.701 187.215 357.636C187.251 357.572 187.299 357.516 187.357 357.47C188.938 356.59 190.645 355.96 192.418 355.601C191.25 354.901 190.082 354.277 188.918 353.655C186.639 354.348 184.484 355.399 182.534 356.769C182.42 356.859 182.276 356.9 182.132 356.884C181.988 356.868 181.856 356.796 181.765 356.684C181.673 356.572 181.629 356.429 181.642 356.285C181.655 356.14 181.724 356.007 181.834 355.913C183.611 354.67 185.549 353.674 187.595 352.954C185.181 351.708 182.846 350.618 180.51 349.528C178.797 350.54 173.425 353.888 171.479 356.068C171.38 356.172 171.247 356.237 171.104 356.252C170.961 356.266 170.818 356.229 170.7 356.146C170.594 356.048 170.528 355.915 170.513 355.772C170.499 355.628 170.538 355.484 170.622 355.367C172.491 353.343 177.084 350.384 179.264 349.061C176.773 347.971 174.364 347.037 171.946 346.18C168.05 348.335 164.462 351.006 161.28 354.121C161.176 354.22 161.037 354.275 160.893 354.273C160.75 354.271 160.612 354.214 160.511 354.112C160.409 354.01 160.351 353.873 160.349 353.729C160.347 353.585 160.402 353.446 160.501 353.342C163.552 350.374 166.95 347.786 170.622 345.634L167.122 344.466C162.332 346.857 157.946 349.983 154.122 353.731C154.018 353.83 153.879 353.885 153.735 353.883C153.592 353.881 153.454 353.824 153.353 353.722C153.251 353.62 153.193 353.483 153.191 353.339C153.19 353.195 153.244 353.056 153.343 352.952C156.999 349.422 161.141 346.433 165.643 344.076C161.786 342.902 157.86 341.966 153.887 341.276C152.018 342.911 144.7 349.139 141.742 353.032C141.648 353.142 141.515 353.211 141.371 353.224C141.227 353.237 141.083 353.193 140.971 353.102C140.859 353.01 140.788 352.878 140.772 352.734C140.756 352.59 140.797 352.446 140.886 352.332C143.686 348.751 149.917 343.223 152.486 340.965C149.761 340.498 147.114 340.109 144.7 339.875C143.065 341.588 136.992 347.894 135.591 349.529C135.497 349.639 135.364 349.708 135.22 349.721C135.076 349.734 134.932 349.69 134.82 349.599C134.708 349.507 134.637 349.375 134.621 349.231C134.605 349.087 134.646 348.943 134.735 348.829C135.981 347.35 141.119 341.978 143.299 339.72C140.53 339.451 137.75 339.321 134.968 339.331C133.489 341.044 129.985 345.17 129.207 346.26C129.164 346.321 129.109 346.371 129.045 346.408C128.981 346.446 128.909 346.469 128.835 346.476C128.762 346.483 128.687 346.475 128.617 346.451C128.547 346.427 128.482 346.389 128.428 346.338C128.369 346.295 128.319 346.239 128.282 346.175C128.246 346.111 128.223 346.04 128.215 345.966C128.208 345.893 128.216 345.818 128.239 345.748C128.263 345.678 128.3 345.614 128.35 345.559C129.05 344.625 131.85 341.277 133.566 339.253C128.42 339.486 125.539 339.875 125.539 339.875Z" fill="#F3FAFD"/>
<path d="M432.979 129.996C432.788 129.878 432.576 129.798 432.355 129.762C432.978 130.151 433.212 130.307 432.979 129.996Z" fill="#3176A9"/>
<path d="M430.253 153.971C430.253 153.971 413.047 150.156 412.268 147.976C411.489 145.796 410.868 139.801 405.568 139.023C400.668 138.323 427.523 129.447 432.268 129.758C431.645 129.369 430.633 128.746 429.468 127.967C419.035 131.003 393.499 138.478 384.156 142.292C384.156 142.292 404.943 145.328 405.256 152.569C405.256 153.192 406.112 154.126 407.514 155.216C415.115 155.84 422.766 155.421 430.253 153.971V153.971Z" fill="#E096BE"/>
<path d="M507.653 154.813H197.009V364.945H507.653V154.813Z" fill="#FDC153"/>
<path d="M197.009 154.813L342.833 287.868C345.445 290.236 348.845 291.548 352.371 291.548C355.897 291.548 359.296 290.236 361.908 287.868L507.731 154.813H197.009Z" fill="#E09733"/>
<path d="M507.731 364.945L352.409 202.772L507.731 351.087V364.945Z" fill="#E09733"/>
<path d="M197.009 364.945L352.409 202.772L197.009 351.087V364.945Z" fill="#E09733"/>
<path d="M197.009 154.813L340.653 276.113C343.935 278.902 348.102 280.434 352.409 280.434C356.716 280.434 360.883 278.902 364.165 276.113L507.731 154.813H197.009Z" fill="#FFC755"/>
<path opacity="0.2" d="M468.931 186.278C468.931 186.278 466.206 188.458 461.145 184.487C461.145 184.487 465.271 190.949 466.361 191.187C466.361 191.187 464.415 192.978 461.461 190.253C460.066 189.054 458.789 187.724 457.646 186.282L462.084 195.002C462.084 195.002 458.97 196.092 454.843 188.462L455.077 184.803L457.101 180.677L459.125 180.366L468.931 186.278Z" fill="#9A958D"/>
<path d="M360.704 260.761C362.253 256.108 359.737 251.081 355.085 249.532C350.433 247.983 345.406 250.499 343.857 255.151C342.308 259.803 344.823 264.83 349.476 266.379C354.128 267.928 359.155 265.413 360.704 260.761Z" fill="#E09733"/>
<path d="M124.026 152.324C124.026 152.324 101.136 155.205 114.917 180.43C127.607 203.709 211.458 306.245 227.963 299.238C244.468 292.231 236.138 308.269 236.138 308.269C236.138 308.269 226.406 324.463 215.584 319.714C204.762 314.965 93.6621 193.042 93.6621 193.042L82.9961 149.054L124.026 152.324Z" fill="#D73633"/>
<path opacity="0.2" fill-rule="evenodd" clip-rule="evenodd" d="M359.381 318.154C359.381 318.154 371.137 332.402 352.296 341.978C352.296 341.978 333.533 362.378 313.68 365.335L294.528 364.868L359.381 318.154Z" fill="#9A958D"/>
<path d="M282.073 364.79C282.073 364.79 326.451 371.563 356.737 327.497L323.648 283.664L318.51 276.891L285.422 233.058C234.738 250.186 229.131 294.72 229.131 294.72C229.131 294.72 226.331 350.465 154.156 243.413L118.732 270.195C118.654 270.117 184.987 360.741 282.073 364.79Z" fill="#D73633"/>
<path d="M270.474 253.612C283.632 263.422 294.999 276.424 302.006 291.372C308.935 306.087 310.337 317.372 306.906 332.246C304.882 341.277 295.617 367.203 281.992 364.868C281.992 364.868 326.37 371.641 356.656 327.575L285.267 233.136C275.904 236.226 267.098 240.8 259.185 246.683C263.169 248.611 266.951 250.932 270.474 253.612Z" fill="#871B17"/>
<path d="M348.641 339.175C349.332 338.861 349.985 338.469 350.587 338.007L356.426 333.569C358.752 331.809 360.288 329.2 360.696 326.311C361.105 323.423 360.353 320.49 358.605 318.154L294.765 233.603C293.005 231.276 290.395 229.741 287.507 229.332C284.618 228.924 281.686 229.676 279.35 231.423L273.51 235.861C272.91 236.319 272.362 236.841 271.875 237.418L348.641 339.175Z" fill="#751414"/>
<path d="M321.234 280.784C325.983 290.049 331.277 300.637 331.9 311.226C332.068 313.092 332.042 314.971 331.822 316.832L348.717 339.177C349.408 338.863 350.061 338.471 350.663 338.009L356.502 333.571C358.829 331.811 360.364 329.202 360.773 326.313C361.181 323.425 360.43 320.492 358.682 318.156L294.84 233.605C293.08 231.278 290.471 229.743 287.583 229.334C284.694 228.926 281.761 229.677 279.425 231.425L274.988 234.85C282.388 238.12 288.924 243.258 295.153 248.319C306.043 257.176 314.932 268.241 321.234 280.784Z" fill="#751414"/>
<path d="M348.094 338.396L272.497 238.352C270.94 239.131 269.461 239.987 267.981 240.766L344.513 342.052C345.681 340.888 346.849 339.72 348.094 338.396Z" fill="#EA5454"/>
<path d="M239.175 298.613L251.321 314.729C255.837 300.715 264.167 282.652 279.505 271.441C274.202 266.044 267.84 261.803 260.819 258.984C242.445 270.662 239.175 298.613 239.175 298.613Z" fill="#EA5454"/>
<path d="M68.7493 81.2631C68.7493 81.2631 74.3553 36.7291 125.039 19.6011L158.128 63.4341L163.266 70.2071L196.355 114.04C166.069 158.184 121.691 151.333 121.691 151.333C121.691 151.333 71.6303 144.482 154.858 243.203L119.434 269.985C119.433 270.063 46.0933 175.779 68.7493 81.2631Z" fill="#D73633"/>
<path d="M172.532 122.76C166.693 107.422 157.272 92.9409 144.893 82.1189C132.67 71.4529 122.158 67.019 106.898 66.159C97.6335 65.692 70.2285 67.4829 68.7495 81.1849C68.7495 81.1849 74.3555 36.6519 125.04 19.5229L196.434 113.962C190.918 122.145 184.107 129.376 176.269 135.372C175.343 131.08 174.093 126.864 172.532 122.76V122.76Z" fill="#751414"/>
<path d="M111.57 24.2707C112.057 23.6939 112.605 23.1718 113.205 22.7137L119.044 18.2757C120.198 17.4015 121.512 16.7641 122.913 16.4004C124.314 16.0367 125.773 15.9538 127.206 16.1564C128.639 16.359 130.017 16.8433 131.262 17.5811C132.507 18.319 133.594 19.2959 134.459 20.4557L198.301 105.01C199.176 106.163 199.813 107.478 200.177 108.879C200.54 110.279 200.623 111.738 200.421 113.171C200.218 114.604 199.734 115.983 198.996 117.228C198.258 118.472 197.281 119.559 196.121 120.425L190.282 124.863C189.68 125.325 189.027 125.717 188.336 126.031L111.57 24.2707Z" fill="#751414"/>
<path d="M160.23 66.5479C152.6 59.4629 143.88 51.5219 133.915 47.9409C132.156 47.2743 130.328 46.8048 128.465 46.5409L111.492 24.1159C111.979 23.5391 112.527 23.017 113.127 22.5589L118.966 18.1209C120.119 17.2467 121.434 16.6094 122.835 16.2456C124.236 15.8819 125.695 15.799 127.128 16.0016C128.56 16.2043 129.939 16.6885 131.184 17.4263C132.429 18.1642 133.516 19.1412 134.381 20.3009L198.223 104.855C199.097 106.008 199.735 107.323 200.098 108.724C200.462 110.124 200.545 111.583 200.342 113.016C200.14 114.449 199.656 115.828 198.918 117.073C198.18 118.318 197.203 119.404 196.043 120.27L191.683 123.618C190.593 115.599 187.401 107.969 184.209 100.573C178.814 87.6069 170.626 75.9897 160.23 66.5479V66.5479Z" fill="#751414"/>
<path d="M112.115 24.9727L187.715 125.017C186.547 126.263 185.301 127.508 184.134 128.676L107.599 27.3867C109.078 26.6077 110.558 25.7517 112.115 24.9727Z" fill="#EA5454"/>
<path d="M120.678 140.666L108.533 124.55C123.248 124.083 142.945 120.969 157.816 109.29C161.531 115.893 163.887 123.173 164.745 130.7C148.473 145.104 120.678 140.666 120.678 140.666Z" fill="#EA5454"/>
<path d="M344.257 358.25C344.957 358.95 345.191 360.741 342.388 363.233C339.507 365.724 333.357 367.204 330.788 367.515C328.219 367.826 326.588 367.671 323.236 369.615C319.966 371.561 314.049 373.196 311.791 372.34C310.935 371.873 310.857 370.24 310.857 370.24L344.257 358.25Z" fill="#52C5D7"/>
<path d="M308.989 358.717C309.3 361.286 309.3 367.67 310.78 370.24C313.972 371.486 319.344 369.851 323.003 367.44C326.662 365.104 330.166 366.194 335.226 364.793C340.209 363.393 343.868 360.667 344.179 358.253C344.49 355.606 335.304 356.853 328.919 357.007C324.937 357.241 320.952 356.603 317.241 355.138L308.989 358.717Z" fill="#1294A9"/>
<path d="M321.057 359.807C321.057 359.807 321.135 356.07 322.303 354.513Z" fill="#1294A9"/>
<path d="M321.057 359.807C321.057 359.807 321.135 356.07 322.303 354.513" stroke="#AFDFE2" stroke-width="0.525" stroke-miterlimit="10" stroke-linecap="round"/>
<path d="M326.117 360.041C326.117 360.041 326.195 356.304 327.363 354.747Z" fill="#1294A9"/>
<path d="M326.117 360.041C326.117 360.041 326.195 356.304 327.363 354.747" stroke="#AFDFE2" stroke-width="0.525" stroke-miterlimit="10" stroke-linecap="round"/>
<path d="M331.178 360.352C331.178 360.352 331.256 356.615 332.424 355.058Z" fill="#1294A9"/>
<path d="M331.178 360.352C331.178 360.352 331.256 356.615 332.424 355.058" stroke="#AFDFE2" stroke-width="0.525" stroke-miterlimit="10" stroke-linecap="round"/>
<path d="M303.928 352.411L309.066 358.717C309.71 358.711 310.347 358.844 310.935 359.106C311.558 359.495 312.881 361.13 313.66 360.897C316.852 359.963 317.241 355.214 317.241 355.214L311.791 346.338L303.928 352.411Z" fill="#A86B48"/>
<path d="M254.663 263.842C254.663 263.842 226.246 271.942 217.214 265.633C208.182 259.324 211.764 271.005 211.764 271.005C211.764 271.005 211.998 274.898 214.1 275.365C216.2 275.91 226.79 274.586 234.576 275.365C242.362 276.144 245.709 276.922 246.876 275.521C248.043 274.12 254.663 263.842 254.663 263.842Z" fill="#3E3E3E"/>
<path opacity="0.2" d="M375.646 153.993C375.646 153.993 378.682 160.455 387.324 167.306C395.966 174.157 406.632 175.169 412.549 175.092C417.999 175.014 436.061 175.403 440.343 175.17C440.732 175.17 441.043 175.092 441.199 175.092C441.199 175.092 444.391 185.292 449.841 186.148C449.841 186.148 451.632 194.248 455.836 195.179L453.5 180.698L445.714 169.565L387.324 150.723L375.646 153.993Z" fill="#9A958D"/>
<path d="M168.928 181.101L157.717 193.714C157.717 193.714 160.676 218.083 175.39 219.329C190.183 220.653 203.184 215.981 203.184 215.203V188.809C203.184 188.809 194.62 188.653 195.084 185.461C195.633 181.957 168.928 181.101 168.928 181.101Z" fill="#A86B48"/>
<path d="M267.8 388.379C268.189 389.313 267.722 391.026 264.141 392.194C260.56 393.362 254.331 392.272 251.918 391.649C249.505 391.026 248.025 390.17 244.288 390.637C240.551 391.104 234.556 390.326 232.843 388.691C232.298 387.912 232.843 386.433 232.843 386.433L267.8 388.379Z" fill="#3DC0CB"/>
<path d="M235.568 375.144C234.868 377.635 232.376 383.397 232.768 386.355C235.182 388.769 240.709 389.314 244.991 388.535C249.191 387.756 251.998 390.17 257.214 390.871C262.275 391.571 266.714 390.482 267.88 388.38C269.204 386.122 260.406 383.631 254.411 381.295C250.688 379.943 247.292 377.821 244.445 375.067L235.568 375.144Z" fill="#1294A9"/>
<path d="M246.078 380.827C246.078 380.827 247.557 377.479 249.27 376.467Z" fill="#1294A9"/>
<path d="M246.078 380.827C246.078 380.827 247.557 377.479 249.27 376.467" stroke="#8EC8C5" stroke-width="0.525" stroke-miterlimit="10" stroke-linecap="round"/>
<path d="M250.594 383.007C250.594 383.007 252.073 379.659 253.786 378.647Z" fill="#1294A9"/>
<path d="M250.594 383.007C250.594 383.007 252.073 379.659 253.786 378.647" stroke="#8EC8C5" stroke-width="0.525" stroke-miterlimit="10" stroke-linecap="round"/>
<path d="M255.11 385.187C255.11 385.187 256.589 381.839 258.302 380.827Z" fill="#1294A9"/>
<path d="M255.11 385.187C255.11 385.187 256.589 381.839 258.302 380.827" stroke="#8EC8C5" stroke-width="0.525" stroke-miterlimit="10" stroke-linecap="round"/>
<path d="M236.347 365.023L235.568 375.066C236.168 375.297 236.703 375.672 237.125 376.156C237.514 376.779 238.059 378.725 238.916 378.803C242.186 379.192 244.366 375.066 244.366 375.066L246.312 366.035L236.347 365.023Z" fill="#A86B48"/>
<path d="M250.445 277.592C250.445 277.592 246.085 291.061 244.995 313.561C243.905 336.061 232.538 369.773 232.538 369.773C232.538 369.773 240.557 374.444 247.019 372.654C247.019 372.654 271.619 320.646 272.867 297.29C274.115 273.934 267.417 267.238 267.417 267.238H255.272L250.445 277.592Z" fill="#3E3E3E"/>
<path d="M195.099 185.437C195.099 185.437 190.428 200.619 173.066 190.887C172.324 190.502 171.485 190.339 170.652 190.42C169.328 190.498 169.873 198.206 170.029 199.14C170.185 200.074 170.652 204.434 170.652 204.434C168.863 203.276 167.414 201.664 166.452 199.763C165.199 197.192 164.976 194.24 165.829 191.51C166.218 187.695 168.629 185.982 168.71 184.503C168.783 177.028 195.099 185.437 195.099 185.437Z" fill="#7A4E34"/>
<path d="M188.243 140.031C188.243 140.031 201.323 151.398 200.7 165.801C200.077 180.204 192.759 192.895 185.207 192.895C177.733 192.895 162.473 183.786 161.15 165.101C159.827 146.416 176.409 137.384 188.243 140.031Z" fill="#A86B48"/>
<path opacity="0.28" fill-rule="evenodd" clip-rule="evenodd" d="M126.877 197.945L124.463 194.675C124.463 194.675 112.24 207.443 114.963 218.81C117.686 230.177 124.306 240.298 139.488 238.352C139.488 238.352 148.909 267.859 153.346 270.273C155.318 271.444 157.405 272.409 159.574 273.154C159.574 273.154 160.041 291.294 175.223 303.754C175.223 303.754 202.239 323.996 225.829 308.192L242.257 299.005C242.257 299.005 241.167 312.941 240.778 319.17C240.389 325.399 232.759 355.061 232.759 355.061L238.754 356.93L267.794 317.379C267.794 317.379 296.601 358.879 299.715 360.122L305.866 360.745V363.075L313.266 360.661L262.734 276.575L226.298 287.475L191.185 280.312L165.493 215.536L134.506 205.726L126.877 197.945Z" fill="black"/>
<path d="M259.693 267.237H255.411L250.511 277.592C250.511 277.592 246.151 291.061 245.061 313.561C244.049 336.061 232.604 369.773 232.604 369.773C233.553 370.313 234.542 370.781 235.562 371.173C239.533 368.215 251.6 323.525 252.846 302.738C253.532 290.651 255.835 278.711 259.693 267.237V267.237Z" fill="black"/>
<path opacity="0.2" d="M214.449 246.859C214.449 246.859 215.617 235.881 218.342 239.151C221.142 242.421 229.164 259.783 234.458 260.717C234.458 260.717 244.034 262.586 250.652 250.752C257.27 238.918 261.085 228.485 262.798 225.452C264.511 222.419 268.248 222.727 272.374 223.038C276.5 223.349 278.836 222.804 280.549 220.157C281.794 218.233 282.912 216.229 283.896 214.159L260.929 214.938C260.929 214.938 254.623 223.424 254.856 223.814C255.089 224.204 242.788 247.871 242.788 247.871L233.523 248.416L229.63 236.816L223.246 228.716L215.46 223.266L211.879 228.015L214.449 246.859Z" fill="#9A958D"/>
<path d="M223.688 239.626C223.688 239.626 232.488 254.263 233.731 255.509C235.21 257.066 243.774 242.274 243.774 242.274L240.815 238.926L236.067 228.882L223.688 239.626Z" fill="#A86B48"/>
<path d="M282.982 279.226C290.845 296.121 316.071 351.009 316.071 351.009C312.868 355.141 308.172 357.853 302.991 358.561C302.991 358.561 276.754 322.202 264.842 304.841C257.601 294.253 260.326 288.958 256.589 283.431C253.166 287.015 249.262 290.107 244.989 292.618C238.371 296.511 211.745 316.831 188.389 306.009C165.033 295.187 167.446 278.059 167.446 278.059L209.332 270.118C209.332 270.118 195.084 283.976 237.516 268.483C265.7 258.206 273.252 261.165 275.587 264.824C277.999 268.638 282.982 279.226 282.982 279.226Z" fill="#3E3E3E"/>
<path d="M256.731 283.431C260.546 288.959 257.743 294.175 264.984 304.841C276.896 322.203 303.133 358.561 303.133 358.561C304.086 358.454 305.025 358.245 305.933 357.938C305.544 358.016 286.703 324.227 280.474 316.597C274.245 308.967 262.881 294.876 262.492 290.046C262.181 285.219 257.354 280.003 257.354 280.003C257.354 280.003 232.596 300.245 205.891 302.815C185.181 304.761 178.953 285.215 177.162 276.344L167.586 278.135C167.586 278.135 165.172 295.263 188.529 306.085C211.808 316.907 238.512 296.509 245.129 292.694C249.379 290.117 253.278 287.004 256.731 283.431V283.431Z" fill="black"/>
<path d="M454.274 172.304C454.274 172.304 459.023 176.275 460.269 176.664C461.515 177.053 457.077 178.688 455.369 177.209C454.741 176.586 454.274 172.304 454.274 172.304Z" fill="#F7A964"/>
<path d="M458.285 180.755L466.304 191.032C466.304 191.032 464.747 192.511 461.788 189.475C460.003 187.533 458.412 185.421 457.039 183.169L462.1 194.847C462.1 194.847 460.231 195.392 457.9 191.733C456.723 189.972 455.682 188.124 454.786 186.205L455.798 195.236C454.598 194.529 453.646 193.469 453.073 192.2C452.561 191.165 452.194 190.065 451.983 188.93L451.204 184.959C449.258 183.48 444.976 182.078 442.64 172.58C442.64 172.58 422.787 171.334 413.678 171.568C404.491 171.724 395.693 169.855 385.572 163.082C375.372 156.382 375.217 153.272 375.217 152.182C375.217 151.092 377.475 147.511 379.343 145.798C381.211 144.085 384.481 140.27 395.926 140.971C396.035 140.967 396.143 140.994 396.237 141.049C396.237 141.049 400.363 141.672 402.855 143.774C404.801 145.409 406.592 148.912 405.113 150.781C405.113 150.781 417.025 152.572 422.163 155.53C427.301 158.488 444.196 165.34 446.61 165.573C448.323 165.729 453.695 171.724 456.81 175.461L458.834 178.03L459.223 178.497C460.002 179.431 468.799 186.205 468.799 186.205C468.799 186.205 465.37 188.073 458.285 180.755Z" fill="#FFB373"/>
<path d="M458.943 177.993L456.919 175.424C457.853 176.592 458.554 177.448 458.943 177.993Z" fill="#F7AFAB"/>
<path d="M459.335 199.316H459.179C459.222 199.274 459.249 199.219 459.257 199.16C459.263 199.22 459.291 199.276 459.335 199.316V199.316Z" fill="#F7AFAB"/>
<path d="M200.028 188.679C199.95 187.979 214.12 189.847 220.893 200.435C227.666 211.023 235.993 228.852 235.993 228.852C235.993 228.852 228.83 236.871 223.536 239.596L218.086 230.253C218.086 230.253 207.731 256.88 223.536 267.624C220.526 270.387 217.326 272.937 213.96 275.254C208.043 279.38 205.707 279.147 195.041 283.507C184.375 287.867 176.122 296.197 177.134 299.078C177.134 299.078 164.911 293.628 162.108 268.247C159.305 242.866 159.85 192.338 159.85 192.338C159.85 192.338 171.139 211.023 185.698 209.7C193.567 209.233 201.274 198.177 200.028 188.679Z" fill="#FFA8A8"/>
<path d="M167.063 267.468C167.063 267.468 166.44 280.392 172.513 286.698C176.406 290.747 195.013 283.74 195.013 283.74C195.013 283.74 176.951 291.915 177.106 299.311C177.106 299.311 170.021 296.197 165.194 282.806C160.367 269.415 162.158 255.634 162.158 255.634L167.063 267.468Z" fill="#F09393"/>
<path d="M200.011 188.497C200.011 188.497 200.322 199.163 194.016 205.158C186.464 212.321 180.936 209.907 173.462 206.326C173.462 206.326 168.401 202.978 166.377 200.487L167 202.978C167 202.978 177.666 216.213 189.89 210.997C198.921 207.104 201.88 199.241 200.634 188.263L200.011 188.497Z" fill="#F09393"/>
<path d="M170.338 237.274C170.338 237.274 173.919 239.999 181.861 238.442C181.861 238.442 174.231 242.101 170.338 241.011C166.365 239.999 170.338 237.274 170.338 237.274Z" fill="#F09393"/>
<path opacity="0.2" d="M168.373 185.263C169.22 188.568 169.613 191.973 169.541 195.384C169.541 195.384 170.787 205.427 172.811 217.106C174.835 228.785 178.183 247.781 179.273 251.44C182.465 262.184 177.482 269.74 173.667 271.84C169.774 273.94 163.079 274.409 163.079 274.409L161.366 263.586C161.366 263.586 162.766 188.455 168.373 185.263Z" fill="#9A958D"/>
<path d="M147.387 247.443C147.387 247.443 153.693 264.26 157.664 266.829C162.102 269.787 163.659 270.566 165.917 269.943C168.175 269.32 167.317 253.905 166.851 251.335C166.306 248.766 160.233 231.635 160.233 231.635L153.148 227.742L147.387 247.443Z" fill="#A86B48"/>
<path d="M165.76 269.866C158.909 269.087 150.422 250.246 150.345 247.444C150.189 244.563 158.753 237.556 158.753 237.556L158.987 230.471L151.357 233.819L147.386 247.444C147.386 247.444 153.692 264.261 157.663 266.83C162.101 269.788 163.658 270.567 165.916 269.944C165.927 269.944 165.937 269.943 165.946 269.939C165.956 269.935 165.965 269.929 165.972 269.922C165.979 269.915 165.985 269.906 165.989 269.896C165.993 269.887 165.995 269.877 165.994 269.866H165.76Z" fill="#7A4E34"/>
<path d="M185.719 142.648C185.719 142.648 174.352 164.993 163.219 169.508C159.019 171.221 168.591 184.378 168.591 184.378C168.815 187.03 168.038 189.671 166.411 191.778C163.997 194.578 161.195 193.958 157.302 195.671C151.696 198.162 146.013 204.313 145.935 211.242C145.857 217.003 149.983 223.154 149.983 223.154L148.893 229.927C148.893 229.927 127.95 241.987 119.46 222.995C111.986 206.334 130.671 193.955 135.498 189.828C140.398 185.702 148.266 180.719 152.471 161.099C156.676 141.479 164.694 133.227 176.918 132.37C189.142 131.513 200.197 140.701 201.443 150.9C202.767 161.1 200.587 165.77 200.587 165.77C200.587 165.77 196.308 147.631 185.719 142.648Z" fill="#510000"/>
<path d="M190.928 135.952C186.71 133.34 181.79 132.089 176.836 132.371C164.613 133.227 156.594 141.402 152.389 161.022C148.184 180.642 140.321 185.622 135.416 189.751C130.511 193.88 111.904 206.334 119.378 222.918C123.349 231.871 130.122 233.896 136.195 233.584C130.122 233.506 121.48 229.224 121.013 217.935C120.468 204.7 136.813 196.447 148.418 185.547C160.023 174.647 159.084 158.92 163.678 144.906C168.272 130.892 190.928 135.952 190.928 135.952Z" fill="url(#paint0_linear)"/>
<path d="M138.998 233.427C139.238 233.412 139.474 233.36 139.698 233.271C139.932 233.194 139.698 233.194 138.998 233.427Z" fill="url(#paint1_linear)"/>
<path d="M162.897 174.499H156.124V185.866H162.897V174.499Z" fill="#7A4E34"/>
<path d="M162.793 190.898C162.014 192.455 159.523 193.779 153.372 197.749C147.221 201.719 136.789 209.739 147.455 247.343C148.976 244.11 151.341 241.348 154.301 239.348C157.261 237.347 160.706 236.182 164.272 235.976C176.885 234.886 162.793 190.898 162.793 190.898Z" fill="#FFA8A8"/>
<path d="M475.416 128.74L469.966 127.183L466.852 148.593C471.328 142.799 474.273 135.972 475.416 128.74V128.74Z" fill="#E096BE"/>
<path d="M153.525 197.773C147.297 201.744 136.942 209.763 147.608 247.367C148.596 245.217 149.968 243.264 151.656 241.606C145.272 217.626 149.943 206.649 154.926 202.756C159.909 198.785 163.026 191 163.026 191C162.245 192.557 159.754 193.8 153.525 197.773Z" fill="#F09393"/>
<path d="M159.866 193.786C159.866 193.786 158.62 253.423 157.842 256.693C156.129 263.7 163.292 268.993 164.226 269.617C166.017 270.785 176.371 267.126 176.371 257.705C176.371 251.477 168.741 208.267 167.028 201.493C165.237 194.793 167.573 183.664 167.573 183.664L162.123 184.52C162.123 184.52 158.075 183.12 157.607 177.12C157.351 173.641 156.858 170.183 156.134 166.77C156.134 166.77 156.056 166.926 155.278 171.363C154.5 175.8 152.942 186.778 155.122 188.336C157.375 189.893 159.866 193.786 159.866 193.786Z" fill="#A86B48"/>
<path d="M471.979 94.7612C471.979 94.7612 471.979 107.841 470.655 109.861C469.409 111.885 462.324 92.5771 462.324 92.5771L471.979 94.7612Z" fill="url(#paint2_linear)"/>
<path d="M468.61 97.6089C468.61 97.6089 471.958 112.246 471.568 123.609C471.178 134.972 467.52 147.9 466.897 148.523C466.274 149.146 440.815 152.571 431.862 135.988C422.909 119.483 437.701 108.038 437.701 108.038L468.61 97.6089Z" fill="#FFB373"/>
<path d="M437.772 108.112C437.772 108.112 429.672 114.34 429.052 124.228C430.837 124.868 432.558 125.677 434.19 126.642C434.166 124.472 434.63 122.324 435.546 120.357C436.462 118.39 437.808 116.653 439.484 115.275C461.128 113.64 467.278 104.064 468.991 99.3151C468.757 98.2251 468.602 97.6021 468.602 97.6021L437.772 108.112Z" fill="#F7A964"/>
<path d="M432.011 134.893C431.633 134.627 431.27 134.341 430.921 134.037C431.232 134.66 431.544 135.361 431.855 136.061C432.693 137.647 433.741 139.114 434.969 140.421C434.113 139.565 432.011 134.893 432.011 134.893Z" fill="#F28C8C"/>
<path d="M432.315 124.667C432.315 124.667 428.189 119.684 425.697 121.942C423.205 124.2 423.676 133.309 431.77 136.109C431.77 136.109 437.765 135.022 432.315 124.667Z" fill="#FFB373"/>
<path d="M420.413 104.845C420.413 104.845 418.934 110.061 424.695 123.608C424.695 123.608 425.707 117.769 432.325 124.62C432.325 124.62 431.079 114.966 438.865 110.606C446.651 106.246 420.413 104.845 420.413 104.845Z" fill="url(#paint3_linear)"/>
<path d="M421.12 87.0949C421.12 87.0949 411.155 95.9709 422.21 107.805C433.265 119.717 479.51 108.973 475.541 77.1299C475.541 77.1299 471.103 83.1249 461.293 83.1249C451.484 83.2019 433.11 77.2069 421.12 87.0949Z" fill="#3E3E3E"/>
<path d="M432.312 124.667C432.312 124.667 428.186 119.684 425.694 121.942C423.202 124.2 423.673 133.309 431.767 136.109C426.473 133.462 425.694 125.521 427.329 123.886C428.886 122.329 432.857 125.91 433.012 126.066C432.842 125.571 432.607 125.1 432.312 124.667V124.667Z" fill="#F7A964"/>
<path d="M453.059 83.422C453.993 83.656 454.85 83.811 455.784 83.967C456.718 84.123 457.653 84.278 458.509 84.356C460.346 84.5371 462.196 84.5632 464.037 84.434C465.856 84.2967 467.642 83.8763 469.331 83.188C471.056 82.4784 472.58 81.3554 473.769 79.918C473.283 80.7293 472.68 81.464 471.978 82.098C471.25 82.7124 470.469 83.2596 469.642 83.733C467.908 84.568 466.033 85.0697 464.114 85.212C462.214 85.3415 460.306 85.2371 458.431 84.901C456.585 84.637 454.78 84.14 453.059 83.422V83.422Z" fill="#350000"/>
<path d="M449.881 198.368C449.881 198.368 444.12 191.05 443.575 191.439C443.03 191.828 443.341 193.853 443.575 194.939C443.808 196.11 448.402 198.601 449.881 198.368Z" fill="#F7A964"/>
<path d="M420.854 90.0059C420.513 90.9421 420.252 91.906 420.075 92.8869C419.981 93.3744 419.929 93.8693 419.919 94.3659C419.88 94.8581 419.88 95.3526 419.919 95.8448C419.934 97.7805 420.359 99.6911 421.165 101.451C421.352 101.891 421.587 102.309 421.865 102.697C421.977 102.915 422.107 103.124 422.254 103.32L422.721 103.865C423.032 104.254 423.266 104.644 423.577 105.033C423.888 105.422 424.277 105.733 424.589 106.123C424.914 106.499 425.28 106.839 425.679 107.135L426.847 108.069C427.626 108.614 428.482 109.159 429.26 109.782C428.404 109.315 427.469 108.848 426.613 108.382L425.367 107.526C424.945 107.258 424.553 106.945 424.199 106.592C422.661 105.283 421.414 103.665 420.54 101.843C419.692 99.9895 419.292 97.9625 419.372 95.9259C419.373 93.8608 419.882 91.8276 420.854 90.0059V90.0059Z" fill="#350000"/>
<path d="M439.037 110.547C440.984 110.236 442.852 109.846 444.643 109.379C446.52 108.926 448.367 108.354 450.171 107.666C453.762 106.37 457.207 104.7 460.448 102.683C463.675 100.65 466.52 98.0675 468.856 95.053C471.183 92.0096 472.901 88.5465 473.917 84.853C473.683 85.787 473.528 86.722 473.217 87.653L472.75 89.053L472.205 90.377C471.445 92.1705 470.478 93.8691 469.324 95.438C467.008 98.5847 464.131 101.277 460.838 103.379C457.563 105.463 454.03 107.111 450.328 108.279C446.672 109.497 442.88 110.258 439.037 110.547V110.547Z" fill="#350000"/>
<path d="M474.557 82.0332C474.458 83.1341 474.113 84.1985 473.545 85.1472C472.53 87.0981 471.126 88.8204 469.419 90.2082C469.03 90.5192 468.563 90.9082 468.095 91.2202C467.627 91.5322 467.161 91.7652 466.695 92.0762C467.474 91.2972 468.252 90.5972 469.031 89.8182C469.81 89.0392 470.51 88.2612 471.211 87.4822C471.921 86.6921 472.547 85.8313 473.08 84.9132C473.649 83.9944 474.143 83.0313 474.557 82.0332V82.0332Z" fill="#350000"/>
<path d="M405.058 150.74C405.058 150.74 399.608 150.195 398.285 149.416C398.285 149.416 405.37 150.195 405.526 148.092C405.695 149.002 405.529 149.943 405.058 150.74V150.74Z" fill="#F28C8C"/>
<path opacity="0.2" d="M427.773 190.549C427.773 190.549 428.162 195.298 435.948 195.765H425.904C425.904 195.765 424.892 199.813 435.247 199.035L430.109 202.227L425.909 202.461C425.909 202.461 425.753 204.641 429.023 204.641C431.56 204.513 434.071 204.069 436.497 203.317L429.797 207.833C429.797 207.833 430.653 209.312 433.612 208.689C435.872 208.127 438.027 207.207 439.996 205.964C439.996 205.964 444.512 214.217 451.674 214.606C458.837 215.073 459.615 215.229 465.922 218.421C472.229 221.613 488.189 231.267 507.653 225.506V214.529L446.612 202.149L440.929 194.597L433.299 192.728L427.773 190.549Z" fill="#9A958D"/>
<path d="M527.74 217.323C526.34 218.958 519.487 220.123 516.684 220.515C516.295 220.593 515.984 220.593 515.75 220.671C512.402 221.138 507.887 221.683 501.97 222.228C473.864 225.028 460.862 210.861 454.478 212.262C446.303 214.053 440.698 203.854 440.698 203.854L436.961 206.345C435.97 207.001 434.896 207.524 433.769 207.902C432.459 208.365 431.031 208.365 429.721 207.902L437.121 201.985C435.125 202.697 433.065 203.219 430.97 203.542C426.688 204.398 425.832 202.452 425.832 202.452L437.978 197.936C437.978 197.936 434.085 198.092 429.803 197.936C425.521 197.78 425.91 196.145 425.91 196.145L438.91 195.055C428.71 194.666 427.777 190.384 427.777 190.384C427.777 190.384 438.677 192.642 439.922 192.564C447.505 196.946 455.449 200.671 463.668 203.697C477.76 208.913 507.656 204.787 507.656 204.787V197.785C507.656 197.785 518.634 195.916 525.096 192.257C525.096 192.257 527.977 210.864 528.288 213.667C528.596 216.622 527.74 217.323 527.74 217.323Z" fill="#FFB373"/>
<path d="M437.235 210.17L436.846 210.326C436.979 210.282 437.109 210.23 437.235 210.17V210.17Z" fill="#F7AFAB"/>
<path d="M425.913 204.781C425.925 204.647 425.898 204.512 425.835 204.392C425.842 204.525 425.868 204.656 425.913 204.781Z" fill="#F7AFAB"/>
<path d="M438.476 195.091C434.194 194.62 427.343 190.42 427.343 190.42C427.343 190.42 428.355 194.78 438.476 195.091Z" fill="#F7A964"/>
<path d="M425.471 196.584C425.627 197.051 426.405 197.83 429.364 197.984C433.646 198.14 437.539 197.984 437.539 197.984L425.471 196.195V196.584Z" fill="#F7A964"/>
<path d="M430.609 203.609C432.555 203.257 434.479 202.789 436.37 202.209L436.759 202.053C433.1 202.442 425.47 202.52 425.47 202.52C425.47 202.52 426.326 204.388 430.609 203.609Z" fill="#F7A964"/>
<path d="M433.423 207.901C434.562 207.552 435.639 207.027 436.615 206.344L440.352 203.853L429.374 207.901C430.684 208.364 432.113 208.364 433.423 207.901Z" fill="#F7A964"/>
<path d="M454.477 212.283C460.939 210.883 473.941 225.051 501.969 222.249C507.886 221.626 512.402 221.159 515.75 220.692C516.065 220.666 516.378 220.614 516.684 220.536C519.484 220.147 526.338 218.979 527.74 217.344C527.74 217.344 528.519 216.644 528.285 213.844C528.207 212.832 527.818 210.029 527.273 206.681C528.285 216.724 518.943 218.593 500.646 220.381C482.349 222.169 465.922 214.853 461.64 212.128C457.358 209.403 456.424 210.571 452.064 210.415C447.704 210.259 440.697 203.875 440.697 203.875C440.697 203.875 446.381 214.075 454.477 212.283Z" fill="#F7A964"/>
<path d="M455.353 187.132L454.964 186.198C454.886 186.198 455.041 186.509 455.353 187.132Z" fill="#F7AFAB"/>
<path d="M462.146 194.865H461.912C462.068 194.943 462.146 194.865 462.146 194.865Z" fill="#F7AFAB"/>
<path d="M459.412 186.66L457.154 183.312C457.388 183.546 458.166 184.947 459.412 186.66Z" fill="#F7AFAB"/>
<path d="M451.788 183.327C448.829 182.393 443.224 170.792 443.224 170.792C443.224 170.792 413.25 169.079 406.243 168.145C399.236 167.133 385.689 160.827 380.473 154.754C375.802 149.226 383.821 143.154 385.3 142.141C383.067 142.915 381.042 144.193 379.383 145.878C377.514 147.591 375.257 151.25 375.257 152.262C375.257 153.274 375.413 156.388 385.612 163.162C395.812 169.862 404.612 171.804 413.718 171.648C422.824 171.492 442.68 172.66 442.68 172.66C445.016 182.16 449.298 183.56 451.244 185.039L452.023 189.01C452.234 190.145 452.601 191.246 453.113 192.28C453.687 193.549 454.638 194.61 455.838 195.316C454.046 194.382 451.788 183.327 451.788 183.327Z" fill="#F7A964"/>
<path d="M455.29 187.143C455.757 187.999 456.536 189.557 457.937 191.737C459.806 194.695 461.363 194.929 461.908 194.929H462.142C462.142 194.929 455.291 186.988 454.901 186.209L455.29 187.143Z" fill="#F7A964"/>
<path d="M457.149 183.23C457.15 183.22 457.148 183.209 457.144 183.2C457.14 183.19 457.134 183.181 457.127 183.174C457.12 183.167 457.111 183.161 457.101 183.157C457.092 183.153 457.082 183.152 457.071 183.152L457.149 183.23Z" fill="#FDC153"/>
<path d="M159.859 259.036C159.08 256.936 160.482 237.704 160.559 227.736C160.637 217.693 160.559 193.557 160.559 193.557C160.014 191.922 155.966 188.341 155.343 187.874C154.72 187.407 154.876 183.674 154.876 182.035C154.876 180.396 155.888 172.303 155.888 172.303L155.577 170.357C155.499 170.668 155.499 170.98 155.421 171.369C154.642 175.729 153.085 186.862 155.265 188.342C157.523 189.899 159.936 193.792 159.936 193.792C159.936 193.792 158.69 253.429 157.912 256.699C156.199 263.706 163.362 268.999 164.296 269.623C164.782 269.852 165.332 269.907 165.853 269.779C159.936 264.719 160.637 261.138 159.859 259.036Z" fill="#7A4E34"/>
<path d="M461.841 187.756C459.041 184.875 457.092 183.163 457.092 183.163L457.17 183.241L459.428 186.589C460.128 187.445 460.907 188.458 461.842 189.47C464.8 192.584 466.358 191.027 466.358 191.027C466.358 191.027 464.644 190.715 461.841 187.756Z" fill="#F7A964"/>
<path d="M468.933 186.267L458.345 180.817C465.43 188.135 468.933 186.267 468.933 186.267Z" fill="#F7A964"/>
<path d="M163.297 169.504C163.297 169.504 160.806 167.09 158.397 170.283C155.983 173.397 162.134 185.854 168.674 184.375C175.214 182.896 163.297 169.504 163.297 169.504Z" fill="#A86B48"/>
<path d="M200.69 165.808C200.69 165.808 193.99 151.093 186.754 145.955C186.754 145.955 176.477 165.886 167.054 171.414C165.03 171.57 164.173 171.103 162.694 171.18C160.981 171.258 161.604 171.803 161.137 172.114C161.215 173.126 161.604 178.265 165.73 181.379C166.754 182.144 167.918 182.699 169.156 183.014C170.627 184.786 172.299 186.379 174.139 187.763C177.175 190.177 181.146 192.663 185.35 192.824C185.35 192.824 177.487 192.98 169.234 184.182C168.695 184.412 168.103 184.493 167.521 184.416C166.665 184.26 157.088 171.025 157.088 171.025C157.088 171.025 160.588 166.977 163.239 169.546C163.239 169.546 172.739 167.288 185.739 142.686C185.819 142.607 195.161 145.643 200.69 165.808Z" fill="#7A4E34"/>
<path d="M223.676 239.637C223.676 239.637 227.958 246.722 228.425 247.423C228.892 248.124 233.252 255.209 233.719 255.598L233.096 250.615C233.096 250.615 226.79 239.092 226.323 238.002L223.676 239.637Z" fill="#7A4E34"/>
<path d="M507.731 154.159L511.157 197.059L507.731 197.759V154.159Z" fill="#E096BE"/>
<path d="M167.336 188.426C166.755 188.721 166.083 188.781 165.459 188.592C164.835 188.404 164.308 187.982 163.988 187.414L154.645 169.896C154.356 169.314 154.299 168.644 154.487 168.021C154.675 167.399 155.094 166.872 155.657 166.548C156.238 166.253 156.911 166.194 157.534 166.382C158.158 166.571 158.685 166.993 159.005 167.56L168.348 185.078C168.643 185.659 168.703 186.332 168.514 186.955C168.326 187.579 167.904 188.106 167.336 188.426V188.426Z" fill="#C5C9CB"/>
<path d="M157.834 171.846L159.469 183.057L156.124 184.536V174.493C156.124 174.493 155.888 171.768 157.834 171.846Z" fill="#A86B48"/>
<path d="M173.581 237.178L167.275 232.662L167.197 208.994L164.161 207.826L162.061 184.547C162.061 184.547 158.324 177.618 162.061 175.671C162.061 175.671 164.319 181.588 164.786 182.522C165.253 183.456 168.134 188.439 167.355 193.889C167.277 194.356 167.277 194.901 167.199 195.446L173.581 237.178Z" fill="#A86B48"/>
<path fill-rule="evenodd" clip-rule="evenodd" d="M501.658 295.577C493.25 291.139 491.148 300.793 494.417 308.812C497.686 316.831 514.426 343.847 515.282 354.512C515.593 358.638 516.372 358.249 517.073 355.291C520.344 340.811 513.181 301.727 501.658 295.577Z" fill="#2B4D3C"/>
<path fill-rule="evenodd" clip-rule="evenodd" d="M519.41 258.828C528.986 250.186 535.059 262.254 533.346 274.01C531.633 285.766 518.476 326.874 520.889 341.355C521.823 346.961 520.655 346.649 518.789 342.99C509.599 324.772 506.174 270.74 519.41 258.828Z" fill="#4A8E76"/>
<path fill-rule="evenodd" clip-rule="evenodd" d="M521.044 345.249C520.81 345.794 520.421 345.56 519.798 344.626C509.755 311.226 525.404 261.398 525.404 261.243C525.421 261.18 525.451 261.12 525.493 261.069C525.534 261.018 525.586 260.977 525.645 260.947C525.704 260.918 525.769 260.901 525.834 260.899C525.9 260.896 525.966 260.908 526.027 260.932C526.145 260.981 526.242 261.071 526.299 261.185C526.356 261.3 526.37 261.431 526.338 261.555C526.416 261.787 510.534 312.316 521.044 345.249Z" fill="#1A7256"/>
<path fill-rule="evenodd" clip-rule="evenodd" d="M540.353 286.545C549.696 282.497 551.097 293.007 546.971 301.338C542.845 309.591 522.758 336.996 520.889 348.363C520.189 352.723 519.41 352.256 518.943 349.063C516.684 333.259 527.584 292.073 540.353 286.545Z" fill="#A4C669"/>
<path fill-rule="evenodd" clip-rule="evenodd" d="M520.11 351.321C519.798 351.71 519.565 351.321 519.331 350.542C520.187 323.215 544.167 289.97 544.245 289.815C544.307 289.732 544.399 289.678 544.501 289.663C544.604 289.648 544.707 289.675 544.79 289.737C544.873 289.799 544.927 289.891 544.942 289.993C544.957 290.096 544.93 290.199 544.868 290.282C544.868 290.438 520.499 324.149 520.11 351.321Z" fill="#5F9650"/>
<path fill-rule="evenodd" clip-rule="evenodd" d="M527.272 345.326H509.365L504.694 349.526L508.509 364.241H528.129L531.944 349.526L527.272 345.326Z" fill="#3D405F"/>
<path fill-rule="evenodd" clip-rule="evenodd" d="M531.944 339.798H504.694C504.306 339.811 503.937 339.971 503.662 340.245C503.388 340.52 503.228 340.889 503.215 341.277V347.977C503.228 348.365 503.388 348.734 503.662 349.008C503.937 349.283 504.306 349.443 504.694 349.456H531.943C532.331 349.443 532.7 349.283 532.974 349.008C533.249 348.734 533.409 348.365 533.422 347.977V341.277C533.422 341.083 533.384 340.89 533.31 340.711C533.235 340.532 533.127 340.368 532.989 340.231C532.852 340.094 532.689 339.985 532.51 339.91C532.33 339.836 532.138 339.798 531.944 339.798V339.798Z" fill="#3D405F"/>
<path fill-rule="evenodd" clip-rule="evenodd" d="M504.694 349.53L505.473 352.566H531.165L531.944 349.53H504.694Z" fill="#101537"/>
<path d="M255.257 217.736C255.257 217.736 239.141 238.913 236.182 241.093C232.289 243.974 230.966 249.735 232.912 253.393C232.912 253.393 233.301 256.193 234.858 256.04C236.337 255.884 242.958 257.208 249.183 246.775C255.411 236.42 261.483 220.693 261.483 220.693L255.257 217.736Z" fill="#A86B48"/>
<path d="M279.774 210.108C278.171 210.087 276.583 210.426 275.128 211.1C273.673 211.774 272.388 212.765 271.366 214.001C268.33 211.665 262.566 211.042 262.566 211.042C263.919 210.784 265.196 210.225 266.303 209.407C268.327 209.251 269.261 207.071 269.028 206.916C267.577 207.019 266.141 207.28 264.746 207.695C263.189 208.084 259.997 208.395 259.14 208.707C258.283 209.019 257.04 211.432 256.493 213.145C255.946 214.858 254.079 219.451 254.079 219.451C254.079 219.451 256.96 224.351 261.164 222.251C261.164 222.251 262.799 219.215 264.2 219.604C265.601 219.993 271.285 220.149 273.387 220.46C275.411 220.771 276.887 220.538 277.747 219.526C279.745 217.592 281.85 215.773 284.053 214.076C285.377 213.142 283.975 212.83 283.975 212.83C283.975 212.83 284.987 211.896 282.029 211.43C282.029 211.43 282.808 210.418 280.783 210.418C280.709 210.498 281.254 210.186 279.774 210.108Z" fill="#A86B48"/>
<path d="M259.93 215.559C263.43 211.121 274.878 218.284 274.878 218.284C277.361 215.726 280.477 213.873 283.909 212.912C283.909 212.912 279.709 213.146 274.8 217.428C272.794 216.367 270.713 215.456 268.572 214.703C266.703 214.236 262.733 212.757 260.164 215.014C260.164 215.092 260.086 215.092 260.086 215.17C260.008 215.326 260.008 215.403 259.93 215.559Z" fill="#7A4E34"/>
<path d="M274.432 216.176C277.079 212.361 281.984 211.505 281.984 211.505C280.231 211.514 278.521 212.057 277.084 213.062C274.515 214.775 274.048 215.709 274.048 215.709L274.432 216.176Z" fill="#7A4E34"/>
<path d="M273.416 215.083C275.285 211.268 280.657 210.49 280.657 210.49C279.195 210.606 277.769 211.003 276.457 211.658C275.086 212.377 273.909 213.418 273.027 214.69L273.416 215.083Z" fill="#7A4E34"/>
<path d="M264.609 207.74C263.052 208.129 259.86 208.44 259.003 208.752C258.146 209.064 256.903 211.477 256.356 213.19C255.889 214.59 254.565 218.017 254.098 219.185C250.361 224.012 238.605 239.272 236.191 241.062C233.959 242.797 232.504 245.343 232.142 248.147C235.568 241.529 237.125 243.947 240.862 238.882C243.12 235.846 252.54 224.167 254.876 220.742C255.343 220.042 255.655 219.652 255.655 219.652C255.812 219.14 255.941 218.62 256.043 218.095C257.912 211.555 259.469 210.232 260.637 209.609C261.961 208.986 268.89 207.04 268.89 207.04C268.735 206.805 266.243 207.355 264.609 207.74Z" fill="#7A4E34"/>
<path d="M157.832 171.851C157.832 171.851 156.119 171.462 156.119 174.42C156.119 177.378 155.885 185.086 155.885 185.086C155.885 185.086 156.897 178.313 156.819 176.6C156.82 174.883 156.742 172.08 157.832 171.851Z" fill="#7A4E34"/>
<path d="M163.219 184.545C163.141 184.467 160.105 177.538 162.129 175.514C161.522 175.829 161.051 176.355 160.805 176.993C160.574 177.588 160.468 178.224 160.494 178.862C160.563 180.313 160.907 181.739 161.506 183.062C162.596 186.176 161.506 186.488 161.506 186.488C163.686 186.18 163.219 184.545 163.219 184.545Z" fill="#7A4E34"/>
<path d="M215.988 211.543C215.988 211.543 220.504 222.131 218.246 230.228C215.988 238.325 204.933 239.028 202.13 238.328C202.052 238.325 220.971 237.625 215.988 211.543Z" fill="#F09393"/>
<path d="M218.909 225.032L226.309 237.956L223.662 239.591L218.29 230.248L218.909 225.032Z" fill="#F09393"/>
<path d="M136.948 195.291C136.014 195.991 135.002 196.77 134.148 197.549C133.214 198.328 132.279 199.106 131.423 199.963C129.671 201.587 128.034 203.33 126.523 205.179C125.755 206.088 125.053 207.05 124.423 208.06C123.777 209.055 123.204 210.095 122.71 211.174C121.666 213.337 121.108 215.702 121.075 218.103C120.946 216.885 120.972 215.655 121.153 214.444C121.335 213.238 121.675 212.061 122.165 210.944C123.116 208.688 124.402 206.588 125.98 204.716C127.532 202.826 129.252 201.081 131.118 199.5C132.916 197.906 134.869 196.496 136.948 195.291V195.291Z" fill="#350000"/>
<path d="M173.583 136.161C172.625 136.347 171.705 136.689 170.858 137.173C170.469 137.407 170.079 137.64 169.612 137.952C169.233 138.244 168.869 138.556 168.522 138.886C167.105 140.18 165.921 141.707 165.022 143.402C164.535 144.234 164.093 145.091 163.698 145.971C163.309 146.827 162.998 147.762 162.608 148.618C162.297 149.552 161.985 150.409 161.752 151.343C161.519 152.277 161.285 153.212 160.973 154.143C161.051 153.209 161.284 152.197 161.362 151.262C161.518 150.328 161.829 149.393 162.062 148.381L162.996 145.581L163.619 144.257C163.822 143.8 164.056 143.358 164.319 142.933C165.253 141.195 166.523 139.66 168.056 138.417C169.6 137.077 171.543 136.284 173.583 136.161Z" fill="#350000"/>
<path d="M176.395 150.763C175.752 152.321 174.998 153.83 174.137 155.279C173.331 156.769 172.42 158.2 171.412 159.561C170.454 160.942 169.386 162.244 168.22 163.454C167.078 164.703 165.736 165.754 164.25 166.563C164.542 166.281 164.854 166.021 165.184 165.784L166.04 164.928C166.647 164.362 167.195 163.736 167.675 163.059C168.754 161.788 169.768 160.463 170.711 159.088C171.645 157.764 172.58 156.363 173.511 154.962L176.395 150.763Z" fill="#350000"/>
<path d="M221.728 133.984C221.728 133.984 224.686 140.913 220.171 145.818C220.171 145.818 232.239 144.884 233.406 137.098L221.728 133.984Z" fill="#F6921E"/>
<path d="M221.728 133.984C221.728 133.984 224.686 140.913 220.171 145.818C220.171 145.818 232.239 144.884 233.406 137.098L221.728 133.984Z" fill="#F6921E"/>
<path d="M256.841 126.276C255.595 135.776 243.841 142.003 230.526 140.212C217.291 138.421 207.559 129.312 208.882 119.812C210.128 110.312 221.962 104.085 235.197 105.876C248.432 107.667 258.086 116.778 256.841 126.276Z" fill="#F6921E"/>
<path opacity="0.25" d="M249.756 120.126C249.289 123.626 243.372 125.732 236.521 124.875C229.67 123.941 224.531 120.359 224.998 116.856C225.465 113.353 231.382 111.25 238.233 112.107C245.084 112.964 250.223 116.544 249.756 120.126Z" fill="white"/>
<path d="M225.932 124.875C226.022 125.217 226.042 125.574 225.993 125.925C225.943 126.276 225.825 126.613 225.644 126.917C225.462 127.221 225.223 127.487 224.938 127.697C224.654 127.908 224.33 128.06 223.986 128.145C223.47 128.276 222.927 128.251 222.425 128.073C221.924 127.896 221.486 127.573 221.168 127.147C220.849 126.72 220.664 126.209 220.636 125.677C220.609 125.146 220.739 124.618 221.011 124.161C221.284 123.703 221.685 123.337 222.166 123.108C222.646 122.879 223.184 122.797 223.71 122.874C224.237 122.95 224.729 123.181 225.125 123.537C225.52 123.894 225.801 124.359 225.932 124.875V124.875Z" fill="white"/>
<path d="M223.129 122.851C222.973 122.851 222.818 122.929 222.584 122.929C221.898 123.114 221.312 123.559 220.948 124.17C220.585 124.78 220.474 125.508 220.638 126.199C220.838 126.876 221.285 127.452 221.892 127.813C222.498 128.174 223.218 128.292 223.908 128.145C224.353 128.066 224.762 127.848 225.076 127.522C224.634 127.353 224.231 127.096 223.892 126.766C223.552 126.436 223.283 126.041 223.101 125.604C222.919 125.167 222.828 124.698 222.832 124.225C222.837 123.751 222.938 123.284 223.129 122.851V122.851Z" fill="#D0D2D3"/>
<path d="M235.508 122.383C235.598 122.726 235.619 123.083 235.569 123.433C235.52 123.784 235.401 124.121 235.22 124.425C235.039 124.73 234.799 124.995 234.514 125.206C234.23 125.416 233.906 125.569 233.562 125.653C233.218 125.746 232.858 125.769 232.505 125.722C232.151 125.675 231.811 125.558 231.503 125.377C231.195 125.197 230.926 124.958 230.711 124.673C230.497 124.388 230.341 124.063 230.254 123.717C230.166 123.371 230.148 123.011 230.2 122.659C230.253 122.306 230.375 121.967 230.56 121.662C230.744 121.357 230.988 121.091 231.276 120.881C231.564 120.671 231.891 120.52 232.238 120.437C232.581 120.347 232.938 120.327 233.288 120.376C233.639 120.426 233.976 120.545 234.281 120.726C234.585 120.907 234.85 121.147 235.061 121.431C235.272 121.716 235.424 122.039 235.508 122.383V122.383Z" fill="white"/>
<path d="M232.705 120.359C232.549 120.359 232.394 120.437 232.16 120.437C231.474 120.623 230.888 121.068 230.525 121.678C230.161 122.288 230.05 123.016 230.214 123.707C230.414 124.384 230.862 124.96 231.468 125.321C232.074 125.682 232.794 125.801 233.484 125.653C233.93 125.574 234.338 125.356 234.652 125.03C234.21 124.861 233.807 124.604 233.468 124.274C233.128 123.944 232.859 123.549 232.677 123.112C232.495 122.675 232.404 122.206 232.409 121.733C232.413 121.26 232.514 120.792 232.705 120.359Z" fill="#D0D2D3"/>
<path d="M245.007 119.892C245.097 120.235 245.117 120.591 245.068 120.942C245.018 121.293 244.899 121.63 244.718 121.934C244.537 122.239 244.297 122.504 244.013 122.715C243.728 122.925 243.405 123.077 243.061 123.162C242.716 123.255 242.357 123.278 242.003 123.231C241.65 123.184 241.309 123.066 241.001 122.886C240.693 122.706 240.424 122.467 240.21 122.181C239.996 121.896 239.84 121.572 239.752 121.226C239.664 120.88 239.646 120.52 239.699 120.167C239.751 119.815 239.873 119.476 240.058 119.171C240.243 118.865 240.486 118.6 240.775 118.39C241.063 118.179 241.39 118.029 241.737 117.946C242.428 117.773 243.16 117.88 243.773 118.245C244.386 118.61 244.829 119.202 245.007 119.892V119.892Z" fill="white"/>
<path d="M242.282 117.868C242.126 117.868 241.971 117.946 241.737 117.946C241.051 118.131 240.464 118.576 240.101 119.187C239.738 119.797 239.627 120.525 239.791 121.216C239.99 121.893 240.438 122.469 241.044 122.83C241.651 123.191 242.371 123.309 243.061 123.162C243.506 123.083 243.915 122.865 244.229 122.539C243.782 122.377 243.373 122.124 243.029 121.795C242.684 121.467 242.412 121.071 242.229 120.631C242.046 120.192 241.956 119.72 241.965 119.244C241.974 118.769 242.082 118.3 242.282 117.868Z" fill="#D0D2D3"/>
<defs>
<linearGradient id="paint0_linear" x1="121.075" y1="191.481" x2="216.284" y2="248.977" gradientUnits="userSpaceOnUse">
<stop stop-color="#642F2F"/>
<stop offset="0.156" stop-color="#5B2727"/>
<stop offset="0.696" stop-color="#3E0B0B"/>
<stop offset="1" stop-color="#330000"/>
</linearGradient>
<linearGradient id="paint1_linear" x1="138.74" y1="176.247" x2="144.005" y2="268.461" gradientUnits="userSpaceOnUse">
<stop stop-color="#2F3464"/>
<stop offset="0.156" stop-color="#272A5B"/>
<stop offset="0.696" stop-color="#0F0B3E"/>
<stop offset="1" stop-color="#060033"/>
</linearGradient>
<linearGradient id="paint2_linear" x1="462.421" y1="270.826" x2="454.361" y2="256.902" gradientUnits="userSpaceOnUse">
<stop stop-color="#642F2F"/>
<stop offset="0.156" stop-color="#5B2727"/>
<stop offset="0.696" stop-color="#3E0B0B"/>
<stop offset="1" stop-color="#330000"/>
</linearGradient>
<linearGradient id="paint3_linear" x1="420.444" y1="307.045" x2="414.386" y2="287.871" gradientUnits="userSpaceOnUse">
<stop stop-color="#642F2F"/>
<stop offset="0.156" stop-color="#5B2727"/>
<stop offset="0.696" stop-color="#3E0B0B"/>
<stop offset="1" stop-color="#330000"/>
</linearGradient>
</defs>
</svg>
