<svg width="692" height="493" viewBox="0 0 692 493" fill="none" xmlns="http://www.w3.org/2000/svg">
<path d="M49.5693 198.719H117.494L171.124 362.673H79.4293L49.5693 198.719Z" fill="#EC9090"/>
<path d="M86.7041 372.649L68.9404 492.839L75.2 493L108.19 368.868H87.0425L86.7041 372.649Z" fill="#8B0000"/>
<path d="M217.563 372.649L235.326 492.839L229.067 493L196.077 368.868H217.224L217.563 372.649Z" fill="#8B0000"/>
<path d="M223.062 354.87H131.705C106.413 354.87 84.4202 338.378 78.5836 314.967L49.5695 198.719H36.2891L67.587 351.008C70.1247 363.558 81.7134 372.568 95.163 372.568H232.197V363.397C232.197 358.731 228.137 354.87 223.062 354.87Z" fill="#FFC4B9"/>
<path d="M293.017 463.314L274.576 468.624L272.715 462.59C272.715 462.59 275.507 453.741 265.272 439.099C262.565 435.318 283.712 433.79 283.712 433.79C283.712 433.79 283.12 447.868 294.539 453.097C296.908 454.304 293.017 463.314 293.017 463.314Z" fill="white"/>
<path d="M292.509 450.121L263.918 320.598C262.396 314.484 256.897 309.979 250.299 309.577L156.659 300.728L112.927 338.297L232.874 358.007C232.874 358.007 229.998 380.211 244.716 409.816C249.792 420.113 260.873 435.56 269.247 457.2L279.144 454.143L292.509 450.121Z" fill="#120F30"/>
<path d="M211.304 477.232L192.863 471.842L191.341 466.372C191.341 466.372 199.461 462.349 202.337 442.398C203.014 437.893 220.778 447.788 220.778 447.788C220.778 447.788 213.926 455.913 216.041 466.372C216.718 469.268 211.304 477.232 211.304 477.232Z" fill="white"/>
<path d="M189.395 466.371L183.22 481.254V493H258.927V489.782C258.927 486.885 256.812 484.311 253.852 483.668L241.671 480.932L216.209 466.452H214.518L213.841 467.336C212.318 469.428 209.865 470.715 207.158 470.715H198.53C195.485 470.715 192.694 469.026 191.34 466.452L189.395 466.371Z" fill="#E38878"/>
<path d="M183.22 486.725V493H258.927V489.782C258.927 488.736 258.673 487.69 258.081 486.806L183.22 486.725Z" fill="#8B0000"/>
<path d="M270.178 463.716L271.024 479.645L276.099 490.345L346.477 461.303L345.039 458.326C343.77 455.672 340.725 454.223 337.764 454.787L325.499 457.039L294.455 453.097L293.017 453.741L292.763 456.235C292.594 458.085 291.41 459.614 289.633 460.338L279.229 464.601C276.776 465.567 273.984 464.682 272.631 462.59L270.178 463.716Z" fill="#E38878"/>
<path d="M273.392 484.633L276.098 490.345L346.477 461.303L345.038 458.327C344.616 457.361 343.854 456.557 343.008 455.913L273.392 484.633Z" fill="#8B0000"/>
<path d="M242.856 310.301H156.152L156.744 300.728H80.9521V322.207C80.9521 340.791 96.7703 355.835 116.31 355.835H228.052C217.056 368.304 206.059 382.785 205.213 397.91C203.352 432.503 196.501 453.258 196.501 453.258L219.763 459.775L267.894 345.377C273.477 332.263 266.71 317.3 252.922 312.071C249.707 310.945 246.324 310.301 242.856 310.301Z" fill="black"/>
<path d="M146.423 176.113L164.272 180.296C171.462 181.986 177.89 185.847 182.712 191.237L203.69 216.579L192.186 241.598L174.168 229.209L170.024 240.391L167.317 259.941C165.54 272.491 165.202 285.201 166.217 297.832V304.67C166.217 304.67 94.4856 324.219 75.876 305.314L82.9815 216.096L121.216 175.55L146.423 176.113Z" fill="#8B0000"/>
<path d="M110.811 263.399C111.488 254.067 111.572 244.735 107.004 236.047C105.143 232.427 102.606 229.128 101.506 225.267C100.66 222.451 100.576 219.474 99.8989 216.578C99.2222 213.682 97.8688 210.786 95.1619 209.257C92.0321 207.488 89.3253 208.855 87.2951 211.027C86.6184 211.751 82.9811 215.13 82.8965 216.176C82.8119 216.82 75.791 305.394 75.791 305.394C82.9811 312.715 98.2917 314.243 114.194 313.358C112.503 299.199 109.204 285.121 110.219 270.801C110.388 268.307 110.642 265.893 110.811 263.399Z" fill="#8B0000"/>
<path d="M70.209 241.517L77.5682 267.583C79.0062 272.007 83.4895 274.984 88.311 274.582L170.362 268.548L215.11 276.432C216.125 276.593 217.056 275.949 217.225 274.984C217.309 274.501 217.14 273.938 216.802 273.536L215.279 271.847L196.247 259.377C195.232 258.733 194.132 258.331 192.948 258.17L170.109 255.274L97.5312 251.252L97.1083 239.748L70.209 241.517Z" fill="white"/>
<path d="M121.215 172.895L115.463 173.216C103.875 173.86 92.6242 176.997 82.6427 182.629C68.178 190.674 60.9033 206.763 64.6252 222.29L69.2776 241.598L97.192 239.989L119.101 193.972C119.185 193.892 128.49 176.917 121.215 172.895Z" fill="#8B0000"/>
<path d="M110.22 148.036C110.22 148.036 111.996 167.424 110.727 183.675C110.22 189.789 114.872 195.26 121.301 196.064C127.983 196.949 134.158 192.444 135.004 186.088C135.004 186.008 135.004 185.927 135.004 185.847C136.019 177.319 137.88 166.781 141.264 164.448L110.22 148.036Z" fill="white"/>
<path d="M110.22 148.036C110.22 148.036 111.996 167.424 110.727 183.675C110.22 189.789 114.872 195.26 121.301 196.064C122.147 196.144 122.908 196.225 123.754 196.144C123.331 195.34 123.077 194.535 122.823 193.731C120.963 187.536 123.754 180.779 122.062 174.504C120.878 170.079 117.579 166.378 116.226 162.034C115.126 158.494 115.38 154.794 116.056 151.093L110.22 148.036Z" fill="#E9E6E8"/>
<path d="M149.891 128.085C149.637 126.315 149.13 124.545 148.369 122.936C148.03 122.131 143.209 113.443 142.955 113.604L142.109 114.167C135.849 109.903 127.221 109.42 120.116 112.317C113.01 115.213 107.597 121.086 104.551 127.843C100.322 137.578 100.914 148.679 106.243 157.931C111.741 167.102 121.385 173.377 132.381 174.906C136.695 175.469 141.601 174.986 144.647 172.01C145.831 170.722 146.761 169.274 147.438 167.746C151.498 159.942 154.882 150.852 150.145 142.565C149.299 141.117 148.369 139.75 148.199 138.141C148.03 136.21 149.214 134.44 149.722 132.59C150.145 131.061 150.145 129.533 149.891 128.085Z" fill="white"/>
<path d="M69.3619 241.598L82.727 240.793C82.727 240.713 82.727 240.552 82.6424 240.471C81.1198 229.691 74.2681 220.037 73.5068 209.257C72.8301 200.167 76.552 191.639 81.2044 183.514C67.6701 191.88 61.0722 207.327 64.7095 222.29L69.3619 241.598Z" fill="#8B0000"/>
<g opacity="0.4">
<path opacity="0.4" d="M170.531 268.548L214.856 276.352C214.771 275.386 214.433 274.421 213.841 273.616C211.472 270.398 206.651 270.398 202.59 270.398C197.007 270.318 191.509 269.433 186.18 267.985C180.766 266.456 175.437 264.365 169.939 263.239C162.326 261.71 154.544 262.193 146.846 262.675L115.379 264.606C109.711 264.928 104.044 265.33 98.5457 264.043C93.0474 262.836 87.7183 259.779 85.2652 254.952C83.0659 250.608 83.4043 245.54 82.7276 240.713L70.293 241.437L77.6522 267.502C79.0902 271.927 83.5734 274.904 88.395 274.501L170.531 268.548Z" fill="#E9E6E8"/>
</g>
<g opacity="0.4">
<path opacity="0.4" d="M148.284 138.141C148.115 136.21 149.299 134.44 149.807 132.59C150.145 131.142 150.23 129.613 149.976 128.085C149.722 126.315 149.215 124.545 148.453 122.936C148.115 122.131 143.294 113.443 143.04 113.604L142.194 114.167C138.979 111.995 135.258 110.788 131.282 110.547L122.315 123.258C122.738 126.476 125.784 128.567 128.744 129.774C132.551 131.383 136.357 132.831 140.079 134.762C141.094 135.164 141.94 135.808 142.701 136.612C143.378 137.578 143.801 138.704 144.055 139.83C144.562 141.278 145.324 142.565 146.339 143.692C147.523 145.059 149.13 146.668 148.284 148.277C147.861 148.921 147.269 149.484 146.592 149.967C144.478 151.898 144.562 155.035 145.07 157.69C145.577 160.264 146.254 164.287 148.115 166.217C152.767 159.942 154.036 149.323 150.23 142.485C149.384 141.117 148.369 139.75 148.284 138.141Z" fill="#E9E6E8"/>
</g>
<path d="M160.55 113.845C157.166 108.536 149.215 104.915 143.717 103.226C141.602 102.582 139.403 102.1 137.203 101.698C132.889 100.973 128.575 100.571 124.261 100.491C118.425 100.33 111.911 100.732 108.105 104.915C106.497 106.685 105.229 105.157 103.029 105.318C101.084 105.559 99.3074 106.444 97.954 107.812C95.8392 110.064 94.9087 113.041 94.1474 116.017C91.9481 124.867 90.8485 134.199 92.3711 143.209C93.3861 149.645 95.9238 155.759 99.7303 161.149C101.676 163.804 108.612 172.814 112.926 168.389C114.533 166.781 113.434 164.206 112.419 162.114C110.219 157.529 108.443 152.058 109.796 147.071C109.966 146.186 110.304 145.462 110.896 144.738C111.742 144.014 112.926 143.692 114.026 144.014C115.126 144.335 116.141 144.818 116.902 145.622C119.017 147.312 120.37 149.725 120.793 152.3C121.808 159.621 110.896 167.263 120.624 172.734C124.938 175.147 132.043 176.193 136.95 176.113C141.94 176.032 149.384 175.389 153.106 171.688C157.082 167.665 156.067 158.736 154.629 153.828C154.544 153.346 154.29 152.863 154.036 152.461C153.444 151.656 152.683 151.093 151.668 150.852C143.717 148.197 141.179 158.736 133.82 157.69C130.267 157.207 128.152 152.863 126.376 150.289C123.923 146.668 121.639 142.887 120.285 138.704C119.186 135.164 119.017 130.9 121.723 128.326C126.968 123.338 134.666 129.774 140.333 130.981C144.563 132.027 148.961 131.785 153.021 130.418C156.997 128.889 160.465 125.752 161.48 121.81C162.58 118.994 162.157 116.178 160.55 113.845Z" fill="#510000"/>
<path d="M80.3599 284.557L41.6182 493H48.3007L103.284 283.109L80.3599 284.557Z" fill="#E38878"/>
<path d="M487.825 284.557L526.567 493H519.8L464.901 283.109L487.825 284.557Z" fill="#E38878"/>
<path d="M568.438 296.383H0V306.278H568.438V296.383Z" fill="#E9E6E8"/>
<path d="M0 296.384L42.7175 274.823H583.918L568.692 296.384H0Z" fill="white"/>
<path d="M568.522 306.278L583.918 285.603V274.823L568.692 296.383L568.522 306.278Z" fill="#E9E6E8"/>
<path d="M203.69 216.578L216.294 231.22L273.391 264.928L290.648 267.985L301.39 275.064L277.536 275.627C275.337 275.708 273.645 277.397 273.73 279.489C273.73 279.569 273.73 279.65 273.73 279.65L273.899 281.661L275.337 282.224C277.705 283.19 279.313 285.362 279.313 287.775V289.706L271.615 286.729C269.839 286.086 268.57 284.638 268.062 282.948L265.102 272.892L203.775 251.976L192.271 241.517L203.69 216.578Z" fill="white"/>
<g opacity="0.4">
<path opacity="0.4" d="M267.809 279.087C267.471 277.558 267.302 275.949 267.386 274.34C267.386 272.812 267.048 271.203 266.287 269.835C265.018 267.663 261.719 266.054 259.604 264.767C256.643 262.916 253.429 261.307 250.045 260.101C242.179 257.285 234.735 253.343 226.445 251.573C224.077 251.09 221.624 250.769 219.255 250.206C217.056 249.723 214.941 248.999 212.826 248.275C210.965 247.792 209.189 246.988 207.582 246.022C202.929 242.885 201.914 236.851 198.7 232.346C198.277 231.702 197.769 231.139 197.262 230.496L192.187 241.598L203.691 252.056L264.933 272.973L267.894 283.029C268.401 284.718 269.67 286.166 271.446 286.81L279.144 289.786V287.856C279.144 287.534 279.144 287.292 279.059 286.971C277.199 286.086 275.084 285.362 273.223 284.477C270.854 283.27 268.57 281.5 267.809 279.087Z" fill="#E9E6E8"/>
</g>
<g opacity="0.2">
<g opacity="0.4">
<path opacity="0.4" d="M172.054 226.553C170.362 228.162 169.347 230.254 169.178 232.507C169.009 234.759 169.347 236.931 170.024 239.103C170.108 239.345 170.193 239.506 170.193 239.747L174.169 229.208L192.271 241.597L197.346 230.495C196.246 229.289 195.147 228.243 193.878 227.197C192.271 225.749 190.325 224.623 188.295 223.899C185.081 222.853 181.612 223.255 178.313 223.979C176.03 224.462 173.746 225.105 172.054 226.553Z" fill="#6C98E3"/>
</g>
</g>
<path d="M142.194 292.683C137.965 292.683 137.542 291.154 141.264 289.223L163.257 278.121C167.74 276.03 172.731 274.903 177.722 274.662H235.242C239.472 274.662 239.894 276.191 236.088 278.041L213.926 289.143C209.358 291.235 204.452 292.361 199.461 292.522H142.194V292.683Z" fill="#E38878"/>
<path d="M236.342 274.823C236.004 275.065 235.665 275.226 235.158 275.467L212.996 286.569C208.428 288.66 203.522 289.787 198.531 289.948H141.18C140.757 289.948 140.418 289.948 140.08 289.867C137.711 291.476 138.388 292.602 142.11 292.602H199.461C204.452 292.442 209.443 291.235 213.926 289.224L236.088 278.122C239.557 276.513 239.472 275.065 236.342 274.823Z" fill="#8B0000"/>
<path d="M155.898 284.236C155.728 284.236 155.559 284.155 155.475 283.994C155.39 283.753 155.475 283.511 155.644 283.351L161.396 280.454C161.65 280.374 161.903 280.454 162.073 280.615C162.157 280.857 162.073 281.098 161.903 281.259L156.151 284.155C156.067 284.155 155.982 284.236 155.898 284.236Z" fill="#E38878"/>
<path d="M450.945 215.532H390.633V281.822H450.945V215.532Z" fill="#8B0000"/>
<path d="M440.456 215.532H388.519V285.362H440.456V215.532Z" fill="#FFC4B9"/>
<path d="M528.767 242.402H306.382C298.177 242.402 290.564 238.541 286.081 232.024L283.12 227.841L317.21 79.574C318.478 71.9313 325.415 66.2999 333.62 66.2999L557.696 61.7144L566.493 69.5983C569.454 72.2531 570.807 76.1147 570.215 79.8958L545.177 229.209C543.824 236.69 536.887 242.402 528.767 242.402Z" fill="#8B0000"/>
<path d="M518.87 234.036H293.609C287.265 234.036 282.021 229.128 282.021 223.014C282.021 222.451 282.105 221.888 282.19 221.244L307.397 71.1271C308.666 63.4844 315.602 57.853 323.807 57.853H549.068C555.412 57.853 560.657 62.7604 560.657 68.8745C560.657 69.4376 560.572 70.0008 560.488 70.6444L535.28 220.762C534.011 228.404 527.075 234.036 518.87 234.036Z" fill="#E38878"/>
<path d="M282.19 221.325C281.175 227.278 285.489 232.99 291.749 233.875C292.341 233.955 292.933 234.036 293.61 234.036H518.87C527.075 234.036 534.012 228.404 535.28 220.762L539.256 197.029H286.335L282.19 221.325Z" fill="white"/>
<path d="M471.584 273.858H339.287V285.282H471.584V273.858Z" fill="#E38878"/>
<path d="M487.656 273.858H471.584V285.282H487.656V273.858Z" fill="#8B0000"/>
<path d="M332.012 83.9185H323.976L324.737 79.2524H332.773L332.012 83.9185Z" fill="#274187"/>
<path d="M329.982 96.147H321.861L322.707 91.481H330.743L329.982 96.147Z" fill="#274187"/>
<path d="M327.867 108.375H319.831L320.677 103.628H328.713L327.867 108.375Z" fill="#274187"/>
<path d="M325.837 120.522H317.801L318.562 115.856H326.598L325.837 120.522Z" fill="#8B0000"/>
<path d="M323.806 132.751H315.771L316.532 128.004H324.568L323.806 132.751Z" fill="#274187"/>
<path d="M321.777 144.898H313.656L314.502 140.232H322.538L321.777 144.898Z" fill="#274187"/>
<path d="M319.662 157.127H311.626L312.472 152.38H320.508L319.662 157.127Z" fill="#274187"/>
<path d="M317.632 169.274H309.596L310.357 164.608H318.478L317.632 169.274Z" fill="#274187"/>
<path d="M315.601 181.503H307.565L308.327 176.756H316.363L315.601 181.503Z" fill="#8B0000"/>
<path d="M539.509 83.9185H531.473L532.319 79.2524H540.355L539.509 83.9185Z" fill="#274187"/>
<path d="M537.478 96.147H529.442L530.204 91.481H538.324L537.478 96.147Z" fill="#274187"/>
<path d="M535.449 108.375H527.413L528.174 103.628H536.21L535.449 108.375Z" fill="#274187"/>
<path d="M533.418 120.522H525.382L526.143 115.856H534.179L533.418 120.522Z" fill="#274187"/>
<path d="M531.304 132.751H523.268L524.113 128.004H532.149L531.304 132.751Z" fill="#8B0000"/>
<path d="M529.273 144.898H521.237L521.999 140.232H530.119L529.273 144.898Z" fill="#274187"/>
<path d="M527.243 157.127H519.207L519.968 152.38H528.004L527.243 157.127Z" fill="#274187"/>
<path d="M525.213 169.274H517.177L517.938 164.608H525.974L525.213 169.274Z" fill="#274187"/>
<path d="M523.183 181.503H515.062L515.908 176.756H523.944L523.183 181.503Z" fill="#8B0000"/>
<path d="M528.681 83.9185H505.673L506.434 79.2524H529.442L528.681 83.9185Z" fill="#274187"/>
<path d="M526.651 96.147H503.643L504.404 91.481H527.412L526.651 96.147Z" fill="#274187"/>
<path d="M524.537 108.375H501.528L502.374 103.628H525.382L524.537 108.375Z" fill="#274187"/>
<path d="M522.506 120.522H499.498L500.344 115.856H523.268L522.506 120.522Z" fill="#274187"/>
<path d="M520.476 132.751H497.468L498.229 128.004H521.237L520.476 132.751Z" fill="#8B0000"/>
<path d="M518.446 144.898H495.438L496.199 140.232H519.207L518.446 144.898Z" fill="#8B0000"/>
<path d="M516.33 157.127H493.322L494.168 152.38H517.176L516.33 157.127Z" fill="#8B0000"/>
<path d="M514.301 169.274H491.293L492.139 164.608H515.062L514.301 169.274Z" fill="#8B0000"/>
<path d="M512.271 181.503H489.263L490.024 176.756H513.032L512.271 181.503Z" fill="#8B0000"/>
<path d="M487.571 83.9185H401.206L402.052 79.2524H488.417L487.571 83.9185Z" fill="#8B0000"/>
<path d="M480.635 96.147H374.983L375.745 91.481H481.396L480.635 96.147Z" fill="#8B0000"/>
<path d="M479.027 108.375H381.665L382.426 103.628H479.788L479.027 108.375Z" fill="#8B0000"/>
<path d="M466.847 120.522H356.035L356.796 115.856H467.693L466.847 120.522Z" fill="#8B0000"/>
<path d="M477.927 132.751H384.795L385.641 128.004H478.689L477.927 132.751Z" fill="#FFC4B9"/>
<path d="M461.179 144.898H363.31L364.071 140.232H461.94L461.179 144.898Z" fill="#274187"/>
<path d="M452.298 157.127H347.238L348.084 152.38H453.059L452.298 157.127Z" fill="#274187"/>
<path d="M473.275 169.274H379.466L380.227 164.608H474.036L473.275 169.274Z" fill="#8B0000"/>
<path d="M468.2 181.503H356.373L357.219 176.756H469.046L468.2 181.503Z" fill="#8B0000"/>
<path d="M398.753 83.9185H338.779L339.541 79.2524H399.599L398.753 83.9185Z" fill="#8B0000"/>
<path d="M372.446 96.147H336.749L337.51 91.481H373.291L372.446 96.147Z" fill="#FFC4B9"/>
<path d="M378.873 108.375H334.718L335.479 103.628H379.635L378.873 108.375Z" fill="#8B0000"/>
<path d="M353.074 120.522H332.604L333.449 115.856H353.835L353.074 120.522Z" fill="#FFC4B9"/>
<path d="M381.92 132.751H330.574L331.42 128.004H382.681L381.92 132.751Z" fill="#8B0000"/>
<path d="M360.856 144.898H328.543L329.304 140.232H361.617L360.856 144.898Z" fill="#8B0000"/>
<path d="M344.362 157.127H326.514L327.275 152.38H345.123L344.362 157.127Z" fill="#8B0000"/>
<path d="M377.014 169.274H324.399L325.245 164.608H377.775L377.014 169.274Z" fill="#FFC4B9"/>
<path d="M353.412 181.503H322.368L323.214 176.756H354.258L353.412 181.503Z" fill="#8B0000"/>
<path d="M503.558 120.764C494.254 120.764 486.641 113.604 486.641 104.755L494.761 53.9915V53.911C494.761 45.0617 502.374 37.8213 511.679 37.8213H674.682C683.987 37.8213 691.515 44.9812 691.6 53.8306L683.479 104.513C681.788 112.317 676.374 120.764 666.562 120.764H503.558Z" fill="url(#paint0_linear)"/>
<path d="M684.578 40.7979C686.693 43.5331 687.793 46.7511 687.793 50.1299L679.672 100.813C677.981 108.616 672.567 117.063 662.755 117.063H499.751C496.199 117.063 492.731 116.017 489.854 114.006C493.069 118.19 498.144 120.683 503.558 120.683H666.561C676.458 120.683 681.787 112.236 683.479 104.433L691.599 53.7501C691.515 48.6818 688.977 43.8549 684.578 40.7979Z" fill="#8B0000"/>
<path d="M560.486 71.4485C559.809 71.4485 559.302 70.9658 559.302 70.3223L560.148 65.0931C560.148 64.4495 560.655 63.9668 561.332 63.9668H675.273C675.865 63.9668 676.458 64.4495 676.458 65.0126L675.612 70.2418C675.527 70.8049 675.104 71.2876 674.427 71.3681L560.486 71.4485Z" fill="white"/>
<path d="M558.372 85.6077C557.695 85.6077 557.188 85.125 557.188 84.4814L558.033 79.2523C558.033 78.6087 558.541 78.126 559.218 78.126H673.244C673.92 78.126 674.428 78.6087 674.428 79.2523L673.582 84.4814C673.497 85.0446 673.074 85.6077 672.398 85.6077H558.372Z" fill="white"/>
<path d="M556.595 99.7669C555.919 99.7669 555.411 99.2842 555.411 98.6406L556.257 93.4114C556.257 92.7679 556.765 92.2852 557.357 92.2852H627.65C628.327 92.2852 628.834 92.7679 628.834 93.4114L627.989 98.6406C627.904 99.2038 627.481 99.6864 626.804 99.7669H556.595Z" fill="white"/>
<path d="M536.717 82.1486H540.947C541.792 82.1486 542.554 81.505 542.723 80.7005L543.738 75.6322C543.907 74.9886 543.484 74.345 542.808 74.1841C542.723 74.1841 542.554 74.1841 542.469 74.1841H539.17C538.663 74.1841 538.24 73.8623 538.155 73.3797C538.071 73.0579 537.986 72.8165 537.986 72.4947C537.901 72.012 538.071 71.4489 538.493 71.1271L541.2 68.955C541.877 68.4723 542.046 67.5874 541.623 66.8633L538.493 63.2431C537.901 62.68 536.886 62.68 536.294 63.2431L533.587 65.4152C533.164 65.737 532.657 65.8979 532.149 65.6566L531.219 65.2543C530.796 65.0934 530.542 64.6108 530.627 64.1281L531.134 60.9906C531.303 60.347 530.88 59.7034 530.204 59.5425C530.119 59.5425 529.95 59.5425 529.865 59.5425H524.536C523.69 59.5425 522.929 60.1861 522.76 60.9906L522.168 64.1281C521.999 64.6912 521.66 65.0934 521.068 65.2543C520.73 65.3348 520.391 65.4957 520.053 65.6566C519.546 65.8979 519.038 65.8175 518.615 65.4152L516.754 63.2431C516.162 62.68 515.147 62.68 514.555 63.2431L510.072 66.8633C509.395 67.346 509.226 68.2309 509.649 68.955L511.594 71.2075C511.933 71.6098 511.933 72.1729 511.594 72.5752C511.425 72.897 511.171 73.2188 511.002 73.5406C510.748 74.0233 510.241 74.2646 509.649 74.2646H506.35C505.504 74.2646 504.742 74.9082 504.573 75.7127L503.643 80.7809C503.474 81.4245 503.897 82.0681 504.573 82.229C504.658 82.229 504.827 82.229 504.912 82.229H508.211C508.718 82.229 509.141 82.5508 509.226 83.0335C509.31 83.3553 509.395 83.5966 509.479 83.9184C509.564 84.4011 509.395 84.9643 508.972 85.2861L506.265 87.4582C505.588 87.9409 505.419 88.8258 505.842 89.5499L508.972 93.17C509.564 93.7332 510.579 93.7332 511.171 93.17L513.963 90.9175C514.386 90.5957 514.893 90.4348 515.401 90.6761L516.331 91.0784C516.754 91.2393 517.008 91.722 516.923 92.2047L516.331 95.3422C516.162 95.9857 516.585 96.6293 517.262 96.7902C517.346 96.7902 517.515 96.7902 517.6 96.7902H522.929C523.775 96.7902 524.536 96.1466 524.705 95.3422L525.298 92.2047C525.467 91.6415 525.805 91.2393 526.397 91.0784C526.736 90.9979 527.074 90.837 527.412 90.7566C527.92 90.5152 528.427 90.5957 528.85 90.9979L530.711 93.17C531.303 93.7332 532.318 93.7332 532.911 93.17L537.394 89.5499C538.071 89.0672 538.24 88.1822 537.817 87.4582L535.871 85.2056C535.533 84.8034 535.533 84.2402 535.871 83.9184C536.21 83.114 536.717 82.1486 536.717 82.1486ZM516.416 76.839C518.192 72.3338 523.521 69.8399 527.666 71.4489C530.796 72.6556 532.149 76.1149 530.88 79.4938C529.104 83.9989 523.775 86.4928 519.63 84.8838C516.585 83.5966 515.147 80.2178 516.416 76.839Z" fill="white"/>
<path d="M486.979 45.1419H354.597C351.552 45.2224 349.014 42.8894 348.93 39.9932C348.93 39.6714 348.93 39.3496 349.014 39.1083L353.075 6.28519C353.582 2.90634 356.543 0.33198 360.18 0.251532H492.562C495.607 0.171083 498.145 2.5041 498.229 5.40025C498.229 5.72205 498.229 6.04384 498.145 6.28519L494.084 39.1887C493.577 42.5676 490.532 45.1419 486.979 45.1419Z" fill="white"/>
<path d="M495.185 0.814941C495.692 1.78033 495.946 2.90661 495.777 4.03289L491.717 36.856C491.209 40.2348 488.248 42.8092 484.611 42.9701H352.229C351.299 42.9701 350.368 42.7287 349.522 42.3265C350.453 44.0964 352.483 45.2226 354.598 45.2226H486.895C490.532 45.1422 493.493 42.5678 494.001 39.189L498.061 6.3659C498.484 4.03289 497.299 1.86077 495.185 0.814941Z" fill="#E9E6E8"/>
<path d="M492.054 0.170898H360.603C356.712 0.251347 353.497 2.9866 352.99 6.6068L352.482 10.7901H497.553L498.06 6.6068C498.568 3.54974 496.284 0.65359 493.069 0.251346C492.731 0.170897 492.393 0.170898 492.054 0.170898Z" fill="#8B0000"/>
<path d="M495.268 1.05615C495.691 2.02154 495.86 2.98692 495.776 4.03276L494.93 10.8709L497.467 11.8363L497.721 9.90551L498.059 6.68756C498.398 4.435 497.298 2.18243 495.268 1.05615Z" fill="#8B0000"/>
<path d="M382.85 28.5693C382.004 34.5225 376.76 38.9472 370.415 39.1081C365.086 39.1886 360.688 35.1661 360.519 30.0979C360.519 29.5347 360.519 29.052 360.603 28.5693C361.449 22.6161 366.694 18.1914 372.953 18.0305C378.282 17.8696 382.765 21.8921 382.85 26.9603C382.935 27.5235 382.935 28.0062 382.85 28.5693Z" fill="#E38878"/>
<path d="M484.019 21.7312H389.617L389.956 18.9155H484.357L484.019 21.7312Z" fill="#E38878"/>
<path d="M483.004 30.0172H388.603L388.941 27.1211H483.342L483.004 30.0172Z" fill="#E38878"/>
<path d="M423.03 38.2234H387.587L387.925 35.4077H423.368L423.03 38.2234Z" fill="#E38878"/>
<path d="M366.355 5.48042C366.271 6.20446 365.594 6.84805 364.748 6.84805C364.072 6.84805 363.479 6.36536 363.479 5.72177C363.479 5.64132 363.479 5.56087 363.479 5.48042C363.564 4.75638 364.241 4.19324 365.087 4.11279C365.763 4.11279 366.355 4.59549 366.355 5.23908C366.355 5.31952 366.355 5.39997 366.355 5.48042Z" fill="white"/>
<path d="M372.53 5.48054C372.446 6.20458 371.769 6.84817 370.923 6.84817C370.246 6.84817 369.654 6.36547 369.654 5.72188C369.654 5.64143 369.654 5.56099 369.654 5.48054C369.739 4.7565 370.416 4.19336 371.261 4.19336C371.938 4.19336 372.53 4.7565 372.53 5.40009C372.53 5.40009 372.53 5.40009 372.53 5.48054Z" fill="white"/>
<path d="M378.621 5.48042C378.537 6.20446 377.86 6.84805 377.014 6.84805C376.337 6.84805 375.745 6.36536 375.745 5.72177C375.745 5.64132 375.745 5.56087 375.745 5.48042C375.83 4.75638 376.506 4.11279 377.352 4.11279C378.029 4.11279 378.621 4.59549 378.621 5.23908C378.706 5.31952 378.621 5.39997 378.621 5.48042Z" fill="white"/>
<path d="M449.168 174.665H342.839C339.794 174.745 337.256 172.492 337.172 169.596C337.172 169.194 337.172 168.792 337.256 168.39L351.552 81.7463C352.229 78.2066 355.359 75.5518 359.165 75.4713H465.578C468.623 75.3909 471.161 77.6434 471.245 80.5396C471.245 80.9418 471.246 81.3441 471.161 81.7463L456.781 168.39C456.189 171.929 452.974 174.504 449.168 174.665Z" fill="white"/>
<path d="M467.355 75.7124C467.608 76.5169 467.693 77.4018 467.524 78.2868L453.228 164.93C452.551 168.47 449.422 171.044 445.615 171.205H339.202C338.61 171.205 338.018 171.125 337.426 170.883C338.102 173.136 340.302 174.664 342.84 174.584H449.253C453.059 174.503 456.189 171.849 456.866 168.309L471.161 81.6656C471.669 79.0912 470.061 76.5169 467.355 75.7124Z" fill="#E9E6E8"/>
<path d="M468.793 95.6637L471.077 81.6656C471.669 78.8499 469.808 76.1147 466.847 75.4711C466.424 75.3906 466.001 75.3906 465.578 75.3906H359.165C355.359 75.4711 352.229 78.1259 351.552 81.6656L349.269 95.6637H468.793V95.6637Z" fill="#8B0000"/>
<path d="M467.862 75.873L467.608 77.7234C467.608 77.8843 467.608 78.1256 467.608 78.2865L464.816 95.2612L468.623 97.5942L471.161 81.6654C471.584 79.2519 470.23 76.8384 467.862 75.873Z" fill="#8B0000"/>
<path d="M366.185 85.5267C366.016 86.4921 365.086 87.2161 364.07 87.2161C363.225 87.2161 362.548 86.653 362.548 85.8485C362.548 85.768 362.548 85.6072 362.548 85.5267C362.717 84.5613 363.648 83.8373 364.663 83.7568C365.508 83.7568 366.185 84.32 366.27 85.1245C366.185 85.3658 366.185 85.4463 366.185 85.5267Z" fill="white"/>
<path d="M374.138 85.5267C373.969 86.4921 373.038 87.2161 372.023 87.2161C371.177 87.2161 370.501 86.653 370.416 85.8485C370.416 85.768 370.416 85.6072 370.416 85.5267C370.585 84.5613 371.516 83.8373 372.531 83.7568C373.377 83.7568 374.053 84.32 374.138 85.1245C374.138 85.2854 374.138 85.4463 374.138 85.5267Z" fill="white"/>
<path d="M374.138 85.5267C373.969 86.4921 373.038 87.2161 372.023 87.2161C371.177 87.2161 370.501 86.653 370.416 85.8485C370.416 85.768 370.416 85.6072 370.416 85.5267C370.585 84.5613 371.516 83.8373 372.531 83.7568C373.377 83.7568 374.053 84.32 374.138 85.1245C374.138 85.2854 374.138 85.4463 374.138 85.5267Z" fill="white"/>
<path d="M382.004 85.5267C381.834 86.4921 380.904 87.2161 379.889 87.2161C379.043 87.2161 378.366 86.653 378.366 85.8485C378.366 85.768 378.366 85.6072 378.366 85.5267C378.535 84.5613 379.466 83.8373 380.481 83.7568C381.327 83.7568 382.004 84.32 382.088 85.1245C382.088 85.3658 382.088 85.4463 382.004 85.5267Z" fill="white"/>
<path d="M382.342 122.212C381.074 129.694 373.714 135.808 365.848 135.808C357.981 135.808 352.567 129.774 353.836 122.212C355.105 114.73 362.464 108.616 370.331 108.616C378.197 108.616 383.527 114.73 382.342 122.212Z" fill="#E38878"/>
<path d="M455.935 118.591H390.632L391.224 114.891H456.527L455.935 118.591Z" fill="#E38878"/>
<path d="M454.159 129.211H388.856L389.449 125.51H454.751L454.159 129.211Z" fill="#E38878"/>
<path d="M411.61 139.83H387.079L387.671 136.21H412.202L411.61 139.83Z" fill="#E38878"/>
<path d="M318.731 112.236H247.338C241.417 112.236 237.357 107.651 238.287 102.1L252.752 12.8016C253.851 7.08972 258.927 2.82594 265.102 2.66504H336.495C342.416 2.66504 346.476 7.25061 345.546 12.8016L331.081 102.1C330.066 107.892 324.906 112.075 318.731 112.236Z" fill="white"/>
<path d="M341.993 4.27393C343.431 6.2047 343.939 8.61816 343.516 10.8707L329.051 100.169C327.951 105.881 322.876 110.144 316.701 110.305H245.308C243.362 110.305 241.417 109.742 239.81 108.696C241.586 110.949 244.377 112.317 247.338 112.236H318.731C324.822 112.075 329.981 107.811 331.081 102.1L345.546 12.8015C346.223 9.58354 344.869 6.2047 341.993 4.27393Z" fill="#E9E6E8"/>
<path d="M314.587 36.9362C312.641 48.8426 300.883 58.4965 288.364 58.4965C275.845 58.4965 267.301 48.8426 269.247 36.9362C271.192 25.0298 282.95 15.376 295.469 15.376C307.989 15.376 316.532 25.0298 314.587 36.9362Z" fill="#E38878"/>
<path d="M302.49 35.4078C301.39 41.0392 296.399 45.2225 290.309 45.3834C284.557 45.3834 280.581 40.8783 281.427 35.4078C282.527 29.7764 287.517 25.593 293.523 25.4321C299.36 25.4321 303.335 29.9373 302.49 35.4078Z" fill="#8B0000"/>
<path d="M288.449 58.4968C295.301 58.3359 301.814 55.7615 306.636 51.176C301.899 48.1994 295.555 46.5904 288.28 46.9926C282.867 47.3949 277.537 48.843 272.716 51.2564C276.353 55.9224 282.274 58.6577 288.449 58.4968Z" fill="#8B0000"/>
<path d="M314.418 72.4947H260.027L260.535 69.5181H314.926L314.418 72.4947Z" fill="#E38878"/>
<path d="M312.895 81.4242H258.504L259.011 78.3672H313.402L312.895 81.4242Z" fill="#E38878"/>
<path d="M277.452 90.2738H257.066L257.574 87.2168H277.96L277.452 90.2738Z" fill="#E38878"/>
<path d="M556.427 177.158L524.622 177.48C520.561 177.48 517.178 174.423 517.178 170.561C517.178 170.159 517.178 169.757 517.262 169.354L522.761 137.899C523.437 134.037 526.905 131.141 531.05 131.141L562.856 130.819C566.916 130.819 570.3 133.876 570.3 137.738C570.3 138.14 570.3 138.542 570.215 138.945L564.717 170.4C564.04 174.262 560.572 177.077 556.427 177.158Z" fill="url(#paint1_linear)"/>
<path d="M566.578 131.704C567.423 133.072 567.677 134.681 567.423 136.209L561.925 167.584C561.248 171.526 557.696 174.342 553.551 174.422L521.745 174.744C520.477 174.744 519.208 174.422 518.023 173.779C519.292 176.031 521.83 177.479 524.537 177.399L556.342 177.077C560.487 177.077 563.955 174.181 564.632 170.319L570.13 138.864C570.722 136.048 569.284 133.152 566.578 131.704Z" fill="#8B0000"/>
<path d="M531.643 148.116H533.673L532.066 157.046H530.036L530.628 153.506H526.99L526.398 157.046H524.368L525.891 148.116H527.921L527.244 151.816H530.882L531.643 148.116Z" fill="white"/>
<path d="M539.594 149.725L538.325 156.965H536.295L537.564 149.725H534.941L535.28 148.036L542.554 147.955L542.301 149.644L539.594 149.725Z" fill="white"/>
<path d="M551.69 151.173L548.306 156.08H547.037L545.43 151.253L544.415 156.885H542.385L543.907 147.955H546.699L548.221 152.862L551.52 147.875H554.312L552.789 156.804H550.759L551.69 151.173Z" fill="white"/>
<path d="M554.989 156.804L556.512 147.875H558.542L557.273 155.034H561.164L560.826 156.804H554.989Z" fill="white"/>
<path d="M247.249 193.338L215.444 193.66C211.384 193.66 208 190.603 208 186.742C208 186.339 208 185.937 208.085 185.535L213.583 154.079C214.26 150.218 217.728 147.322 221.873 147.322L253.678 147C257.738 147 261.122 150.057 261.122 153.919C261.122 154.321 261.122 154.723 261.037 155.125L255.539 186.581C254.862 190.442 251.31 193.338 247.249 193.338Z" fill="url(#paint2_linear)"/>
<path d="M257.399 147.965C258.16 149.333 258.499 150.942 258.245 152.47L252.747 183.926C252.07 187.787 248.517 190.684 244.457 190.684L212.652 191.005C211.383 191.005 210.114 190.684 208.93 190.04C210.199 192.293 212.736 193.741 215.443 193.66L247.249 193.338C251.393 193.258 254.862 190.442 255.538 186.581L261.037 155.125C261.544 152.31 260.106 149.413 257.399 147.965Z" fill="#8B0000"/>
<path d="M228.724 165.262L229.062 163.492H233.969L232.954 169.445C232.869 170.33 232.361 171.215 231.685 171.859C231.008 172.422 230.162 172.663 229.316 172.663C228.217 172.663 227.201 172.261 226.609 171.457L227.963 170.009C228.301 170.572 228.893 170.893 229.57 170.893C229.908 170.893 230.162 170.733 230.416 170.572C230.67 170.33 230.839 169.928 230.923 169.606L231.685 165.342L228.724 165.262Z" fill="white"/>
<path d="M238.621 164.86C238.367 165.02 238.198 165.262 238.113 165.584C238.029 165.825 238.198 166.147 238.452 166.308C239.044 166.629 239.636 166.79 240.313 166.951C241.159 167.112 241.92 167.514 242.512 167.997C243.02 168.56 243.189 169.365 243.02 170.169C242.85 171.054 242.343 171.939 241.497 172.502C240.651 173.146 239.551 173.387 238.452 173.387C236.845 173.468 235.237 172.743 234.138 171.617L235.829 169.928C236.591 170.813 237.606 171.295 238.79 171.376C239.213 171.376 239.551 171.295 239.89 171.054C240.144 170.893 240.313 170.571 240.397 170.33C240.482 170.089 240.397 169.767 240.144 169.606C239.721 169.365 239.213 169.123 238.621 169.043C237.69 168.882 236.845 168.48 236.083 167.917C235.576 167.353 235.407 166.468 235.576 165.744C235.745 164.779 236.252 163.975 237.098 163.411C237.944 162.848 238.959 162.607 239.974 162.607C240.651 162.607 241.412 162.687 242.089 162.929C242.766 163.17 243.273 163.492 243.781 163.894L242.258 165.584C241.497 164.94 240.566 164.538 239.551 164.538C239.298 164.618 238.959 164.699 238.621 164.86Z" fill="white"/>
<path d="M310.273 172.331L278.467 172.653C274.407 172.653 271.023 169.596 271.023 165.734C271.023 165.332 271.023 164.93 271.108 164.528L276.606 133.072C277.283 129.211 280.836 126.314 284.896 126.314L316.701 125.993C320.762 125.993 324.145 129.05 324.145 132.911C324.145 133.314 324.145 133.716 324.061 134.198L318.562 165.573C317.886 169.435 314.418 172.331 310.273 172.331Z" fill="url(#paint3_linear)"/>
<path d="M320.424 126.958C321.185 128.326 321.523 129.935 321.27 131.463L315.771 162.919C315.095 166.78 311.542 169.676 307.481 169.676L275.676 169.918C274.407 169.918 273.138 169.596 271.954 168.952C273.223 171.205 275.761 172.653 278.467 172.572L310.273 172.412C314.418 172.412 317.886 169.515 318.563 165.654L324.061 134.279C324.653 131.302 323.13 128.406 320.424 126.958Z" fill="#8B0000"/>
<path d="M286.673 150.047C287.857 150.047 289.041 149.484 289.802 148.679L291.071 150.208C289.887 151.495 288.195 152.219 286.419 152.219C284.981 152.3 283.543 151.736 282.612 150.691C281.682 149.645 281.344 148.197 281.682 146.829C281.936 145.3 282.782 143.933 284.05 142.887C285.235 141.841 286.757 141.278 288.364 141.278C289.972 141.198 291.579 141.922 292.509 143.209L290.733 144.898C290.225 144.013 289.21 143.531 288.111 143.531C286.165 143.531 284.558 144.898 284.304 146.749C284.05 147.553 284.304 148.438 284.812 149.082C285.15 149.725 285.911 150.047 286.673 150.047Z" fill="white"/>
<path d="M296.654 143.611C296.4 143.772 296.231 144.013 296.147 144.335C296.062 144.576 296.231 144.898 296.485 145.059C297.077 145.381 297.669 145.542 298.346 145.703C299.192 145.864 299.953 146.266 300.545 146.748C301.053 147.312 301.222 148.116 301.053 148.921C300.884 149.806 300.376 150.69 299.53 151.254C298.684 151.897 297.585 152.139 296.485 152.139C294.878 152.219 293.271 151.495 292.171 150.369L293.863 148.679C294.624 149.564 295.639 150.047 296.823 150.127C297.246 150.127 297.585 150.047 297.923 149.806C298.177 149.645 298.346 149.323 298.43 149.081C298.515 148.84 298.43 148.518 298.177 148.357C297.754 148.116 297.246 147.875 296.654 147.794C295.724 147.633 294.878 147.231 294.116 146.668C293.609 146.105 293.44 145.22 293.609 144.496C293.778 143.531 294.286 142.726 295.132 142.163C295.977 141.6 296.992 141.358 298.008 141.358C298.684 141.358 299.446 141.439 300.122 141.68C300.799 141.922 301.307 142.243 301.814 142.646L300.291 144.335C299.53 143.691 298.6 143.289 297.585 143.289C297.331 143.37 296.992 143.45 296.654 143.611Z" fill="white"/>
<path d="M306.552 143.53C306.298 143.691 306.129 144.013 306.044 144.254C305.959 144.496 306.129 144.818 306.382 144.978C306.975 145.3 307.567 145.461 308.243 145.622C309.089 145.783 309.851 146.185 310.443 146.748C310.95 147.311 311.119 148.116 310.95 148.84C310.781 149.725 310.274 150.61 309.428 151.173C308.582 151.817 307.482 152.058 306.382 152.058C304.775 152.138 303.168 151.414 302.068 150.288L303.76 148.599C304.521 149.484 305.537 149.966 306.721 150.047C307.144 150.047 307.482 149.966 307.82 149.725C308.074 149.564 308.243 149.242 308.328 149.001C308.413 148.76 308.328 148.438 308.074 148.277C307.651 148.036 307.144 147.794 306.552 147.714C305.621 147.553 304.775 147.151 304.014 146.587C303.506 146.024 303.253 145.139 303.506 144.415C303.676 143.45 304.183 142.645 305.029 142.082C305.875 141.519 306.89 141.278 307.905 141.278C308.582 141.278 309.343 141.358 310.02 141.6C310.696 141.841 311.204 142.163 311.712 142.565L310.189 144.254C309.428 143.611 308.497 143.209 307.482 143.209C307.144 143.289 306.805 143.37 306.552 143.53Z" fill="white"/>
<path d="M664.955 203.143H583.072C580.027 203.224 577.405 200.891 577.32 197.995C577.32 197.592 577.32 197.271 577.405 196.868L585.018 146.507C585.61 142.968 588.824 140.313 592.546 140.232H674.429C677.474 140.152 680.096 142.485 680.181 145.381C680.181 145.783 680.181 146.105 680.096 146.507L672.568 196.868C671.891 200.408 668.761 203.063 664.955 203.143Z" fill="white"/>
<path d="M677.474 141.037C678.151 142.163 678.405 143.45 678.151 144.737L670.538 195.098C669.946 198.638 666.731 201.293 663.009 201.373H581.127C580.028 201.373 579.013 201.132 578.082 200.569C579.097 202.258 581.043 203.223 582.988 203.143H664.87C668.677 203.063 671.807 200.408 672.399 196.868L679.927 146.507C680.519 144.415 679.42 142.243 677.474 141.037Z" fill="#E9E6E8"/>
<path d="M659.541 194.294H589.332C586.794 194.375 584.764 192.444 584.68 190.111C584.68 189.789 584.68 189.467 584.764 189.226L590.432 151.415C590.939 148.519 593.477 146.427 596.522 146.347H666.731C669.269 146.266 671.299 148.117 671.383 150.53C671.383 150.852 671.383 151.174 671.299 151.415L665.631 189.226C665.124 192.122 662.586 194.214 659.541 194.294Z" fill="#E38878"/>
<path d="M586.033 181.1L584.764 189.467C584.425 191.8 586.117 193.972 588.655 194.294C588.909 194.294 589.162 194.374 589.416 194.294H616.146L601.174 163.965L586.033 181.1Z" fill="#8B0000"/>
<path d="M601.681 172.895L602.527 174.665L604.896 171.929L601.005 163.965L594.068 171.849L595.422 174.665L597.114 172.814L598.721 176.193L601.681 172.895Z" fill="white"/>
<path d="M612.679 187.697L624.098 174.262L634.164 194.294H615.978L612.679 187.697Z" fill="#8B0000"/>
<path d="M654.634 162.678C653.789 167.424 649.559 170.964 644.484 171.125C640.339 171.205 636.871 168.148 636.786 164.206C636.786 163.724 636.786 163.241 636.871 162.678C637.717 157.931 641.946 154.391 647.021 154.231C651.166 154.15 654.634 157.207 654.719 161.149C654.804 161.632 654.719 162.195 654.634 162.678Z" fill="white"/>
<path d="M624.86 183.192L625.705 184.962L628.074 182.227L624.098 174.262L617.331 182.146L618.684 184.962L620.292 183.112L621.983 186.49L624.86 183.192Z" fill="white"/>
<defs>
<linearGradient id="paint0_linear" x1="589.12" y1="37.8213" x2="589.12" y2="120.764" gradientUnits="userSpaceOnUse">
<stop stop-color="#8B0000"/>
<stop offset="1" stop-color="#E38878"/>
</linearGradient>
<linearGradient id="paint1_linear" x1="543.739" y1="130.819" x2="543.739" y2="177.48" gradientUnits="userSpaceOnUse">
<stop stop-color="#8B0000"/>
<stop offset="1" stop-color="#E38878"/>
</linearGradient>
<linearGradient id="paint2_linear" x1="234.561" y1="147" x2="234.561" y2="193.66" gradientUnits="userSpaceOnUse">
<stop stop-color="#8B0000"/>
<stop offset="1" stop-color="#E38878"/>
</linearGradient>
<linearGradient id="paint3_linear" x1="297.584" y1="125.993" x2="297.584" y2="172.653" gradientUnits="userSpaceOnUse">
<stop stop-color="#8B0000"/>
<stop offset="1" stop-color="#E38878"/>
</linearGradient>
</defs>
</svg>
